<?xml version="1.0" encoding="utf-8" ?>
<svg baseProfile="full" height="200mm" version="1.1" viewBox="0,0,200,200" width="200mm" xmlns="http://www.w3.org/2000/svg" xmlns:ev="http://www.w3.org/2001/xml-events" xmlns:xlink="http://www.w3.org/1999/xlink"><defs /><rect fill="#1a1a1a" height="200" width="200" x="0" y="0" /><text alignment-baseline="middle" fill="#e1ed5e" style="dominant-baseline: central; font-size:9.0px; font-family:Arial;" text-anchor="middle" x="100.0" y="100.0">2024</text><line stroke="#e1ed5e" stroke-width="0.3" x1="100.0" x2="100.0" y1="15.0" y2="10.0" /><path d="M 100.0 14.0 a86.0,86.0 0 0,1 42.35913384403234,11.155469271406648" fill="none" id="id13" stroke="none" /><text fill="#e1ed5e" style="font-size:6.75px; font-family:Arial;" text-anchor="middle"><textPath startOffset="22.145653131862478" xlink:href="#id13">January</textPath></text><path d="M 100.36049292484886 79.00309439819443 l 0.514489411460342 -29.966428911442815 a50.970845184263,50.970845184263 0 0,0 0.8747244749985645,0.022529799614639124 l -1.028827200529648 29.95318139447813" fill="#9aff23" stroke="none" /><path d="M 100.72087961077811 79.0123766808444 l 1.0553473312887713 -30.725286065529165 a51.74340517571629,51.74340517571629 0 0,0 0.8874591239564936,0.03811131328428085 l -1.5826322158461013 30.702642183819055" fill="#91ff24" stroke="none" /><path d="M 101.08105385017728 79.02784411241856 l 1.5346862842990707 -29.772503920665244 a50.81203199544176,50.81203199544176 0 0,0 0.8707141282469402,0.05237999978141885 l -2.0455447646784735 29.741771943059135" fill="#9cff22" stroke="none" /><path d="M 101.44090949804482 79.04949213459386 l 1.3377779572426185 -19.450997896404132 a40.49694768492756,40.49694768492756 0 0,0 0.693136124520395,0.05365311973710368 l -1.671483076538247 19.425167009671977" fill="#ffe515" stroke="none" /><path d="M 101.80034050326958 79.07731436759882 l 3.43881413270917 -39.96423283054844 a61.111910305713515,61.111910305713515 0 0,0 1.0444329186236432,0.09890888328647023 l -4.124346614717826 39.899312191756785" fill="#30ff32" stroke="none" /><path d="M 102.51750503828377 79.15144685158666 l 3.6905140663522524 -30.56275061509495 a51.78476277697183,51.78476277697183 0 0,0 0.8816286276615058,0.11414447667081531 l -4.21462051590455 30.494894542223737" fill="#91ff24" stroke="none" /><path d="M 102.87502721639298 79.19773525538626 l 4.128165584364097 -29.86934972507299 a51.15327186377369,51.15327186377369 0 0,0 0.8688137066587149,0.12768569563569016 l -4.640304396630493 29.794082956138418" fill="#98ff23" stroke="none" /><path d="M 103.23170211078529 79.25015418208739 l 4.625890881598907 -29.701537850077603 a51.05961106049199,51.05961106049199 0 0,0 0.8649072542655842,0.14232015955359173 l -5.135075638917562 29.617751692028342" fill="#99ff23" stroke="none" /><path d="M 103.58742460773223 79.30868818359171 l 5.073781468318608 -29.264223204305555 a50.70080837518853,50.70080837518853 0 0,0 0.8562769386458671,0.15604218230687283 l -5.575393140515529 29.172812848067316" fill="#9dff22" stroke="none" /><path d="M 103.94208987418118 79.37332000966035 l 5.62331894883409 -29.423580928708976 a50.95611507970623,50.95611507970623 0 0,0 0.8577697983031026,0.17157798290489565 l -6.1275852326681495 29.32271354914122" fill="#9aff23" stroke="none" /><path d="M 104.29559338865022 79.4440306129975 l 8.035393727280052 -38.45226783030854 a60.28287735955951,60.28287735955951 0 0,0 1.0111378590655407,0.22037279020939243 l -8.694294002964728 38.30866358196543" fill="#36ff2f" stroke="none" /><path d="M 104.64783097203109 79.52079915486377 l 8.784690288757801 -38.7069662964038 a60.6913091663696,60.6913091663696 0 0,0 1.0140299492338514,0.23930830695878408 l -9.447852391731539 38.550461845798786" fill="#32ff2f" stroke="none" /><path d="M 104.9986988182912 79.60360301121754 l 7.07737583680322 -28.878108574583397 a50.73271604782841,50.73271604782841 0 0,0 0.8440829736862064,0.2145625911502417 l -7.572064103714821 28.752360751597887" fill="#9dff22" stroke="none" /><path d="M 105.3480935250658 79.69241777938227 l 7.639564998710761 -29.00867264455015 a50.997767283052895,50.997767283052895 0 0,0 0.8446653319928579,0.2302172922945454 l -8.136411731638312 28.873254858111462" fill="#9aff23" stroke="none" /><path d="M 105.69591212413111 79.78721728523813 l 5.806375104900106 -20.604776864188683 a42.407260952345325,42.407260952345325 0 0,0 0.6989927990940419,0.2034666165860707 l -6.1592279163757535 20.502066553300097" fill="#fffe18" stroke="none" /><path d="M 106.04205211174951 79.88797359093562 l 9.150040679821602 -30.45750953367728 a52.802250414655134,52.802250414655134 0 0,0 0.8658547397973498,0.26824401170111023 l -9.671536052490582 30.295948934169523" fill="#85ff25" stroke="none" /><path d="M 106.38641147887787 79.99465700312896 l 6.012990712522844 -18.835607764840628 a40.77210603804791,40.77210603804791 0 0,0 0.6649294883926953,0.21857553001250032 l -6.335442938563282 18.729611313426105" fill="#ffe915" stroke="none" /><path d="M 109.06512990194946 81.05736502329252 l 4.402929681378941 -9.200429633615776 a31.199690937586443,31.199690937586443 0 0,0 0.4811285779204066,0.2353440971213706 l -4.560218508561415 9.123491786397185" fill="#ff6809" stroke="none" /><path d="M 110.02825361518725 81.54914285379988 l 2.1807066359390794 -4.012254592020634 a25.566581691289382,25.566581691289382 0 0,0 0.38381016510289606,0.21289302869981336 l -2.249260989198076 3.9742286478876743" fill="#ff1602" stroke="none" /><path d="M 110.34350942703115 81.72400993836675 l 4.616515228972113 -8.15694006364817 a30.372720206070383,30.372720206070383 0 0,0 0.4515520009478037,0.2607036693003286 l -4.7558596977803145 8.07648949707167" fill="#ff5c08" stroke="none" /><line stroke="#e1ed5e" stroke-width="0.3" x1="143.13028292997686" x2="145.6673583964461" y1="26.7553504044142" y2="22.446841604673864" /><path d="M 143.63769802327073 25.89364864446614 a86.0,86.0 0 0,1 29.32050498858742,28.57503671076993" fill="none" id="id14" stroke="none" /><text fill="#e1ed5e" style="font-size:6.75px; font-family:Arial;" text-anchor="middle"><textPath startOffset="20.669276256404974" xlink:href="#id14">February</textPath></text><path d="M 110.65571695917076 81.90426304109057 l 4.911738627218459 -8.341205997646643 a30.679922202026532,30.679922202026532 0 0,0 0.4515313801910815,0.2711316202544419 l -5.054202763966975 8.255660376856278" fill="#ff6008" stroke="none" /><path d="M 111.27062007382361 82.28071324371311 l 6.205365991125951 -9.755866021945371 a32.562157623989165,32.562157623989165 0 0,0 0.46907240599851197,0.30404706639620344 l -6.37192402938147 9.647905113845274" fill="#ff7b0b" stroke="none" /><path d="M 111.8722381534696 82.67804972795209 l 3.4118632957222297 -4.97801051322865 a27.03501448370354,27.03501448370354 0 0,0 0.38055633293196395,0.2656578758807482 l -3.4968147198279547 4.9187078215427755" fill="#ff2c04" stroke="none" /><path d="M 113.03279911837588 83.53348406188908 l 5.7281813538691395 -7.237370015692403 a30.229928838667043,30.229928838667043 0 0,0 0.40414424922243314,0.32554999930325734 l -5.851576373446832 7.137971722595737" fill="#ff5a08" stroke="none" /><path d="M 113.31354834802062 83.75963576809568 l 2.366436608623661 -2.886667885310568 a24.732676479781986,24.732676479781986 0 0,0 0.32603045878448306,0.2719862043931003 l -2.4156414015700367 2.8456194970055972" fill="#ff0901" stroke="none" /><path d="M 114.13192950727249 84.46653392183569 l 5.098909068693435 -5.604594263892589 a28.57696182870561,28.57696182870561 0 0,0 0.36002920600822563,0.3332376581572628 l -5.194368046015626 5.516238859602951" fill="#ff4206" stroke="none" /><path d="M 114.91283532996326 85.21462403516908 l 2.712195112375078 -2.6890140968612966 a24.81926683287644,24.81926683287644 0 0,0 0.29737405337674294,0.30513197598878183 l -2.7579559669026326 2.6420594288047727" fill="#ff0b01" stroke="none" /><path d="M 115.16444852881244 85.47280134310134 l 11.65065960903001 -11.161068356868148 a37.13404215291899,37.13404215291899 0 0,0 0.43702199466122577,0.46410221380070027 l -11.840537437427496 10.959424683122952" fill="#ffb911" stroke="none" /><path d="M 115.8921839302757 86.27271002978787 l 7.124486553846724 -6.153961799247472 a30.414327086018414,30.414327086018414 0 0,0 0.33789656459242795,0.39804130346105626 l -7.229077681946264 6.030753713336864" fill="#ff5d08" stroke="none" /><path d="M 117.62189284568427 88.57770195909679 l 8.889011452329692 -5.761749829410515 a31.593030052650683,31.593030052650683 0 0,0 0.2910805896723565,0.457627034165814 l -8.986609733627938 5.608309120566029" fill="#ff6d0a" stroke="none" /><path d="M 117.81537515405839 88.88188828441811 l 8.77051983711462 -5.473453043202072 a31.33831255231525,31.33831255231525 0 0,0 0.2808987791550055,0.45882704538690067 l -8.863186580725028 5.322088881690617" fill="#ff6a09" stroke="none" /><line stroke="#e1ed5e" stroke-width="0.3" x1="172.87174338648825" x2="177.1583165268699" y1="56.24261187166439" y2="53.66864786411523" /><path d="M 173.72905801456457 55.72781907015455 a86.0,86.0 0 0,1 12.242430191666344,42.057860355516425" fill="none" id="id15" stroke="none" /><text fill="#e1ed5e" style="font-size:6.75px; font-family:Arial;" text-anchor="middle"><textPath startOffset="22.145653131862474" xlink:href="#id15">March</textPath></text><path d="M 118.00360718960297 89.18935116829356 l 26.719709296329338 -16.044417712841057 a52.1667483806777,52.1667483806777 0 0,0 0.45441284456530096,0.7716923542086445 l -26.991195851024404 15.583374190338855" fill="#8cff24" stroke="none" /><path d="M 118.18653347947321 89.5 l 34.14582874675738 -19.71410341864324 a60.428206837286474,60.428206837286474 0 0,0 0.5109539688518685,0.9028067042975627 l -34.47921608063063 19.12503994424656" fill="#34ff2f" stroke="none" /><path d="M 118.53625476483649 90.13048839642627 l 25.23998735061894 -13.438871616263361 a49.59475881657009,49.59475881657009 0 0,0 0.39366886265980766,0.7549119513353781 l -25.46696428225369 13.003613421823484" fill="#aaff21" stroke="none" /><path d="M 118.70294669586156 90.45014215332178 l 14.388276762743393 -7.346756635587648 a37.155412135375954,37.155412135375954 0 0,0 0.2851767882206465,0.5705446087983593 l -14.512273464175777 7.098680170625539" fill="#ffba11" stroke="none" /><path d="M 118.8641267826498 90.77261029715802 l 27.618196186275114 -13.509443720167097 a51.74524077336106,51.74524077336106 0 0,0 0.3834587031520698,0.8012812084346701 l -27.846034147387098 13.033350009667322" fill="#91ff24" stroke="none" /><path d="M 119.0197475246899 91.09779779509293 l 27.962984186320995 -13.088088533042033 a51.87436713607559,51.87436713607559 0 0,0 0.3705695688678054,0.8097613851355274 l -28.183538220043854 12.60613816569182" fill="#90ff24" stroke="none" /><path d="M 119.16976305983485 91.42560881287824 l 24.920593371475583 -11.146664437910172 a48.29989197923325,48.29989197923325 0 0,0 0.3320413287638846,0.7597755403080937 l -25.10826858225644 10.717226827826229" fill="#b9ff1f" stroke="none" /><path d="M 119.31412917781788 91.75594674310238 l 30.111951957285356 -12.85300172322082 a53.74033145792783,53.74033145792783 0 0,0 0.35487595615512413,0.8515731067166 l -30.328153757976963 12.33419610706294" fill="#7bff26" stroke="none" /><path d="M 119.58574465831526 92.42381321644754 l 15.633195112858614 -6.047255708934797 a37.76204316442214,37.76204316442214 0 0,0 0.22867491461853048,0.6065873792398557 l -15.734700711291584 5.7780000495007835" fill="#ffc212" stroke="none" /><path d="M 119.71291397450082 92.76114493625339 l 37.543287248973016 -13.786415106536964 a60.99454536494508,60.99454536494508 0 0,0 0.3524898882731774,0.9859769525160587 l -37.774417307290136 13.139903197639988" fill="#2fff30" stroke="none" /><path d="M 119.83427380445688 93.10060997987247 l 48.978778153847415 -17.037361514932872 a72.85742373888542,72.85742373888542 0 0,0 0.4007664089771865,1.1847946766169446 l -49.26402998439696 16.194065163841767" fill="#3fffbb" stroke="none" /><path d="M 119.94978838288452 93.4421083053983 l 42.10043801779685 -13.839250197404025 a65.31672062908876,65.31672062908876 0 0,0 0.3410008205079827,1.068180213417032 l -42.331803554082086 13.114500950295607" fill="#35ff65" stroke="none" /><path d="M 120.05942366710727 93.78553927170692 l 33.40591811013436 -10.349238823267848 a55.97230488546669,55.97230488546669 0 0,0 0.27645968764759776,0.9202443865384231 l -33.57865411778558 9.774256833138702" fill="#63ff29" stroke="none" /><path d="M 120.16314734710363 94.1308016681162 l 31.259032090578582 -9.099048667552395 a53.556409106262144,53.556409106262144 0 0,0 0.24937268768956658,0.8849356944800701 l -31.410623270342732 8.561105049169312" fill="#7dff26" stroke="none" /><path d="M 120.26092885502905 94.47779374421319 l 30.179540634515956 -8.225568002393409 a52.28041946445728,52.28041946445728 0 0,0 0.22856630737039563,0.8679034983275058 l -30.31629642269108 7.706283999693104" fill="#8bff24" stroke="none" /><path d="M 120.35273937422433 94.82641323984039 l 32.22900752870403 -8.192487683243 a54.25395887297255,54.25395887297255 0 0,0 0.2216984003415802,0.9046051281582526 l -32.364893455561905 7.638026730476652" fill="#75ff27" stroke="none" /><path d="M 120.43855184770803 95.1765574152323 l 19.08878684615723 -4.50490171962127 a40.61315687903077,40.61315687903077 0 0,0 0.1543089903238666,0.6799138832864414 l -19.163306698038763 4.1765535023958025" fill="#ffe715" stroke="none" /><path d="M 120.51834098615036 95.52812308129327 l 31.921263806431085 -6.957090874368495 a53.67060140912604,53.67060140912604 0 0,0 0.1884663337781866,0.9018796327094748 l -32.03598785103364 6.408094790373616" fill="#7cff26" stroke="none" /><path d="M 120.592083275326 95.88100663000786 l 30.47817148281183 -6.0964878875373465 a52.08192564013005,52.08192564013005 0 0,0 0.16783700062631424,0.8781941084426523 l -30.5783347757203 5.57239121406138" fill="#8dff24" stroke="none" /><path d="M 120.65975698304385 96.23510406497455 l 21.43940424644513 -3.9069736378339743 a42.79248717905368,42.79248717905368 0 0,0 0.1254944348992021,0.7238185516502895 l -21.503313498836565 3.538362053263092" fill="#fcff18" stroke="none" /><path d="M 120.7213421655516 96.59031103205396 l 34.80817064113481 -5.727671232936339 a56.27626625842034,56.27626625842034 0 0,0 0.1486725371450883,0.9545843389534381 l -34.90136467041816 5.129298712051459" fill="#5fff29" stroke="none" /><path d="M 120.82617615685814 97.30363454192243 l 34.261370529700926 -4.435820351604055 a55.54733003815438,55.54733003815438 0 0,0 0.11431617705214046,0.946701935746547 l -34.33246879301273 3.8470247389340946" fill="#67ff28" stroke="none" /><path d="M 120.86939407059847 97.66154086499901 l 32.98232678625115 -3.6957385109497265 a54.18873850233505,54.18873850233505 0 0,0 0.09564985193896125,0.9253255509585784 l -33.04090903067178 3.129008437708217" fill="#76ff27" stroke="none" /><path d="M 120.9064616781168 98.02013634271609 l 15.866643706606219 -1.5025876555028739 a36.93763320492903,36.93763320492903 0 0,0 0.05436230611828544,0.6317724003318275 l -15.890099635422246 1.2299942077953843" fill="#ffb710" stroke="none" /><path d="M 120.98066250479742 99.09900007780936 l 11.395719243728374 -0.4893812170877777 a32.406222470981334,32.406222470981334 0 0,0 0.019097006968007976,0.555988521211239 l -11.40244093769323 0.2936864313124187" fill="#ff790b" stroke="none" /><path d="M 120.99303781780057 99.45929381324524 l 48.25396036737441 -1.2428508504821996 a69.26996342833382,69.26996342833382 0 0,0 0.02041342413495936,1.1889796165929958 l -48.268185223108034 0.41432431792013735" fill="#3aff93" stroke="none" /><line stroke="#e1ed5e" stroke-width="0.3" x1="184.99686870605535" x2="189.99668451229388" y1="99.2704041080226" y2="99.22748670261217" /><path d="M 185.99683186730306 99.26182062694052 a86.0,86.0 0 0,1 -10.086455211305974,41.156179273409016" fill="none" id="id16" stroke="none" /><text fill="#e1ed5e" style="font-size:6.75px; font-family:Arial;" text-anchor="middle"><textPath startOffset="21.40746469413373" xlink:href="#id16">April</textPath></text><line stroke="#e1ed5e" stroke-width="0.3" x1="174.33088141563837" x2="178.70328620479359" y1="141.23008692659167" y2="143.65538615756765" /><path d="M 175.20536237346943 141.71514677278685 a86.0,86.0 0 0,1 -30.301960400862466,31.631185727798858" fill="none" id="id17" stroke="none" /><text fill="#e1ed5e" style="font-size:6.75px; font-family:Arial;" text-anchor="middle"><textPath startOffset="22.145653131862474" xlink:href="#id17">May</textPath></text><path d="M 115.41159269507618 114.26474011684316 l 2.879157584542232 2.6649052769253583 a24.923170724249925,24.923170724249925 0 0,0 -0.2933150594901715,0.3114904286590802 l -2.8329866913158006 -2.7139371655289355" fill="#ff0c01" stroke="none" /><path d="M 114.91283532996324 114.78537596483092 l 4.229237423442127 4.193090312241701 a26.955539904194968,26.955539904194968 0 0,0 -0.32861123870157455,0.32580261251255554 l -4.156634264610587 -4.265072934982919" fill="#ff2a04" stroke="none" /><path d="M 111.8722381534696 117.32195027204791 l 10.772437337612024 15.717308013766129 a40.054636637636904,40.054636637636904 0 0,0 -0.5704995474877602,0.3838575561356192 l -10.50104150202726 -15.89991524395887" fill="#ffe014" stroke="none" /><path d="M 111.5731344415666 117.5232005979908 l 1.7147259234665062 2.5963135984628907 a24.111451316374946,24.111451316374946 0 0,0 -0.3473362119209076,0.22513913617007308 l -1.669904079288589 -2.6253665763368583" fill="#ff0000" stroke="none" /><path d="M 111.27062007382361 117.71928675628689 l 4.6830288906720945 7.362499246560411 a29.725660705440713,29.725660705440713 0 0,0 -0.4329130161499904,0.2701697401858314 l -4.55595174573239 -7.44180478358779" fill="#ff5307" stroke="none" /><line stroke="#e1ed5e" stroke-width="0.3" x1="143.1302829299769" x2="145.66735839644613" y1="173.24464959558577" y2="177.55315839532614" /><path d="M 143.63769802327073 174.10635135553383 a86.0,86.0 0 0,1 -40.68552437913181,11.842963189579606" fill="none" id="id18" stroke="none" /><text fill="#e1ed5e" style="font-size:6.75px; font-family:Arial;" text-anchor="middle"><textPath startOffset="21.407464694133747" xlink:href="#id18">June</textPath></text><path d="M 110.65571695917076 118.09573695890943 l 5.926952475126013 10.065261058340274 a32.680678311422824,32.680678311422824 0 0,0 -0.4858644725836913,0.2805139840358708 l -5.753295534681924 -10.165521939652317" fill="#ff7d0b" stroke="none" /><path d="M 109.71004243097381 118.62028667847754 l 3.770824579570353 7.231053333183825 a29.155197748506215,29.155197748506215 0 0,0 -0.44575906393346665,0.2276077542035058 l -3.646138293923304 -7.294719039060167" fill="#ff4b06" stroke="none" /><path d="M 108.73861861582097 119.09545874513695 l 3.845422077455572 8.402941227432565 a30.241033071332915,30.241033071332915 0 0,0 -0.47390088893216176,0.21196983984339882 l -3.7006077856677835 -8.467714818185815" fill="#ff5a08" stroke="none" /><path d="M 108.4095320186766 119.2426549942271 l 3.198008943655044 7.317670309660218 a28.985960177998656,28.985960177998656 0 0,0 -0.4576537003586191,0.19534515091189653 l -3.071920168125994 -7.371490110231519" fill="#ff4806" stroke="none" /><path d="M 107.407793817531 119.65005319985036 l 4.796217152290122 12.722535821326048 a34.59656635687284,34.59656635687284 0 0,0 -0.5575168271754108,0.204727901351524 l -4.577111173460584 -12.802994571686293" fill="#ff970d" stroke="none" /><path d="M 107.06938296918513 119.77432235084164 l 4.498252547839628 12.582412960820065 a34.36231237102166,34.36231237102166 0 0,0 -0.5571509057866103,0.19380600656150096 l -4.281595870007996 -12.657777399950156" fill="#ff940d" stroke="none" /><path d="M 106.72888874123015 119.89276391827305 l 8.22031872128108 24.301911644553346 a46.65456196194201,46.65456196194201 0 0,0 -0.7608631741414311,0.25011083800323014 l -7.801932809491915 -24.439443403958595" fill="#ccff1d" stroke="none" /><path d="M 106.38641147887787 120.00534299687104 l 7.409398898486443 23.209836518536378 a45.36381955388106,45.36381955388106 0 0,0 -0.7438788662904912,0.23045557429198568 l -7.009879399324327 -23.33360868063501" fill="#dcff1b" stroke="none" /><path d="M 106.0420521117495 120.11202640906438 l 2.609807747494443 8.68720119744065 a30.07075306265672,30.07075306265672 0 0,0 -0.4956519091801789,0.14427704705402503 l -2.4602958259326573 -8.730721938797194" fill="#ff5808" stroke="none" /><path d="M 105.3480935250658 120.30758222061773 l 4.55132402600192 17.282118653594345 a38.871378669441704,38.871378669441704 0 0,0 -0.6467359024825775,0.16439773736999502 l -4.253982830293944 -17.35770162279961" fill="#ffd013" stroke="none" /><path d="M 104.9986988182912 120.39639698878246 l 7.17788128951283 29.288205119208413 a51.15494882952323,51.15494882952323 0 0,0 -0.854696510541024,0.2017060492697402 l -6.674052625231926 -29.407107312124378" fill="#98ff23" stroke="none" /><path d="M 104.64783097203109 120.47920084513623 l 4.060469949544574 17.891179804678888 a39.34616393185519,39.34616393185519 0 0,0 -0.6599617951744757,0.14383560157524714 l -3.7527457377509625 -17.958246864387853" fill="#ffd614" stroke="none" /><path d="M 104.29559338865022 120.5559693870025 l 6.549865140905391 31.343475777103993 a53.02052790248706,53.02052790248706 0 0,0 -0.8925210929777639,0.17852921510659275 l -6.010847562396669 -31.451294388873446" fill="#83ff25" stroke="none" /><path d="M 103.94208987418118 120.62667999033965 l 5.307415298404805 27.77063954148641 a49.273257288344226,49.273257288344226 0 0,0 -0.8321672821418057,0.1516485997569254 l -4.829913282711941 -27.857656315174697" fill="#adff20" stroke="none" /><path d="M 103.58742460773223 120.69131181640829 l 5.480840108509278 31.612029269301143 a53.08364073508797,53.08364073508797 0 0,0 -0.899192629967578,0.14796180507823406 l -4.937369975488628 -31.701457072875048" fill="#82ff25" stroke="none" /><path d="M 102.875027216393 120.80226474461374 l 2.7208607344843525 19.686792879469895 a40.873925053084136,40.873925053084136 0 0,0 -0.6958730815643736,0.09009470227295058 l -2.3825098310292034 -19.73059917794324" fill="#ffea16" stroke="none" /><path d="M 102.51750503828377 120.84855314841334 l 1.3142418050045999 10.883807462083272 a31.96286898552205,31.96286898552205 0 0,0 -0.5452927828261825,0.061101193687576695 l -1.1272131205776181 -10.90476441627782" fill="#ff730a" stroke="none" /><path d="M 102.15924093988457 120.88869738790638 l 1.821915683838835 17.62538153246784 a38.71929600531794,38.71929600531794 0 0,0 -0.6617320115111164,0.06266670949028144 l -1.5190841089427034 -17.654059997463307" fill="#ffce13" stroke="none" /><path d="M 101.80034050326958 120.92268563240118 l 0.9748750755427454 11.32952610875633 a32.37139143912942,32.37139143912942 0 0,0 -0.5540610364519339,0.04288782834827544 l -0.7802450443155757 -11.34459170409966" fill="#ff780b" stroke="none" /><path d="M 101.44090949804482 120.95050786540614 l 1.440801171494372 20.948932821137085 a41.9984212349475,41.9984212349475 0 0,0 -0.7196842420436032,0.04329441686771813 l -1.0809725773183037 -20.970579215829495" fill="#fff817" stroke="none" /><path d="M 101.08105385017728 120.97215588758144 l 2.2446673147881544 43.545946239196255 a64.60376090684207,64.60376090684207 0 0,0 -1.1080290689022716,0.047583535774312326 l -1.4968124852850533 -43.5780623433964" fill="#34ff5d" stroke="none" /><line stroke="#e1ed5e" stroke-width="0.3" x1="101.45913802915013" x2="101.54496967792366" y1="184.9874750549273" y2="189.98673829345242" /><path d="M 101.47630435890484 185.9873277026323 a86.0,86.0 0 0,1 -42.54439059252881,-10.42667462771756" fill="none" id="id19" stroke="none" /><text fill="#e1ed5e" style="font-size:6.75px; font-family:Arial;" text-anchor="middle"><textPath startOffset="22.145653131862474" xlink:href="#id19">July</textPath></text><path d="M 100.36049292484886 120.99690560180557 l 0.2769366126719386 16.130169313016292 a37.13254648076399,37.13254648076399 0 0,0 -0.6374295375207889,0.005471565942135548 l -1.975667140976352e-15 -16.132546480763992" fill="#ffb911" stroke="none" /><path d="M 100.0 121.0 l 3.433712632608677e-15 28.038391436611448 a49.03839143661145,49.03839143661145 0 0,0 -0.8418091980412841,-0.00722591951997347 l 0.48131627319242853 -28.034259915285908" fill="#b0ff20" stroke="none" /><path d="M 99.63950707515114 120.99690560180557 l -0.49478797357258636 28.818918924326333 a49.8231660839972,49.8231660839972 0 0,0 -0.855028843214984,-0.022022510005104398 l 0.9894301308583142 -28.80617869697118" fill="#a7ff21" stroke="none" /><path d="M 99.27912038922189 120.98762331915562 l -0.6937848551447515 20.198789071862073 a41.2107005666504,41.2107005666504 0 0,0 -0.7068110824618996,-0.030353509101825334 l 1.0404216982074899 -20.18390299433442" fill="#ffee16" stroke="none" /><path d="M 98.91894614982273 120.97215588758144 l -1.4578181031860034 28.281281742571668 a49.31882996567292,49.31882996567292 0 0,0 -0.845126643303188,-0.0508407202265307 l 1.9430890986216376 -28.252089044520446" fill="#adff20" stroke="none" /><path d="M 98.55909050195518 120.95050786540614 l -3.031092982601219 44.07142673355386 a65.17553824233701,65.17553824233701 0 0,0 -1.1155290107861064,-0.08634900053338533 l 3.7871909881625614 -44.012899966025415" fill="#35ff63" stroke="none" /><path d="M 97.84075906011543 120.88869738790638 l -2.990592907592564 28.93127353377232 a50.085429930205564,50.085429930205564 0 0,0 -0.8544672093753066,-0.09574483305854772 l 3.4867960185686697 -28.8756729402068" fill="#a4ff21" stroke="none" /><path d="M 97.48249496171623 120.84855314841334 l -3.2448918734662744 26.872359600493716 a48.0675642378241,48.0675642378241 0 0,0 -0.8183438220338594,-0.10595099157636939 l 3.705713517390928 -26.81269701271695" fill="#bbff1f" stroke="none" /><path d="M 97.12497278360702 120.80226474461374 l -4.017147970953051 29.066081577792968 a50.34236827707416,50.34236827707416 0 0,0 -0.8550408994611647,-0.1256615672703151 l 4.515513976021901 -28.99283893722377" fill="#a1ff22" stroke="none" /><path d="M 96.76829788921471 120.74984581791261 l -3.246849146906073 20.847100655558595 a42.098427314038275,42.098427314038275 0 0,0 -0.7131122705566099,-0.11734235274904345 l 3.6042389205157463 -20.788292304313885" fill="#fffa17" stroke="none" /><path d="M 96.41257539226777 120.69131181640829 l -5.020771863189354 28.958477888674395 a50.390501726425796,50.390501726425796 0 0,0 -0.8510362248237485,-0.1550871496711217 l 5.517142821564159 -28.868022565071907" fill="#a0ff22" stroke="none" /><path d="M 96.05791012581884 120.62667999033965 l -8.806403437719977 46.0788240180363 a67.91279957957151,67.91279957957151 0 0,0 -1.1432101585147716,-0.22867404917074613 l 9.596110081765707 -45.92086057220269" fill="#38ff84" stroke="none" /><path d="M 95.35216902796893 120.47920084513623 l -6.547092564072286 28.84769785695164 a50.5813132346842,50.5813132346842 0 0,0 -0.8451122112219881,-0.19944418072714112 l 7.041336929034162 -28.73105753257827" fill="#9eff22" stroke="none" /><path d="M 95.00130118170881 120.39639698878247 l -6.551540068469971 26.732519197887864 a48.52363093660084,48.52363093660084 0 0,0 -0.807328562034933,-0.20521976343549825 l 7.009473923730282 -26.616114202617105" fill="#b6ff1f" stroke="none" /><path d="M 94.6519064749342 120.30758222061772 l -7.339556532177428 27.86949163126891 a49.819744167400174,49.819744167400174 0 0,0 -0.8251539820046201,-0.22489938709212767 l 7.816891915116743 -27.73939175003264" fill="#a7ff21" stroke="none" /><path d="M 94.30408787586889 120.21278271476187 l -9.247671694867996 32.81672443539224 a55.09482122617059,55.09482122617059 0 0,0 -0.9081200350982988,-0.264340507133918 l 9.809651742347901 -32.6531402339558" fill="#6cff28" stroke="none" /><path d="M 93.95794788825049 120.11202640906438 l -11.240974821268082 37.41754925107874 a60.069585445577566,60.069585445577566 0 0,0 -0.9850249727477342,-0.30516325449401277 l 11.88164042688745 -37.21906940877808" fill="#38ff2e" stroke="none" /><path d="M 93.61358852112213 120.00534299687104 l -12.770415436650737 40.003144468170596 a62.9920835130382,62.9920835130382 0 0,0 -1.0273026814957158,-0.33769479623165477 l 13.455240855794196 -39.77802875053692" fill="#32ff49" stroke="none" /><path d="M 92.93061703081489 119.77432235084164 l -10.186929336406397 28.494654390829464 a51.2608469504367,51.2608469504367 0 0,0 -0.8260584144488409,-0.3033400918868922 l 10.674576902509356 -28.315583449933854" fill="#97ff23" stroke="none" /><path d="M 92.59220618246901 119.65005319985036 l -7.429092396204865 19.70655021020619 a42.06037832088319,42.06037832088319 0 0,0 -0.6734221829284195,-0.2604941671128762 l 7.766286841626813 -19.576116154955272" fill="#fff917" stroke="none" /><path d="M 92.25597844496254 119.51999308798841 l -10.553227722083106 26.601027738233533 a49.617919073273185,49.617919073273185 0 0,0 -0.7890325104539674,-0.32089265296037806 l 11.008314693727515 -26.415947828693863" fill="#a9ff21" stroke="none" /><path d="M 91.92203290615298 119.3841803445677 l -12.054017069296757 28.92525285547675 a52.33639386177298,52.33639386177298 0 0,0 -0.8263291665061651,-0.352710784611945 l 12.548781310973354 -28.7140674212054" fill="#8aff24" stroke="none" /><path d="M 91.59046798132341 119.24265499422711 l -14.963021741018222 34.23832198915206 a58.365153716464725,58.365153716464725 0 0,0 -0.9146280870647219,-0.4091015097444451 l 15.548563230938578 -33.97641672849776" fill="#49ff2c" stroke="none" /><path d="M 91.26138138417905 119.09545874513695 l -21.19541592440058 46.31580895836899 a71.93525120853403,71.93525120853403 0 0,0 -1.118460542384567,-0.5234960082194763 l 21.98736518065664 -45.945136718578986" fill="#3dffb1" stroke="none" /><path d="M 90.6110303473126 118.78422872680471 l -10.393561552917816 20.794085476700825 a44.246937702988575,44.246937702988575 0 0,0 -0.676499391379266,-0.3454254094872551 l 10.748988166010665 -20.612602115540735" fill="#eaff1a" stroke="none" /><path d="M 90.28995756902619 118.62028667847754 l -15.635310060609408 29.982768634125694 a54.81463197580162,54.81463197580162 0 0,0 -0.8306013787258869,-0.4422484503628264 l 16.147700255121855 -29.709949716040292" fill="#6fff27" stroke="none" /><path d="M 89.97174638481275 118.45085714620012 l -14.86248465152008 27.345297762263304 a52.12328324138558,52.12328324138558 0 0,0 -0.782484189249163,-0.43403078945111107 l 15.329713028925347 -27.086134057379045" fill="#8dff24" stroke="none" /><line stroke="#e1ed5e" stroke-width="0.3" x1="58.13341422392154" x2="55.67067388415222" y1="173.97424548756322" y2="178.32567169271397" /><path d="M 57.64086615596768 174.84453072859336 a86.0,86.0 0 0,1 -31.369924170532247,-30.572349798747897" fill="none" id="id20" stroke="none" /><text fill="#e1ed5e" style="font-size:6.75px; font-family:Arial;" text-anchor="middle"><textPath startOffset="22.145653131862474" xlink:href="#id20">August</textPath></text><path d="M 89.65649057296885 118.27599006163327 l -16.826511715495727 29.730833916068853 a55.16217179654398,55.16217179654398 0 0,0 -0.8200974059076027,-0.47348345806247183 l 17.33440158926373 -29.43760356073021" fill="#6bff28" stroke="none" /><path d="M 89.34428304082925 118.09573695890944 l -13.78455679251631 23.409191025653485 a48.166233276655106,48.166233276655106 0 0,0 -0.7088859498013196,-0.4256656449080061 l 14.184375498875058 -23.169111380209557" fill="#baff1f" stroke="none" /><path d="M 89.03521579738668 117.91015095944536 l -22.381515252903277 36.55852312944629 a63.86557871325432,63.86557871325432 0 0,0 -0.9301135669579678,-0.5804596566837477 l 23.00579294865096 -36.168927675921" fill="#33ff54" stroke="none" /><path d="M 88.4268655584334 117.5232005979908 l -17.347243984937965 26.265938385591674 a52.47739495493019,52.47739495493019 0 0,0 -0.7474373153342423,-0.5029091828244232 l 17.795577588369213 -25.96427952871013" fill="#89ff24" stroke="none" /><path d="M 88.1277618465304 117.32195027204791 l -18.683708246311895 27.26008870075478 a54.04834927505944,54.04834927505944 0 0,0 -0.7608074933172584,-0.5311027176230291 l 19.14891083080292 -26.935341167326623" fill="#77ff26" stroke="none" /><path d="M 87.83215693770417 117.11559508785305 l -18.84561869122601 26.50872279069648 a53.52490934420999,53.52490934420999 0 0,0 -0.7442995212629483,-0.5388154546520284 l 19.297899222862913 -26.181306564671388" fill="#7dff26" stroke="none" /><path d="M 87.54013794807813 116.9041958592261 l -20.05340487066425 27.206295074974786 a54.798247567194636,54.798247567194636 0 0,0 -0.7524243285204021,-0.5646332434674717 l 20.517482188095418 -26.8580428042433" fill="#6fff27" stroke="none" /><path d="M 87.2517909369889 116.68781488649013 l -20.082019495892137 26.288008161608996 a54.080914136979544,54.080914136979544 0 0,0 -0.7328995404009748,-0.5699071155190358 l 20.530328980928342 -25.939399994469166" fill="#77ff27" stroke="none" /><path d="M 86.96720088162412 116.46651593811092 l -29.55422718104115 37.34080058281532 a68.62129494705255,68.62129494705255 0 0,0 -0.9173988425528269,-0.7389915683038831 l 30.19087679394924 -36.827960720718025" fill="#39ff8c" stroke="none" /><path d="M 86.40962598614128 116.0094264158162 l -21.76620304275663 25.640532454028257 a54.63338370465547,54.63338370465547 0 0,0 -0.7097670554580596,-0.6130798777765851 l 22.203149577977552 -25.26310844378695" fill="#71ff27" stroke="none" /><path d="M 86.13680546590413 115.77377054828092 l -24.144470850635 27.47197568864037 a57.574101778367854,57.574101778367854 0 0,0 -0.7367702236703904,-0.6588244771567098 l 24.612506101128762 -27.053455681600276" fill="#52ff2b" stroke="none" /><path d="M 85.86807049272751 115.53346607816431 l -16.712308841524493 18.369754982434085 a45.83443506362002,45.83443506362002 0 0,0 -0.5774489031655746,-0.5344780839584985 l 17.025187516004035 -18.08015915234321" fill="#d6ff1c" stroke="none" /><path d="M 85.60350026404147 115.28858382429668 l -24.818906811512274 26.35681896117158 a57.20303911373331,57.20303911373331 0 0,0 -0.7091202368298752,-0.6793211459343044 l 25.267699534207463 -25.926885684931694" fill="#56ff2b" stroke="none" /><path d="M 85.34317274990678 115.03919595460226 l -26.562019409154683 27.254971899985073 a59.057513954031286,59.057513954031286 0 0,0 -0.7199619404414045,-0.7138084565587154 l 27.025973269726048 -26.7949834331977" fill="#42ff2d" stroke="none" /><path d="M 85.08716467003676 114.78537596483092 l -21.98036083675661 21.792495633685313 a51.952368705128485,51.952368705128485 0 0,0 -0.6224715084614265,-0.638710604428305 l 22.351219146368848 -21.41196233718927" fill="#8fff24" stroke="none" /><path d="M 84.58840730492382 114.26474011684316 l -24.766353251791603 22.923366829673025 a54.74689615653982,54.74689615653982 0 0,0 -0.6324629942546386,-0.6951876218950077 l 25.15621394688812 -22.494841632220343" fill="#70ff27" stroke="none" /><path d="M 84.3458050057657 113.99807769240083 l -26.979953304305795 24.12564061135817 a57.19343055322244,57.19343055322244 0 0,0 -0.6481620802818826,-0.737489465888795 l 27.39012644854627 -23.658938867658073" fill="#56ff2b" stroke="none" /><path d="M 84.1078160697243 113.72728997021213 l -25.19396898454519 21.76195035677406 a54.29141866194536,54.29141866194536 0 0,0 -0.6031658632734894,-0.7105278702971788 l 25.56382941132579 -21.32625570402733" fill="#75ff27" stroke="none" /><path d="M 83.8745106332314 113.45245675266167 l -27.38997508266507 22.849691372180008 a56.669582711785274,56.669582711785274 0 0,0 -0.616762541961813,-0.7523500170068637 l 27.778184443865516 -22.376139073474647" fill="#5bff2a" stroke="none" /><path d="M 83.64595745247003 113.17365903436017 l -25.51769046077818 20.555245132672656 a53.76691363122796,53.76691363122796 0 0,0 -0.5728315952429288,-0.7237540076576212 l 25.86678848666267 -20.114171181100353" fill="#7bff26" stroke="none" /><path d="M 83.4222238831116 112.89097897827486 l -21.988566324615817 17.098442170675682 a48.854151821155305,48.854151821155305 0 0,0 -0.5091254535282335,-0.6664615618150688 l 22.278843755498347 -16.718459695619742" fill="#b2ff20" stroke="none" /><path d="M 82.98947788004972 112.3143062007846 l -24.1968382545796 17.516644889358787 a50.87172291144563,50.87172291144563 0 0,0 -0.5060159441889744,-0.711774795614601 l 24.493969297298534 -17.098692867034682" fill="#9bff22" stroke="none" /><path d="M 82.78059297857968 112.02048342749411 l -30.218920527569917 21.095153447883007 a57.85361117775729,57.85361117775729 0 0,0 -0.5614837962058365,-0.8192216388108596 l 30.57659406059108 -20.573297074002095" fill="#4fff2b" stroke="none" /><path d="M 82.576782715395 111.72311816256416 l -30.94450946391913 20.820846976903965 a58.29705531001384,58.29705531001384 0 0,0 -0.5515333415707824,-0.8350917748015644 l 31.297367244410637 -20.28657532376334" fill="#4aff2c" stroke="none" /><path d="M 82.37810715431573 111.42229804090323 l -31.556559242766063 20.454580445628444 a58.60593427171953,58.60593427171953 0 0,0 -0.5399624498720793,-0.8489106565779831 l 31.903039384264034 -19.90985611437179" fill="#47ff2c" stroke="none" /><path d="M 82.18462484594161 111.11811171558189 l -28.446389268321152 17.75265078928621 a54.5313833960247,54.5313833960247 0 0,0 -0.4887882522712608,-0.7983988762218667 l 28.746945485047817 -17.261714796939785" fill="#72ff27" stroke="none" /><path d="M 81.99639281039703 110.81064883170644 l -23.11117253861208 13.877595071514257 a47.957632334432006,47.957632334432006 0 0,0 -0.4177481787570582,-0.7094277360046833 l 23.34599442749891 -13.478816167216015" fill="#bdff1f" stroke="none" /><line stroke="#e1ed5e" stroke-width="0.3" x1="26.387840678322732" x2="22.057713659400548" y1="142.50000000000003" y2="145.00000000000006" /><path d="M 25.521815274538298 143.00000000000003 a86.0,86.0 0 0,1 -11.493303480769221,-40.785679425670985" fill="none" id="id21" stroke="none" /><text fill="#e1ed5e" style="font-size:6.75px; font-family:Arial;" text-anchor="middle"><textPath startOffset="21.40746469413373" xlink:href="#id21">September</textPath></text><path d="M 81.63589988554817 110.18625677009913 l -23.05757854242764 12.789650136194922 a47.36715909699963,47.36715909699963 0 0,0 -0.3883084149551919,-0.71444374742928 l 23.273732306998163 -12.391951555291055" fill="#c4ff1e" stroke="none" /><path d="M 81.4637452351635 109.86951160357371 l -21.792049975250592 11.603039169724704 a45.6885390434101,45.6885390434101 0 0,0 -0.36266241899330737,-0.6954530072520305 l 21.98802046321885 -11.22723991936817" fill="#d8ff1c" stroke="none" /><path d="M 81.29705330413844 109.54985784667822 l -32.18308115837258 16.43291055299715 a57.13573386675856,57.13573386675856 0 0,0 -0.4385305973026306,-0.8773549546064495 l 32.46043166888695 -15.878023742226947" fill="#56ff2a" stroke="none" /><path d="M 81.1358732173502 109.22738970284198 l -33.971273955568996 16.617052413915605 a58.817639866749204,58.817639866749204 0 0,0 -0.4358687981481036,-0.9107981496525678 l 34.25152201167701 -16.031441762197932" fill="#45ff2d" stroke="none" /><path d="M 80.83023694016515 108.57439118712176 l -57.50928917950453 25.7231735613653 a84.0,84.0 0 0,0 -0.577464471932128,-1.3213517208966026 l 57.942387533453626 -24.73215977069285" fill="#4dd2ff" stroke="none" /><path d="M 80.5471966667186 107.91128576633889 l -28.066467571655622 11.4143880245355 a51.298759973395875,51.298759973395875 0 0,0 -0.3247488154027613,-0.8185791564424014 l 28.258275062024506 -10.930907850879533" fill="#96ff23" stroke="none" /><path d="M 80.41425534168474 107.57618678355246 l -19.076660047440075 7.379261919682909 a41.45415520242473,41.45415520242473 0 0,0 -0.25103317000679026,-0.6658953079777509 l 19.2005239012613 -7.050698331511013" fill="#fff116" stroke="none" /><path d="M 80.28708602549918 107.23885506374661 l -23.00673265289331 8.448390906594941 a45.50887709121622,45.50887709121622 0 0,0 -0.26299759929909944,-0.7356510927059523 l 23.14837042223635 -8.052204857508068" fill="#daff1c" stroke="none" /><path d="M 80.16572619554312 106.89939002012753 l -28.941868094270813 10.067484086490213 a51.64287787754121,51.64287787754121 0 0,0 -0.28407167937209005,-0.8398074438340802 l 29.11042519521527 -9.56917496818197" fill="#92ff23" stroke="none" /><path d="M 80.05021161711548 106.5578916946017 l -23.148547734583943 7.609387428939203 a45.36715082368083,45.36715082368083 0 0,0 -0.2368495464252569,-0.7419278307640516 l 23.275761996786454 -7.21089056448376" fill="#dcff1b" stroke="none" /><path d="M 79.94057633289273 106.21446072829308 l -23.38709095716473 7.24538056098984 a45.483699943273805,45.483699943273805 0 0,0 -0.22465413037938378,-0.7478005352369138 l 23.508021407547744 -6.842842422162203" fill="#daff1b" stroke="none" /><path d="M 79.73907114497094 105.5222062557868 l -42.93521491855598 11.702183750472509 a65.50139081683194,65.50139081683194 0 0,0 -0.28636746185264095,-1.0873838966401852 l 43.12977186121335 -10.963419349459521" fill="#35ff67" stroke="none" /><path d="M 79.56144815229197 104.8234425847677 l -33.97695367512389 8.018468552880872 a55.91030247613237,55.91030247613237 0 0,0 -0.212430231648613,-0.9360067966519994 l 34.10959476833017 -7.434027422289846" fill="#63ff29" stroke="none" /><path d="M 79.48165901384964 104.47187691870673 l -16.046299020056118 3.4972161865762215 a37.422978819224745,37.422978819224745 0 0,0 -0.13141219647146987,-0.628854931866619 l 16.103968927351954 -3.2212448034241934" fill="#ffbd11" stroke="none" /><path d="M 79.407916724674 104.11899336999214 l -26.11680119070071 5.224091681816297 a47.63415923836546,47.63415923836546 0 0,0 -0.15350381760392093,-0.8031968382428502 l 26.202631300586788 -4.774992278540132" fill="#c1ff1e" stroke="none" /><path d="M 79.34024301695615 103.76489593502545 l -31.587831246637855 5.7563550991593235 a53.10804738525356,53.10804738525356 0 0,0 -0.15574613289770994,-0.8983023066297794 l 31.681992197027796 -5.213259759608952" fill="#82ff25" stroke="none" /><path d="M 79.22317932658666 103.0534771498775 l -31.094549248536627 4.569827939923625 a52.428558992899696,52.428558992899696 0 0,0 -0.12322080359086304,-0.8915643524088583 l 31.168414568682703 -4.035375279314682" fill="#89ff24" stroke="none" /><path d="M 79.17382384314188 102.69636545807758 l -39.87740616431784 5.162928601455657 a61.21023941905474,61.21023941905474 0 0,0 -0.12597042129705646,-1.0432157964339184 l 39.96015867187456 -4.477619128098339" fill="#30ff33" stroke="none" /><path d="M 79.13060592940153 102.33845913500099 l -36.00643678958642 4.034596344513283 a57.23177414846866,57.23177414846866 0 0,0 -0.1010211877006365,-0.9772883519697855 l 36.07039036976872 -3.415903470260566" fill="#55ff2b" stroke="none" /><path d="M 79.0935383218832 101.97986365728391 l -34.732492213133554 3.2892031238197474 a55.88789005550677,55.88789005550677 0 0,0 -0.08225201031822249,-0.9558930387867179 l 34.78383784614952 -2.6924890376573676" fill="#64ff29" stroke="none" /><path d="M 79.06263194458094 101.62068470465958 l -32.14848328665228 2.48849592760519 a53.24465210874306,53.24465210874306 0 0,0 -0.06271722772925782,-0.9118947266439882 l 32.1864644755466 -1.9362577768068585" fill="#80ff25" stroke="none" /><path d="M 79.01933749520258 100.90099992219065 l -31.445488860314068 1.3504045932730409 a52.47447159571816,52.47447159571816 0 0,0 -0.030923238603429246,-0.9002963517259659 l 31.464036785914345 -0.810401976982955" fill="#89ff24" stroke="none" /><path d="M 79.00696218219943 100.54070618675478 l -34.81268797748018 0.8966513531941523 a55.824233342122234,55.824233342122234 0 0,0 -0.016451051737607237,-0.9581912891348197 l 34.82295046081645 -0.29891314809028025" fill="#64ff29" stroke="none" /><line stroke="#e1ed5e" stroke-width="0.3" x1="15.003131293944662" x2="10.003315487706104" y1="100.72959589197737" y2="100.7725132973878" /><path d="M 14.003168132696942 100.73817937305945 a86.0,86.0 0 0,1 10.791469493833604,-42.45332614584628" fill="none" id="id22" stroke="none" /><text fill="#e1ed5e" style="font-size:6.75px; font-family:Arial;" text-anchor="middle"><textPath startOffset="22.145653131862435" xlink:href="#id22">October</textPath></text><path d="M 79.00077361379809 99.81974689727619 l -59.3686550149554 -0.5096085005310975 a80.37084216270308,80.37084216270308 0 0,0 0.0236847835331764,-1.3795199011290877 l 59.35115879982356 1.5286753176292376" fill="#48f5ff" stroke="none" /><path d="M 79.06263194458094 98.37931529534042 l -20.780753206569916 -1.6085617248571324 a41.84291665422671,41.84291665422671 0 0,0 0.061581569978210404,-0.7156711894577066 l 20.750078013893962 1.9650539616905198" fill="#fff617" stroke="none" /><path d="M 79.0935383218832 98.0201363427161 l -40.726118931973346 -3.856805805644065 a61.90833306654877,61.90833306654877 0 0,0 0.10927589486786994,-1.0571451557460765 l 40.653910644623814 4.555355483673054" fill="#31ff3c" stroke="none" /><path d="M 79.13060592940154 97.66154086499901 l -52.84586119574865 -5.92148897290189 a74.17658391789126,74.17658391789126 0 0,0 0.1526551050150428,-1.264203257544411 l 52.73642400447394 6.827785907369737" fill="#40ffc9" stroke="none" /><path d="M 79.17382384314186 97.30363454192245 l -34.486021843698865 -4.464905961877057 a55.77385638453809,55.77385638453809 0 0,0 0.1310831259732992,-0.948452200556614 l 34.40429420117036 5.056246470633738" fill="#65ff29" stroke="none" /><path d="M 79.22317932658666 96.9465228501225 l -34.86863021461745 -5.124487874321657 a56.24318017741592,56.24318017741592 0 0,0 0.14858512922102882,-0.954023117378779 l 34.77552359325815 5.722299173631886" fill="#60ff29" stroke="none" /><path d="M 79.2786578344484 96.59031103205396 l -31.085468021544497 -5.115101933537234 a52.50350123254464,52.50350123254464 0 0,0 0.15397322408109343,-0.8880766397077193 l 30.993079979971167 5.647971606165546" fill="#89ff25" stroke="none" /><path d="M 79.407916724674 95.88100663000787 l -9.294211021594721 -1.8591025038796316 a30.478323724892725,30.478323724892725 0 0,0 0.10702577912902862,-0.5121570969005835 l 9.260927531641325 2.018376052065624" fill="#ff5e08" stroke="none" /><path d="M 79.48165901384962 95.52812308129327 l -3.558672702438299 -0.7755961522428753 a24.64221097610414,24.64221097610414 0 0,0 0.09362765633798478,-0.41254072928712066 l 3.544834184542653 0.8365712154690041" fill="#ff0801" stroke="none" /><path d="M 79.64726062577567 94.8264132398404 l -14.2624770404617 -3.6254658907027375 a35.716054303186915,35.716054303186915 0 0,0 0.15614807091343832,-0.5929196589033933 l 14.198139488743536 3.8697660539789154" fill="#ffa60f" stroke="none" /><path d="M 79.73907114497095 94.47779374421319 l -49.04423237870389 -13.36722362482983 a71.83325089990326,71.83325089990326 0 0,0 0.3344744567703537,-1.1869318505977706 l 48.807539429858956 14.207163399330613" fill="#3dffb0" stroke="none" /><path d="M 79.94057633289273 93.78553927170692 l -9.141529835020744 -2.832069310615858 a30.57017159222898,30.57017159222898 0 0,0 0.15959854529771633,-0.49994017000662694 l 9.091566573945771 2.9885785143138763" fill="#ff5f08" stroke="none" /><path d="M 80.05021161711548 93.44210830539832 l -9.825103269787302 -3.229706596127103 a31.342323673094555,31.342323673094555 0 0,0 0.17240453838285727,-0.5096833834500302 l 9.76821330983208 3.397891654051295" fill="#ff6a09" stroke="none" /><path d="M 80.16572619554312 93.10060997987247 l -8.650510481613798 -3.0090965907934355 a30.15892973470344,30.15892973470344 0 0,0 0.17428964686953685,-0.4875191618045633 l 8.597580664700319 3.15715070897892" fill="#ff5908" stroke="none" /><path d="M 80.68587082218212 91.75594674310238 l -14.80287595421391 -6.318467511439527 a37.09497338329459,37.09497338329459 0 0,0 0.25501225257284726,-0.5835179394836593 l 14.692229819624085 6.571647520699053" fill="#ffb911" stroke="none" /><path d="M 80.83023694016515 91.42560881287825 l -19.176658605969163 -8.577475477199812 a42.0075538997727,42.0075538997727 0 0,0 0.3000850323049938,-0.6557399523122162 l 19.026589108809123 8.9054044117267" fill="#fff917" stroke="none" /><path d="M 80.9802524753101 91.09779779509293 l -9.660631489203958 -4.521663330827432 a31.66645395844132,31.66645395844132 0 0,0 0.23466462203767344,-0.4903588062484118 l 9.581587609206379 4.6868346391409315" fill="#ff6e0a" stroke="none" /><path d="M 81.46374523516351 90.13048839642627 l -13.47930261769797 -7.176969419184897 a36.270903349291245,36.270903349291245 0 0,0 0.2973430802491735,-0.547077777209392 l 13.354114187833446 7.407302029868909" fill="#ffae10" stroke="none" /><line stroke="#e1ed5e" stroke-width="0.3" x1="26.387840678322718" x2="22.05771365940052" y1="57.49999999999999" y2="54.99999999999999" /><path d="M 25.521815274538284 56.99999999999999 a86.0,86.0 0 0,1 29.574782752854787,-30.34633250058573" fill="none" id="id23" stroke="none" /><text fill="#e1ed5e" style="font-size:6.75px; font-family:Arial;" text-anchor="middle"><textPath startOffset="21.40746469413373" xlink:href="#id23">November</textPath></text><path d="M 82.18462484594161 88.88188828441811 l -40.94745893273321 -25.554242834994156 a69.26710805421973,69.26710805421973 0 0,0 0.6381885695585403,-1.003338431649927 l 40.502752671548784 26.253394941322753" fill="#3aff93" stroke="none" /><path d="M 82.78059297857968 87.97951657250589 l -9.961525145837168 -6.953918202824668 a33.148619740642246,33.148619740642246 0 0,0 0.32972600801864144,-0.4638009229974784 l 9.840684039288554 7.123896352531666" fill="#ff830c" stroke="none" /><path d="M 82.98947788004972 87.6856937992154 l -11.520564430068118 -8.340000206774425 a35.22248249203873,35.22248249203873 0 0,0 0.3587627557281613,-0.48673058052750295 l 11.375699654756138 8.536537096570791" fill="#ffa00e" stroke="none" /><path d="M 83.42222388311158 87.10902102172516 l -41.90820603905336 -32.58807449548599 a74.08747811617249,74.08747811617249 0 0,0 0.7893264725569744,-0.9972882128142544 l 41.342613135854826 33.302682652214926" fill="#40ffc9" stroke="none" /><path d="M 83.64595745247003 86.82634096563983 l -18.4162835001926 -14.834854367447686 a44.648095104317555,44.648095104317555 0 0,0 0.48592686433466353,-0.5927517638853536 l 18.158909816619307 15.148808413031533" fill="#e5ff1a" stroke="none" /><path d="M 83.8745106332314 86.54754324733833 l -8.769351909166302 -7.31570525543503 a32.4202047394606,32.4202047394606 0 0,0 0.36018142942517,-0.424292818199528 l 8.642475916234018 7.465164856084114" fill="#ff790b" stroke="none" /><path d="M 84.10781606972428 86.27271002978789 l -10.786103820877344 -9.316779584706667 a35.25280384572635,35.25280384572635 0 0,0 0.399513203796231,-0.45457268829282266 l 10.624579553122521 9.50056455081079" fill="#ffa00e" stroke="none" /><path d="M 84.58840730492382 85.73525988315684 l -10.541133783074885 -9.756716059624349 a35.36346092349662,35.36346092349662 0 0,0 0.4161844317208338,-0.44197344406144057 l 10.372093517617781 9.9362309636303" fill="#ffa10e" stroke="none" /><path d="M 85.08716467003674 85.21462403516908 l -10.072476676814324 -9.986387649870034 a35.18388961810001,35.18388961810001 0 0,0 0.42892190588041135,-0.4252559287134109 l 9.899562850803937 10.157823588812118" fill="#ff9f0e" stroke="none" /><path d="M 85.60350026404147 84.71141617570332 l -12.875686742115095 -13.673533126981685 a39.78160848425246,39.78160848425246 0 0,0 0.5011918692465452,-0.4638957118144547 l 12.639065101554596 13.892546584928505" fill="#ffdc14" stroke="none" /><path d="M 85.86807049272753 84.46653392183569 l -9.657230166460966 -10.614987650663641 a35.35061173998326,35.35061173998326 0 0,0 0.45237836655814706,-0.4045195248797287 l 9.473586773079427 10.779202705426771" fill="#ffa10e" stroke="none" /><path d="M 86.13680546590413 84.22622945171909 l -19.32168641347161 -21.984532305476638 a50.2685364606958,50.2685364606958 0 0,0 0.6530613461317735,-0.5640988366368853 l 18.941445587576986 22.312975274578235" fill="#a2ff22" stroke="none" /><path d="M 86.40962598614128 83.9905735841838 l -9.304281078402227 -10.960419715075833 a35.3770806047868,35.3770806047868 0 0,0 0.4663468520870438,-0.3890431302115612 l 9.114759892153273 11.118525029199276" fill="#ffa20e" stroke="none" /><path d="M 86.68645165197937 83.75963576809568 l -8.923707127517346 -10.885471721088443 a35.07572532725472,35.07572532725472 0 0,0 0.46892775546941745,-0.37773500615203554 l 8.735528601692684 11.037055021033877" fill="#ff9e0e" stroke="none" /><path d="M 87.54013794807813 83.09580414077388 l -6.743656669826348 -9.149065429383125 a32.36583932279648,32.36583932279648 0 0,0 0.45006855702102516,-0.325814926985811 l 6.5856071024313545 9.263481127742015" fill="#ff780b" stroke="none" /><path d="M 88.72937992617638 82.28071324371311 l -9.077990205831085 -14.272108417661682 a37.914579062532255,37.914579062532255 0 0,0 0.5521732532934003,-0.3445969486123239 l 8.831652823747985 14.425841163115543" fill="#ffc412" stroke="none" /><path d="M 89.03521579738668 82.08984904055464 l -2.708060368123519 -4.42341309269211 a26.186537799534605,26.186537799534605 0 0,0 0.38540005014317674,-0.23142165666811673 l 2.631727561422908 4.46924874989615" fill="#ff1f03" stroke="none" /><line stroke="#e1ed5e" stroke-width="0.3" x1="56.869717070023135" x2="54.33264160355391" y1="26.7553504044142" y2="22.446841604673864" /><path d="M 56.362301976729285 25.89364864446614 a86.0,86.0 0 0,1 42.16139366436587,-11.88097634709845" fill="none" id="id24" stroke="none" /><text fill="#e1ed5e" style="font-size:6.75px; font-family:Arial;" text-anchor="middle"><textPath startOffset="22.145653131862474" xlink:href="#id24">December</textPath></text><path d="M 89.65649057296885 81.72400993836675 l -7.890624226389149 -13.941976943019258 a37.02000848195031,37.02000848195031 0 0,0 0.5557510870688197,-0.30826575970851694 l 7.650128951164227 14.07537561816092" fill="#ffb811" stroke="none" /><path d="M 89.97174638481275 81.54914285379989 l -5.266600614321622 -9.68995194076207 a32.02870122204113,32.02870122204113 0 0,0 0.48532814022305243,-0.25840989845256207 l 5.099483658312008 9.778932306937207" fill="#ff730a" stroke="none" /><path d="M 90.28995756902619 81.37971332152246 l -5.192992756251208 -9.958248331872344 a32.23093422675584,32.23093422675584 0 0,0 0.49278455233101376,-0.2516193036491675 l 5.021280982206612 10.045925587194345" fill="#ff760a" stroke="none" /><path d="M 90.61103034731259 81.2157712731953 l -5.276118659372784 -10.555771650518965 a32.80092128800466,32.80092128800466 0 0,0 0.505821055899164,-0.2474224254566321 l 5.094137354211567 10.644787826072811" fill="#ff7e0b" stroke="none" /><path d="M 91.26138138417902 80.90454125486306 l -7.079359221317885 -15.46967751950349 a38.012590912083034,38.012590912083034 0 0,0 0.5956873424713731,-0.26644337145033875 l 6.8127584759908935 15.588924641863676" fill="#ffc512" stroke="none" /><path d="M 92.93061703081487 80.22567764915836 l -1.5634864938098827 -4.373349987480949 a25.64442462844705,25.64442462844705 0 0,0 0.41579897929586457,-0.144636468993811 l 1.4881817424690138 4.399544889043345" fill="#ff1702" stroke="none" /><path d="M 94.30408787586887 79.78721728523814 l -1.2908519452070097 -4.58077816454675 a25.759183473793904,25.759183473793904 0 0,0 0.42664395756769524,-0.11628370783648116 l 1.212026586704637 4.602262366527371" fill="#ff1902" stroke="none" /><path d="M 94.6519064749342 79.69241777938228 l -2.962715625054802 -11.249913800145986 a32.63349665344255,32.63349665344255 0 0,0 0.5429509997266745,-0.13801602093715334 l 2.7691593321027494 11.299115052918403" fill="#ff7c0b" stroke="none" /><path d="M 97.12497278360702 79.19773525538626 l -0.8197736901984756 -5.931474052469172 a26.98785548742258,26.98785548742258 0 0,0 0.4594646131599908,-0.059486892975581435 l 0.7178312551476907 5.944672541645147" fill="#ff2b04" stroke="none" /><path d="M 98.9189461498227 79.02784411241856 l -0.967449947941125 -18.768270533726263 a39.793188612604006,39.793188612604006 0 0,0 0.6824991162767978,-0.0293094486658833 l 0.6451250710635071 18.782112550817978" fill="#ffdc14" stroke="none" /><path d="M 99.27912038922189 79.0123766808444 l -0.5706981844879181 -16.615254955026188 a37.625053192044234,37.625053192044234 0 0,0 0.6456937251329905,-0.016630779926102016 l 0.2853911452841837 16.622603452302336" fill="#ffc011" stroke="none" /><path d="M 99.63950707515114 79.00309439819443 l -0.19711474557393582 -11.48094572806141 a32.48263772108196,32.48263772108196 0 0,0 0.5576076704227851,-0.00478639121498092 l 2.8124351061783354e-15 11.482637721081957" fill="#ff7a0b" stroke="none" /></svg>