<?xml version="1.0" encoding="utf-8" ?>
<svg baseProfile="full" height="200mm" version="1.1" viewBox="0,0,200,200" width="200mm" xmlns="http://www.w3.org/2000/svg" xmlns:ev="http://www.w3.org/2001/xml-events" xmlns:xlink="http://www.w3.org/1999/xlink"><defs /><rect fill="#1a1a1a" height="200" width="200" x="0" y="0" /><text alignment-baseline="middle" fill="#e1ed5e" style="dominant-baseline: central; font-size:9.0px; font-family:Arial;" text-anchor="middle" x="100.0" y="100.0">2025</text><line stroke="#e1ed5e" stroke-width="0.3" x1="100.0" x2="100.0" y1="15.0" y2="10.0" /><path d="M 100.0 14.0 a86.0,86.0 0 0,1 42.46469731375804,11.215312516191453" fill="none" id="id25" stroke="none" /><text fill="#e1ed5e" style="font-size:6.75px; font-family:Arial;" text-anchor="middle"><textPath startOffset="22.20632615414155" xlink:href="#id25">January</textPath></text><path d="M 100.0 79.0 l 0.0 -7.133464517091991 a28.13346451709199,28.13346451709199 0 0,0 0.4842713446302421,0.004168276353152427 l -0.1227908653577137 7.132407617347397" fill="#ff3d05" stroke="none" /><path d="M 101.08401301168833 79.027996857942 l 0.2174675109484555 -4.207264372042264 a25.21288091625841,25.21288091625841 0 0,0 0.43322687107969204,0.026133427954793752 l -0.2898564308677595 4.202897674707166" fill="#ff1202" stroke="none" /><path d="M 101.80526077348638 79.07773832637324 l 1.3853996696152784 -16.056236769754236 a37.11589499379349,37.11589499379349 0 0,0 0.6360513330392035,0.060400738154510254 l -1.6615761297447262 16.030010487084546" fill="#ffba11" stroke="none" /><path d="M 102.16513564639614 79.11191278185805 l 1.9983682129730778 -19.279202943253836 a40.382495753689426,40.382495753689426 0 0,0 0.6907970033382083,0.07761909226548498 l -2.3299319198210116 19.24194789751775" fill="#ffe515" stroke="none" /><path d="M 103.2404852339499 79.25152402106235 l 0.9585712784800576 -6.137628074114068 a27.212031654143438,27.212031654143438 0 0,0 0.4621779491741618,0.07626332170721754 l -1.0640784337930946 6.120218489467225" fill="#ff3004" stroke="none" /><path d="M 103.59715602781102 79.31037775812273 l 3.5353285599460054 -20.334011602691966 a41.63905462673088,41.63905462673088 0 0,0 0.7050976656156348,0.12885209152040047 l -3.8848213466645407 20.270144029820827" fill="#fff517" stroke="none" /><path d="M 107.08798089147638 80.2323363322302 l 5.210877834004671 -14.532612603444168 a36.438590508291405,36.438590508291405 0 0,0 0.5886006630641943,0.21678659161187627 l -5.460260822841441 14.440762744025967" fill="#ffb110" stroke="none" /><path d="M 108.09893153111575 80.62456947434976 l 8.607231168675181 -20.591458130761897 a43.31798773057136,43.31798773057136 0 0,0 0.6854890906051764,0.2934906543813204 l -8.960404017070672 20.440247948417788" fill="#f4ff19" stroke="none" /><path d="M 109.08828744355905 81.06846463323043 l 9.424593211546478 -19.63208369121926 a42.777090422326054,42.777090422326054 0 0,0 0.6610664264636984,0.3243824244857679 l -9.761130905020607 19.46694610659866" fill="#fbff18" stroke="none" /><line stroke="#e1ed5e" stroke-width="0.3" x1="143.23703022742887" x2="145.7803849466894" y1="26.81831364943548" y2="22.513508569990506" /><path d="M 143.74570117128098 25.957352633546492 a86.0,86.0 0 0,1 28.547481713284135,27.462654790039103" fill="none" id="id26" stroke="none" /><text fill="#e1ed5e" style="font-size:6.75px; font-family:Arial;" text-anchor="middle"><textPath startOffset="19.985693538727396" xlink:href="#id26">February</textPath></text><path d="M 113.34407831869373 83.78471172551755 l 13.497661163972907 -16.40191713342195 a42.24169820304071,42.24169820304071 0 0,0 0.5574746801438252,0.4668690125069205 l -13.77799338107585 16.167146963521212" fill="#fffc17" stroke="none" /><path d="M 113.6212207817346 84.01681056812373 l 10.59536228024558 -12.432636188645334 a37.334997534400316,37.334997534400316 0 0,0 0.48554377876916643,0.4210587803207741 l -10.80779985766151 12.24841241490489" fill="#ffbd11" stroke="none" /><path d="M 113.89432698308785 84.25364557470407 l 5.765359605056672 -6.533846212271238 a29.71381189269257,29.71381189269257 0 0,0 0.3806042340844714,0.34171023930132827 l -5.876974826737134 6.4336369642006135" fill="#ff5407" stroke="none" /><path d="M 114.42810811169701 84.74124197986012 l 8.354927994158903 -8.835934936972738 a33.16053321191121,33.16053321191121 0 0,0 0.41137497868808504,0.39574240356596935 l -8.505786216459406 8.690809446644467" fill="#ff850c" stroke="none" /><path d="M 115.68641384162765 86.03803664274999 l 2.6217053826286576 -2.3334941214306455 a24.50977690573852,24.50977690573852 0 0,0 0.2777869678789295,0.3175585246184619 l -2.661484214085435 2.2880200406092355" fill="#ff0801" stroke="none" /><path d="M 115.9244219780498 86.31012108654704 l 11.96355736579833 -10.284809830942747 a36.77669224214645,36.77669224214645 0 0,0 0.40855295100683053,0.4835978297577814 l -12.138820930292278 10.077353051555859" fill="#ffb610" stroke="none" /><path d="M 117.45458315368197 88.32363383020206 l 2.49059805587389 -1.666103087430986 a23.99649431400593,23.99649431400593 0 0,0 0.22671358150062856,0.34530033855024045 l -2.518908272732443 1.6229846849030716" fill="#ff0000" stroke="none" /><path d="M 117.65298651832404 88.62581576622439 l 9.01309295407645 -5.807322158740494 a31.721979073576897,31.721979073576897 0 0,0 0.29180052140373053,0.4615583488139118 l -9.111721071726135 5.6513161622123755" fill="#ff710a" stroke="none" /><line stroke="#e1ed5e" stroke-width="0.3" x1="172.23445277983987" x2="176.4835382374775" y1="55.19839476539836" y2="52.563006222186495" /><path d="M 173.08426987136738 54.67131705675599 a86.0,86.0 0 0,1 12.851231095245387,41.99856678651699" fill="none" id="id27" stroke="none" /><text fill="#e1ed5e" style="font-size:6.75px; font-family:Arial;" text-anchor="middle"><textPath startOffset="22.20632615414155" xlink:href="#id27">March</textPath></text><path d="M 118.03404312379186 89.2402003453031 l 8.17831621900202 -4.87949615209291 a30.523357542184428,30.523357542184428 0 0,0 0.26532112485756837,0.45351980748783555 l -8.261097018329917 4.737996932251179" fill="#ff6008" stroke="none" /><path d="M 118.56541770881063 90.18545643968196 l 13.488649388900498 -7.130727628842689 a36.25748796012719,36.25748796012719 0 0,0 0.2869358322039902,0.5542686979770455 l -13.609394654264603 6.897486208605299" fill="#ffaf10" stroke="none" /><path d="M 118.73160827565052 90.50648371742162 l 4.982686439090713 -2.525315186202156 a26.586088160775994,26.586088160775994 0 0,0 0.20337089798888597,0.4099833204851855 l -5.025417350033008 2.4391722772180207" fill="#ff2703" stroke="none" /><path d="M 118.89224826269711 90.83032412892265 l 16.719882253484755 -8.115280867325717 a39.58526960057285,39.58526960057285 0 0,0 0.29225579505399224,0.6155652389038582 l -16.857096242380504 7.826273212781319" fill="#ffdb14" stroke="none" /><path d="M 119.47837535516314 92.15188598940014 l 13.828499033338046 -5.571698616041886 a35.90876289244129,35.90876289244129 0 0,0 0.22606524143568504,0.5753113813392001 l -13.922357824655432 5.332838229806902" fill="#ffaa0f" stroke="none" /><path d="M 119.85752413597 93.16781622104841 l 10.080671566734328 -3.468357902404555 a31.660649406839063,31.660649406839063 0 0,0 0.17287122580625572,0.5168629616957674 l -10.138880086312355 3.2943218377864736" fill="#ff700a" stroke="none" /><path d="M 120.18372546131832 94.20196356495316 l 15.075158853462122 -4.330534542000424 a36.684831649609,36.684831649609 0 0,0 0.1691227153918067,0.6084243904541666 l -15.147468339420293 4.070398848127306" fill="#ffb410" stroke="none" /><path d="M 120.37134235888165 94.90015583598534 l 21.89907853232134 -5.482303811052763 a43.574881962957434,43.574881962957434 0 0,0 0.17589146299834427,0.7291836690705433 l -21.9902027955805 5.104534910322813" fill="#f1ff19" stroke="none" /><path d="M 120.45610955862082 95.25157060432595 l 15.139350317215715 -3.514262370939373 a36.541877880075496,36.541877880075496 0 0,0 0.13695480469752502,0.6139415353204725 l -15.197599508915278 3.253142666068937" fill="#ffb310" stroke="none" /><path d="M 120.53481517161879 95.60439243477599 l 7.974121151741027 -1.7069112610786932 a29.15476266949817,29.15476266949817 0 0,0 0.10082092345191054,0.4916386285736903 l -8.002321371107934 1.5693969763415911" fill="#ff4c07" stroke="none" /><path d="M 120.6074358757038 95.95851677861258 l 12.546196681165092 -2.4605314161834637 a33.78519714406093,33.78519714406093 0 0,0 0.107009425266662,0.5716486286920982 l -12.586691830341612 2.2442047100288027" fill="#ff8d0d" stroke="none" /><path d="M 120.73433829027371 96.67025291283417 l 6.698673665823795 -1.0757463688684124 a27.78450139150511,27.78450139150511 0 0,0 0.07176883115317732,0.472866926622255 l -6.716198390416272 0.9602803298540753" fill="#ff3805" stroke="none" /><path d="M 120.78858239683441 97.02765380044208 l 9.009594778439997 -1.288189559444458 a30.101221369286375,30.101221369286375 0 0,0 0.06892319793719273,0.5135578808603084 l -9.030433975435026 1.1329133365194852" fill="#ff5a08" stroke="none" /><path d="M 120.96714384426684 98.82574320788733 l 62.90143153280055 -3.5227703763380056 a84.0,84.0 0 0,0 0.0684255670660141,1.444355573508001 l -62.95275070810006 2.4395036962070047" fill="#4dd2ff" stroke="none" /><line stroke="#e1ed5e" stroke-width="0.3" x1="184.98032266829074" x2="189.97916517819016" y1="98.17113171792111" y2="98.06355123074" /><path d="M 185.9800911702706 98.14961562048488 a86.0,86.0 0 0,1 -9.607161424134198,41.387399972396054" fill="none" id="id28" stroke="none" /><text fill="#e1ed5e" style="font-size:6.75px; font-family:Arial;" text-anchor="middle"><textPath startOffset="21.466115282336823" xlink:href="#id28">April</textPath></text><path d="M 120.99824983174949 100.27111621757518 l 23.618999291061584 0.3049536890937202 a44.62096789430229,44.62096789430229 0 0,0 -0.016526623391246574,0.7679272488715791 l -23.610250604985332 -0.7114707537554141" fill="#e4ff1a" stroke="none" /><path d="M 120.92983693683757 101.71520430193887 l 25.672012932663378 2.1038265684733877 a46.75807318580041,46.75807318580041 0 0,0 -0.07264290547584745,0.8016084086902944 l -25.631995430910454 -2.5454163657122524" fill="#caff1d" stroke="none" /><path d="M 120.89721153311464 102.0752229133903 l 23.780294173548715 2.3615309285599597 a44.89726384561756,44.89726384561756 0 0,0 -0.08299087863747173,0.7683924649249488 l -23.73612099341019 -2.7705197153697" fill="#e1ff1b" stroke="none" /><path d="M 120.8583938346157 102.4346265915055 l 37.46719184589399 4.373233255653144 a58.7215539701823,58.7215539701823 0 0,0 -0.12582768111133127,1.0029704214170918 l -37.38636265553581 -5.017521431357631" fill="#45ff2d" stroke="none" /><path d="M 120.81339534386255 102.79330883721812 l 39.13805901134174 5.252611806087783 a60.48895534147138,60.48895534147138 0 0,0 -0.14737975252670496,1.0307736459104924 l -39.04184520779844 -5.925530923978685" fill="#33ff2f" stroke="none" /><path d="M 120.76222939487914 103.15116336523771 l 37.69616004619052 5.721291114189823 a59.12785929266575,59.12785929266575 0 0,0 -0.16138596014419954,1.0049505278728594 l -37.59209233168503 -6.369320871755887" fill="#41ff2d" stroke="none" /><path d="M 120.70491114924044 103.5080841355445 l 4.641884659261316 0.7864859604953868 a25.70804135027953,25.70804135027953 0 0,0 -0.07767936591268967,0.43566713675902663 l -4.627658851009437 -0.8662718479876317" fill="#ff1a02" stroke="none" /><path d="M 120.5718875245553 104.21870165774334 l 48.04479030881779 9.852602794945629 a70.04462924371273,70.04462924371273 0 0,0 -0.252380676376929,1.179038498179549 l -47.86807559371642 -10.678155112541347" fill="#3bff9c" stroke="none" /><path d="M 120.49622156327973 104.57218783832717 l 37.92943168447363 8.461095413464163 a59.861702529648596,59.861702529648596 0 0,0 -0.23300293748605097,1.0037705564364747 l -37.778168181057026 -9.112734627249202" fill="#3aff2e" stroke="none" /><path d="M 120.41448212921028 104.9243191809786 l 24.70282781609711 5.958740861966918 a46.41134185303514,46.41134185303514 0 0,0 -0.1940186049085995,0.7750078820985665 l -24.59659789689345 -6.383076583462881" fill="#ceff1d" stroke="none" /><path d="M 120.32669344350535 105.2749913415812 l 38.03283747618317 9.869922471169708 a60.29264684488261,60.29264684488261 0 0,0 -0.26934138966496735,1.0023195083996759 l -37.85730801017642 -10.523132912744932" fill="#35ff2f" stroke="none" /><path d="M 120.23288151984713 105.62410040840565 l 39.40134281894323 10.952325699252368 a61.895222876986416,61.895222876986416 0 0,0 -0.294171380223771,1.0240491662184148 l -39.20697880183336 -11.628932340975364" fill="#31ff3c" stroke="none" /><path d="M 119.9155931802556 106.66101706037122 l 34.4184618674176 11.511681304973443 a57.292551905124476,57.292551905124476 0 0,0 -0.32086330584302425,0.9325789595640311 l -34.21520773063134 -12.102432967626774" fill="#54ff2b" stroke="none" /><path d="M 119.79798401119884 107.00284435728193 l 11.46739580770447 4.056190164578223 a33.16362796462384,33.16362796462384 0 0,0 -0.19499540336569796,0.5365436028690489 l -11.395876143333545 -4.252981564453402" fill="#ff850c" stroke="none" /><path d="M 119.67450827220406 107.3425965602758 l 35.32478499546031 13.183335573707426 a58.704651859213314,58.704651859213314 0 0,0 -0.36146891904133144,0.9436812849969182 l -35.092621796825476 -13.789440425537487" fill="#45ff2d" stroke="none" /><path d="M 119.54520255179757 107.68017299344265 l 23.557110702886927 9.256628829728424 a46.31052433197363,46.31052433197363 0 0,0 -0.2979252747437645,0.7394260992400726 l -23.39428281388577 -9.66075429681131" fill="#d0ff1d" stroke="none" /><path d="M 119.41010516605496 108.01547362559984 l 32.9190077846004 13.594024165300754 a56.615425963048125,56.615425963048125 0 0,0 -0.37972510458451464,0.8975579782552381 l -32.68013169882358 -14.158656669222156" fill="#5bff2a" stroke="none" /><path d="M 119.12269723197855 108.67885076344098 l 32.56700298235725 14.780559210222462 a56.76415263668019,56.76415263668019 0 0,0 -0.41147356594671136,0.8862774546423281 l -32.30775479957071 -15.338956732143622" fill="#5aff2a" stroke="none" /><path d="M 118.97047184881838 109.00673069616215 l 19.883775466005527 9.44034562094579 a43.01101206726837,43.01101206726837 0 0,0 -0.323292770691597,0.6660788637803087 l -19.718329438699218 -9.781213440691374" fill="#f8ff18" stroke="none" /><path d="M 118.81262510543309 109.33194174019688 l 31.762546070754826 15.755708083876138 a56.455629597020874,56.455629597020874 0 0,0 -0.4393359088951824,0.8668514280586713 l -31.486631492073375 -16.3001137236375" fill="#5dff2a" stroke="none" /><path d="M 118.64920377521936 109.65438752849418 l 21.990109993366726 11.383919990851078 a45.76203892813486,45.76203892813486 0 0,0 -0.36816103311538984,0.6964219295464624 l -21.790896452026445 -11.760756935483675" fill="#d6ff1c" stroke="none" /><line stroke="#e1ed5e" stroke-width="0.3" x1="174.80103733775053" x2="179.2010983576182" y1="140.37084112569926" y2="142.7455964860345" /><path d="M 175.68104954172406 140.8457921977663 a86.0,86.0 0 0,1 -30.038265399797805,32.042727171017184" fill="none" id="id29" stroke="none" /><text fill="#e1ed5e" style="font-size:6.75px; font-family:Arial;" text-anchor="middle"><textPath startOffset="22.206326154141568" xlink:href="#id29">May</textPath></text><path d="M 118.48025628344425 109.97397251340804 l 10.36106867407961 5.591968670769054 a32.773778394545076,32.773778394545076 0 0,0 -0.27221524301986155,0.4941497363433345 l -10.26327702160824 -5.769488925510194" fill="#ff7f0b" stroke="none" /><path d="M 117.55443506779139 111.5257021239791 l 30.15339708816273 19.797793066088577 a57.07187223092372,57.07187223092372 0 0,0 -0.5462509088957985,0.8165709925026314 l -29.80814307385621 -20.313900972797015" fill="#56ff2a" stroke="none" /><path d="M 117.35343817320211 111.8261652097733 l 29.627258899602445 20.190630523033242 a56.85297799098024,56.85297799098024 0 0,0 -0.5580772051519859,0.8039518373862213 l -29.275320787288322 -20.697623622606482" fill="#59ff2a" stroke="none" /><path d="M 117.14729908036423 112.12312394758627 l 18.150179398657073 12.832159367466554 a43.228210144667415,43.228210144667415 0 0,0 -0.43479388199941543,0.6038906739496149 l -17.926605724282055 -13.142683646867301" fill="#f5ff19" stroke="none" /><path d="M 116.93607887273984 112.41649034213515 l 31.72924138106331 23.26192633676093 a60.34287706198763,60.34287706198763 0 0,0 -0.6213555857075234,0.8324073475338383 l -31.324124528660697 -23.804646563804084" fill="#35ff2f" stroke="none" /><path d="M 116.27256486870786 113.27417163493432 l 19.600339018088246 15.988767986374803 a46.2945446953709,46.2945446953709 0 0,0 -0.509028359679442,0.6131574506695633 l -19.32221465851526 -16.323786694158137" fill="#d0ff1d" stroke="none" /><path d="M 116.0416608686014 113.55231037782055 l 29.182288312380244 24.65377070266559 a59.202282143957014,59.202282143957014 0 0,0 -0.6643552970346479,0.772795300836151 l -28.75359050577482 -25.15244310266327" fill="#40ff2d" stroke="none" /><path d="M 115.80600337817218 113.82643327865902 l 27.589200420096063 24.1338831640894 a57.65526287449248,57.65526287449248 0 0,0 -0.6598539144325226,0.7413528679282585 l -27.1696876560152 -24.605210201758528" fill="#50ff2b" stroke="none" /><path d="M 115.56566222782051 114.09645910891815 l 26.515242731520647 24.012536662904008 a56.77233587702609,56.77233587702609 0 0,0 -0.6622184571214706,0.718707345471645 l -26.097977866403458 -24.46539526317699" fill="#5aff2a" stroke="none" /><path d="M 115.32070863581623 114.36230785411682 l 14.257878128628997 13.365963670318108 a40.54318483684531,40.54318483684531 0 0,0 -0.48167900014402915,0.5050385059237495 l -14.025692577106003 -13.609409292824363" fill="#ffe715" stroke="none" /><path d="M 114.29624159901734 115.38237550388516 l 25.65787130430668 27.607186707052676 a58.68929712460064,58.68929712460064 0 0,0 -0.7459142782870951,0.6813750077584235 l -25.17885747655272 -28.044754481397685" fill="#46ff2d" stroke="none" /><path d="M 114.0293411484842 115.62618273729858 l 24.38831992843013 27.16423671103936 a57.5059708133456,57.5059708133456 0 0,0 -0.7422587210708523,0.6549570204033551 l -23.91711885445269 -27.580016873215005" fill="#52ff2b" stroke="none" /><path d="M 113.75828350139079 115.86535959552629 l 22.64350746237295 26.11135236152201 a55.561989994010766,55.561989994010766 0 0,0 -0.7279534113063344,0.6203776897272477 l -22.190688574489567 -26.497254441472204" fill="#66ff29" stroke="none" /><path d="M 113.48314897796784 116.09983520530334 l 14.556957200211496 17.382038305519195 a43.67245594511821,43.67245594511821 0 0,0 -0.5804898578142136,0.4777036334327853 l -14.25559721385259 -17.63003705780916" fill="#f0ff19" stroke="none" /><path d="M 112.63410532772338 116.77436683061366 l 25.196719325748774 33.45381425392029 a62.88116943109829,62.88116943109829 0 0,0 -0.8702006149682809,0.6437536113950043 l -24.61713374036193 -33.88257781405506" fill="#32ff48" stroke="none" /><path d="M 112.34349029814194 116.9893568818739 l 24.308682328629832 33.4580308676032 a62.35640054564382,62.35640054564382 0 0,0 -0.8737992673472323,0.6234325764427703 l -23.729155733433714 -33.87150770589019" fill="#31ff42" stroke="none" /><path d="M 112.04921762599082 117.19931262002967 l 19.651401518370054 28.05083355844683 a55.24947948451018,55.24947948451018 0 0,0 -0.7836036710776481,0.538969750246961 l -19.165640962669524 -28.384944098058885" fill="#6aff28" stroke="none" /><path d="M 111.7513745106137 117.40417183066458 l 21.555861386282224 31.92493909423119 a59.52086312993238,59.52086312993238 0 0,0 -0.8540543816135351,0.5660206739714418 l -21.003132305928723 -32.29125778929395" fill="#3dff2e" stroke="none" /><path d="M 111.45004920935366 117.60387380957326 l 18.27777947120896 28.101165108314312 a54.522420897705004,54.522420897705004 0 0,0 -0.79114161161845,0.5049440081047075 l -17.791356057543577 -28.411623545242826" fill="#72ff27" stroke="none" /><line stroke="#e1ed5e" stroke-width="0.3" x1="143.8653032363475" x2="146.44561519142675" y1="172.8068346515853" y2="177.08958963109032" /><path d="M 144.38136562736335 173.6633856474863 a86.0,86.0 0 0,1 -40.68145358897372,12.25698825130547" fill="none" id="id30" stroke="none" /><text fill="#e1ed5e" style="font-size:6.75px; font-family:Arial;" text-anchor="middle"><textPath startOffset="21.466115282336833" xlink:href="#id30">June</textPath></text><path d="M 110.5260780823613 118.17145234162733 l 8.781304217792123 15.159402185922682 a38.5190975338335,38.5190975338335 0 0,0 -0.5765964669925314,0.32740652220177213 l -8.519058983878393 -15.30831187391908" fill="#ffcd13" stroke="none" /><path d="M 110.21172684928248 118.3499491758327 l 7.60254973195666 13.661391775079393 a36.63433361736538,36.63433361736538 0 0,0 -0.5536619901212028,0.3019006618588753 l -7.3662649299668095 -13.79023308869804" fill="#ffb410" stroke="none" /><path d="M 109.89434966115114 118.52300852407294 l 5.902534603339779 11.050013645725356 a33.5276780096848,33.5276780096848 0 0,0 -0.511391442079257,0.2675358326436821 l -5.711452258734027 -11.149978897313755" fill="#ff8a0c" stroke="none" /><path d="M 109.57404056367764 118.69057910512821 l 5.9815888808774975 11.67734347988298 a34.120204125203344,34.120204125203344 0 0,0 -0.5250386015298103,0.26326525442962073 l -5.779696371664927 -11.778576575221901" fill="#ff920d" stroke="none" /><path d="M 109.2508944713604 118.85261126421891 l 5.778346183584234 11.775824995782996 a34.11713912972833,34.11713912972833 0 0,0 -0.5294449260215252,0.25416573880550086 l -5.574788589562476 -11.873545011088057" fill="#ff920d" stroke="none" /><path d="M 108.92500713936063 119.00905698771935 l 5.597919652799758 11.92281104442543 a34.171565117337984,34.171565117337984 0 0,0 -0.5345929893220565,0.24540542126741385 l -5.391858667710282 -12.017403536026917" fill="#ff930d" stroke="none" /><path d="M 108.2653958097858 119.30500536409082 l 7.208506162828515 16.836489545452583 a39.314746553356144,39.314746553356144 0 0,0 -0.6244090494365759,0.2610030333055621 l -6.917625653894478 -16.958077621778116" fill="#ffd714" stroke="none" /><path d="M 107.93186726928326 119.44442032107085 l 4.890056572831572 11.987633197566637 a33.946659915394974,33.946659915394974 0 0,0 -0.5429508383026465,0.21605134378888324 l -4.682984658487059 -12.07003138576159" fill="#ff8f0d" stroke="none" /><path d="M 107.59598834532513 119.57807347666477 l 5.735417316121333 14.782595302883221 a36.85623333830861,36.85623333830861 0 0,0 -0.5934376210614329,0.22438732984671836 l -5.480109474299625 -14.87913088283657" fill="#ffb711" stroke="none" /><path d="M 107.2578585660854 119.70592522655815 l 4.537640853076104 12.320219599418552 a34.12928008267789,34.12928008267789 0 0,0 -0.5530250677106892,0.19829511359159246 l -4.32489622473568 -12.396502254050105" fill="#ff920d" stroke="none" /><path d="M 106.91757812671514 119.82793768551818 l 5.206396243316344 14.92315639774537 a36.80528894750068,36.80528894750068 0 0,0 -0.5999792568914493,0.2035455392721073 l -4.948747253487667 -15.0105649239156" fill="#ffb610" stroke="none" /><path d="M 105.88484417918355 120.15858648285463 l 5.145804423594962 17.626999175921508 a39.362744977639565,39.362744977639565 0 0,0 -0.6520510531222748,0.18427614077428073 l -4.841622202368081 -17.71296411003431" fill="#ffd814" stroke="none" /><path d="M 105.53697534728816 120.25689768951611 l 4.156670180739402 15.207082802263105 a36.76493813328598,36.76493813328598 0 0,0 -0.6118903450965465,0.16160580152480195 l -3.8942893928313587 -15.276379953091492" fill="#ffb610" stroke="none" /><path d="M 105.18746579009965 120.34920634021253 l 3.9045803696426384 15.31674903098975 a36.806598265956026,36.806598265956026 0 0,0 -0.615277877192385,0.1512203325775092 l -3.6403492077070423 -15.381690621881287" fill="#ffb610" stroke="none" /><path d="M 104.83641907484287 120.43548508189849 l 3.617534703320704 15.285291724924024 a36.70753642191418,36.70753642191418 0 0,0 -0.6161269978167802,0.14022849876581306 l -3.353887556111062 -15.34529695726752" fill="#ffb510" stroke="none" /><path d="M 104.48393922423573 120.51570834832081 l 3.3563274124763316 15.356460217762024 a36.71896320116081,36.71896320116081 0 0,0 -0.6186420337157692,0.1296424531089663 l -3.091493917331184 -15.411958651597532" fill="#ffb510" stroke="none" /><path d="M 104.13013068566511 120.58985236759428 l 1.984843970685743 9.895000289209454 a31.092107624843422,31.092107624843422 0 0,0 -0.5256526256210219,0.10074257676406204 l -1.8142237304930169 -9.927700064321984" fill="#ff6809" stroke="none" /><path d="M 103.41894727170886 120.7198165907248 l 3.0052949790064307 18.2129631776731 a39.459247699245964,39.459247699245964 0 0,0 -0.6711156251027997,0.10481445845113153 l -2.6913434902951137 -18.261995943471337" fill="#ffd914" stroke="none" /><path d="M 103.06178313531738 120.77559828337769 l 2.300406940792234 15.60931273639641 a36.77791228888893,36.77791228888893 0 0,0 -0.6271008984042685,0.08691047036243164 l -2.031377451201135 -15.646597772251443" fill="#ffb610" stroke="none" /><path d="M 102.70371172650421 120.8252237178851 l 2.0336186974153607 15.6638608751779 a36.795320272897484,36.795320272897484 0 0,0 -0.6288014955230719,0.07613910418286364 l -1.7636897788409085 -15.696545508086114" fill="#ffb610" stroke="none" /><path d="M 102.34483914955558 120.86867818915974 l 1.7657664435955944 15.71502747879209 a36.8139185464109,36.8139185464109 0 0,0 -0.6303373857383722,0.06533704732585728 l -1.4949964612516198 -15.743093894573706" fill="#ffb610" stroke="none" /><path d="M 101.98527174616119 120.90594882070398 l 1.491921685538219 15.710714899696155 a36.78139388569064,36.78139388569064 0 0,0 -0.6308108575865714,0.05442901510623021 l -1.221266510210106 -15.734068167081048" fill="#ffb610" stroke="none" /><path d="M 100.90346689309514 120.98055641714683 l 0.9081350122032413 21.088960761631334 a42.108504807447055,42.108504807447055 0 0,0 -0.724425990873366,0.024950695871183936 l -0.5449886696552231 -21.101468255928612" fill="#fffb17" stroke="none" /><line stroke="#e1ed5e" stroke-width="0.3" x1="102.19456741930631" x2="102.32365962044197" y1="184.97166512339345" y2="189.96999836594603" /><path d="M 102.22038585953345 185.97133177190398 a86.0,86.0 0 0,1 -42.740103519485714,-10.115201625700543" fill="none" id="id31" stroke="none" /><text fill="#e1ed5e" style="font-size:6.75px; font-family:Arial;" text-anchor="middle"><textPath startOffset="22.20632615414155" xlink:href="#id31">July</textPath></text><path d="M 100.54218724476979 120.99299961872073 l 0.40847970897063124 15.815964793337287 a36.82123882686578,36.82123882686578 0 0,0 -0.6337466657199288,0.01091052358141242 l -0.1361733533580346 -15.820652794197859" fill="#ffb610" stroke="none" /><path d="M 100.18074693466247 120.99922214144158 l 0.13605630631164245 15.807054240325959 a36.80763976927277,36.80763976927277 0 0,0 -0.6336064819481849,0.0 l 0.13605630631163154 -15.807054240325959" fill="#ffb610" stroke="none" /><path d="M 99.81925306533755 120.99922214144158 l -0.113600177354154 13.19809580185734 a34.19858468909827,34.19858468909827 0 0,0 -0.5886070026314065,-0.010133403345166502 l 0.3407668698782284 -13.194184921233013" fill="#ff930d" stroke="none" /><path d="M 99.45781275523022 120.99299961872073 l -0.41142454714207477 15.929986263238867 a36.93529831866884,36.93529831866884 0 0,0 -0.6354272184457537,-0.02188539819864551 l 0.6855721172624715 -15.920544066614127" fill="#ffb811" stroke="none" /><line stroke="#e1ed5e" stroke-width="0.3" x1="58.666819895761336" x2="56.23545636021788" y1="174.27360380694188" y2="178.64263932499728" /><path d="M 58.180547188652646 175.14741091055294 a86.0,86.0 0 0,1 -31.652253787137756,-30.449443065178592" fill="none" id="id32" stroke="none" /><text fill="#e1ed5e" style="font-size:6.75px; font-family:Arial;" text-anchor="middle"><textPath startOffset="22.20632615414155" xlink:href="#id32">August</textPath></text><line stroke="#e1ed5e" stroke-width="0.3" x1="26.63291911575756" x2="22.317208475507996" y1="142.92168965132927" y2="145.44649492493687" /><path d="M 25.769776987707644 143.4266507060508 a86.0,86.0 0 0,1 -11.730757126820373,-40.83630448921669" fill="none" id="id33" stroke="none" /><text fill="#e1ed5e" style="font-size:6.75px; font-family:Arial;" text-anchor="middle"><textPath startOffset="21.46611528233685" xlink:href="#id33">September</textPath></text><line stroke="#e1ed5e" stroke-width="0.3" x1="15.007084014347285" x2="10.007500721073583" y1="101.09737516637583" y2="101.16192664675087" /><path d="M 14.007167355692545 101.11028546245083 a86.0,86.0 0 0,1 10.666146001902534,-42.60595125391555" fill="none" id="id34" stroke="none" /><text fill="#e1ed5e" style="font-size:6.75px; font-family:Arial;" text-anchor="middle"><textPath startOffset="22.20632615414155" xlink:href="#id34">October</textPath></text><line stroke="#e1ed5e" stroke-width="0.3" x1="26.266209847984243" x2="21.928928074336255" y1="57.711370442889674" y2="55.22380399835377" /><path d="M 25.398753493254645 57.213857153982495 a86.0,86.0 0 0,1 29.58750427330803,-30.492523968695096" fill="none" id="id35" stroke="none" /><text fill="#e1ed5e" style="font-size:6.75px; font-family:Arial;" text-anchor="middle"><textPath startOffset="21.46611528233685" xlink:href="#id35">November</textPath></text><line stroke="#e1ed5e" stroke-width="0.3" x1="56.762969772571076" x2="54.21961505331055" y1="26.818313649435495" y2="22.513508569990535" /><path d="M 56.25429882871897 25.957352633546506 a86.0,86.0 0 0,1 42.265352541879196,-11.944610805530505" fill="none" id="id36" stroke="none" /><text fill="#e1ed5e" style="font-size:6.75px; font-family:Arial;" text-anchor="middle"><textPath startOffset="22.20632615414155" xlink:href="#id36">December</textPath></text></svg>