<?xml version="1.0" encoding="utf-8" ?>
<svg baseProfile="full" height="200mm" version="1.1" viewBox="0,0,200,200" width="200mm" xmlns="http://www.w3.org/2000/svg" xmlns:ev="http://www.w3.org/2001/xml-events" xmlns:xlink="http://www.w3.org/1999/xlink"><defs /><rect fill="#1a1a1a" height="200" width="200" x="0" y="0" /><text alignment-baseline="middle" fill="#e1ed5e" style="dominant-baseline: central; font-size:9.0px; font-family:Arial;" text-anchor="middle" x="100.0" y="100.0">2025</text><line stroke="#e1ed5e" stroke-width="0.3" x1="100.0" x2="100.0" y1="15.0" y2="10.0" /><path d="M 100.0 14.0 a86.0,86.0 0 0,1 42.46469731375804,11.215312516191453" fill="none" id="id25" stroke="none" /><text fill="#e1ed5e" style="font-size:6.75px; font-family:Arial;" text-anchor="middle"><textPath startOffset="22.20632615414155" xlink:href="#id25">January</textPath></text><path d="M 100.0 79.0 l 0.0 -7.133464517091991 a28.13346451709199,28.13346451709199 0 0,0 0.4842713446302421,0.004168276353152427 l -0.1227908653577137 7.132407617347397" fill="#ff3d05" stroke="none" /><path d="M 101.08401301168833 79.027996857942 l 0.2174675109484555 -4.207264372042264 a25.21288091625841,25.21288091625841 0 0,0 0.43322687107969204,0.026133427954793752 l -0.2898564308677595 4.202897674707166" fill="#ff1202" stroke="none" /><path d="M 101.80526077348638 79.07773832637324 l 1.3853996696152784 -16.056236769754236 a37.11589499379349,37.11589499379349 0 0,0 0.6360513330392035,0.060400738154510254 l -1.6615761297447262 16.030010487084546" fill="#ffba11" stroke="none" /><path d="M 102.16513564639614 79.11191278185805 l 1.9983682129730778 -19.279202943253836 a40.382495753689426,40.382495753689426 0 0,0 0.6907970033382083,0.07761909226548498 l -2.3299319198210116 19.24194789751775" fill="#ffe515" stroke="none" /><path d="M 103.2404852339499 79.25152402106235 l 0.9585712784800576 -6.137628074114068 a27.212031654143438,27.212031654143438 0 0,0 0.4621779491741618,0.07626332170721754 l -1.0640784337930946 6.120218489467225" fill="#ff3004" stroke="none" /><path d="M 103.59715602781102 79.31037775812273 l 3.5353285599460054 -20.334011602691966 a41.63905462673088,41.63905462673088 0 0,0 0.7050976656156348,0.12885209152040047 l -3.8848213466645407 20.270144029820827" fill="#fff517" stroke="none" /><path d="M 107.08798089147638 80.2323363322302 l 5.210877834004671 -14.532612603444168 a36.438590508291405,36.438590508291405 0 0,0 0.5886006630641943,0.21678659161187627 l -5.460260822841441 14.440762744025967" fill="#ffb110" stroke="none" /><path d="M 108.09893153111575 80.62456947434976 l 8.607231168675181 -20.591458130761897 a43.31798773057136,43.31798773057136 0 0,0 0.6854890906051764,0.2934906543813204 l -8.960404017070672 20.440247948417788" fill="#f4ff19" stroke="none" /><path d="M 109.08828744355905 81.06846463323043 l 9.424593211546478 -19.63208369121926 a42.777090422326054,42.777090422326054 0 0,0 0.6610664264636984,0.3243824244857679 l -9.761130905020607 19.46694610659866" fill="#fbff18" stroke="none" /><line stroke="#e1ed5e" stroke-width="0.3" x1="143.23703022742887" x2="145.7803849466894" y1="26.81831364943548" y2="22.513508569990506" /><path d="M 143.74570117128098 25.957352633546492 a86.0,86.0 0 0,1 28.547481713284135,27.462654790039103" fill="none" id="id26" stroke="none" /><text fill="#e1ed5e" style="font-size:6.75px; font-family:Arial;" text-anchor="middle"><textPath startOffset="19.985693538727396" xlink:href="#id26">February</textPath></text><path d="M 113.34407831869373 83.78471172551755 l 13.497661163972907 -16.40191713342195 a42.24169820304071,42.24169820304071 0 0,0 0.5574746801438252,0.4668690125069205 l -13.77799338107585 16.167146963521212" fill="#fffc17" stroke="none" /><path d="M 113.6212207817346 84.01681056812373 l 10.59536228024558 -12.432636188645334 a37.334997534400316,37.334997534400316 0 0,0 0.48554377876916643,0.4210587803207741 l -10.80779985766151 12.24841241490489" fill="#ffbd11" stroke="none" /><path d="M 113.89432698308785 84.25364557470407 l 5.765359605056672 -6.533846212271238 a29.71381189269257,29.71381189269257 0 0,0 0.3806042340844714,0.34171023930132827 l -5.876974826737134 6.4336369642006135" fill="#ff5407" stroke="none" /><path d="M 114.42810811169701 84.74124197986012 l 8.354927994158903 -8.835934936972738 a33.16053321191121,33.16053321191121 0 0,0 0.41137497868808504,0.39574240356596935 l -8.505786216459406 8.690809446644467" fill="#ff850c" stroke="none" /><path d="M 115.68641384162765 86.03803664274999 l 2.6217053826286576 -2.3334941214306455 a24.50977690573852,24.50977690573852 0 0,0 0.2777869678789295,0.3175585246184619 l -2.661484214085435 2.2880200406092355" fill="#ff0801" stroke="none" /><path d="M 115.9244219780498 86.31012108654704 l 11.96355736579833 -10.284809830942747 a36.77669224214645,36.77669224214645 0 0,0 0.40855295100683053,0.4835978297577814 l -12.138820930292278 10.077353051555859" fill="#ffb610" stroke="none" /><path d="M 117.45458315368197 88.32363383020206 l 2.49059805587389 -1.666103087430986 a23.99649431400593,23.99649431400593 0 0,0 0.22671358150062856,0.34530033855024045 l -2.518908272732443 1.6229846849030716" fill="#ff0000" stroke="none" /><path d="M 117.65298651832404 88.62581576622439 l 9.01309295407645 -5.807322158740494 a31.721979073576897,31.721979073576897 0 0,0 0.29180052140373053,0.4615583488139118 l -9.111721071726135 5.6513161622123755" fill="#ff710a" stroke="none" /><line stroke="#e1ed5e" stroke-width="0.3" x1="172.23445277983987" x2="176.4835382374775" y1="55.19839476539836" y2="52.563006222186495" /><path d="M 173.08426987136738 54.67131705675599 a86.0,86.0 0 0,1 12.851231095245387,41.99856678651699" fill="none" id="id27" stroke="none" /><text fill="#e1ed5e" style="font-size:6.75px; font-family:Arial;" text-anchor="middle"><textPath startOffset="22.20632615414155" xlink:href="#id27">March</textPath></text><path d="M 118.03404312379186 89.2402003453031 l 8.17831621900202 -4.87949615209291 a30.523357542184428,30.523357542184428 0 0,0 0.26532112485756837,0.45351980748783555 l -8.261097018329917 4.737996932251179" fill="#ff6008" stroke="none" /><path d="M 118.56541770881063 90.18545643968196 l 13.488649388900498 -7.130727628842689 a36.25748796012719,36.25748796012719 0 0,0 0.2869358322039902,0.5542686979770455 l -13.609394654264603 6.897486208605299" fill="#ffaf10" stroke="none" /><path d="M 118.73160827565052 90.50648371742162 l 4.982686439090713 -2.525315186202156 a26.586088160775994,26.586088160775994 0 0,0 0.20337089798888597,0.4099833204851855 l -5.025417350033008 2.4391722772180207" fill="#ff2703" stroke="none" /><path d="M 118.89224826269711 90.83032412892265 l 16.719882253484755 -8.115280867325717 a39.58526960057285,39.58526960057285 0 0,0 0.29225579505399224,0.6155652389038582 l -16.857096242380504 7.826273212781319" fill="#ffdb14" stroke="none" /><path d="M 119.47837535516314 92.15188598940014 l 13.828499033338046 -5.571698616041886 a35.90876289244129,35.90876289244129 0 0,0 0.22606524143568504,0.5753113813392001 l -13.922357824655432 5.332838229806902" fill="#ffaa0f" stroke="none" /><path d="M 119.85752413597 93.16781622104841 l 10.080671566734328 -3.468357902404555 a31.660649406839063,31.660649406839063 0 0,0 0.17287122580625572,0.5168629616957674 l -10.138880086312355 3.2943218377864736" fill="#ff700a" stroke="none" /><path d="M 120.18372546131832 94.20196356495316 l 15.075158853462122 -4.330534542000424 a36.684831649609,36.684831649609 0 0,0 0.1691227153918067,0.6084243904541666 l -15.147468339420293 4.070398848127306" fill="#ffb410" stroke="none" /><path d="M 120.37134235888165 94.90015583598534 l 21.89907853232134 -5.482303811052763 a43.574881962957434,43.574881962957434 0 0,0 0.17589146299834427,0.7291836690705433 l -21.9902027955805 5.104534910322813" fill="#f1ff19" stroke="none" /><path d="M 120.45610955862082 95.25157060432595 l 15.139350317215715 -3.514262370939373 a36.541877880075496,36.541877880075496 0 0,0 0.13695480469752502,0.6139415353204725 l -15.197599508915278 3.253142666068937" fill="#ffb310" stroke="none" /><path d="M 120.53481517161879 95.60439243477599 l 7.974121151741027 -1.7069112610786932 a29.15476266949817,29.15476266949817 0 0,0 0.10082092345191054,0.4916386285736903 l -8.002321371107934 1.5693969763415911" fill="#ff4c07" stroke="none" /><path d="M 120.6074358757038 95.95851677861258 l 12.546196681165092 -2.4605314161834637 a33.78519714406093,33.78519714406093 0 0,0 0.107009425266662,0.5716486286920982 l -12.586691830341612 2.2442047100288027" fill="#ff8d0d" stroke="none" /><path d="M 120.73433829027371 96.67025291283417 l 6.698673665823795 -1.0757463688684124 a27.78450139150511,27.78450139150511 0 0,0 0.07176883115317732,0.472866926622255 l -6.716198390416272 0.9602803298540753" fill="#ff3805" stroke="none" /><path d="M 120.78858239683441 97.02765380044208 l 9.009594778439997 -1.288189559444458 a30.101221369286375,30.101221369286375 0 0,0 0.06892319793719273,0.5135578808603084 l -9.030433975435026 1.1329133365194852" fill="#ff5a08" stroke="none" /><path d="M 120.96714384426684 98.82574320788733 l 62.90143153280055 -3.5227703763380056 a84.0,84.0 0 0,0 0.0684255670660141,1.444355573508001 l -62.95275070810006 2.4395036962070047" fill="#4dd2ff" stroke="none" /><line stroke="#e1ed5e" stroke-width="0.3" x1="184.98032266829074" x2="189.97916517819016" y1="98.17113171792111" y2="98.06355123074" /><path d="M 185.9800911702706 98.14961562048488 a86.0,86.0 0 0,1 -9.607161424134198,41.387399972396054" fill="none" id="id28" stroke="none" /><text fill="#e1ed5e" style="font-size:6.75px; font-family:Arial;" text-anchor="middle"><textPath startOffset="21.466115282336823" xlink:href="#id28">April</textPath></text><path d="M 120.99824983174949 100.27111621757518 l 23.618999291061584 0.3049536890937202 a44.62096789430229,44.62096789430229 0 0,0 -0.016526623391246574,0.7679272488715791 l -23.610250604985332 -0.7114707537554141" fill="#e4ff1a" stroke="none" /><path d="M 120.92983693683757 101.71520430193887 l 25.672012932663378 2.1038265684733877 a46.75807318580041,46.75807318580041 0 0,0 -0.07264290547584745,0.8016084086902944 l -25.631995430910454 -2.5454163657122524" fill="#caff1d" stroke="none" /><path d="M 120.89721153311464 102.0752229133903 l 23.780294173548715 2.3615309285599597 a44.89726384561756,44.89726384561756 0 0,0 -0.08299087863747173,0.7683924649249488 l -23.73612099341019 -2.7705197153697" fill="#e1ff1b" stroke="none" /><path d="M 120.8583938346157 102.4346265915055 l 37.46719184589399 4.373233255653144 a58.7215539701823,58.7215539701823 0 0,0 -0.12582768111133127,1.0029704214170918 l -37.38636265553581 -5.017521431357631" fill="#45ff2d" stroke="none" /><path d="M 120.81339534386255 102.79330883721812 l 39.13805901134174 5.252611806087783 a60.48895534147138,60.48895534147138 0 0,0 -0.14737975252670496,1.0307736459104924 l -39.04184520779844 -5.925530923978685" fill="#33ff2f" stroke="none" /><path d="M 120.76222939487914 103.15116336523771 l 37.69616004619052 5.721291114189823 a59.12785929266575,59.12785929266575 0 0,0 -0.16138596014419954,1.0049505278728594 l -37.59209233168503 -6.369320871755887" fill="#41ff2d" stroke="none" /><path d="M 120.70491114924044 103.5080841355445 l 4.641884659261316 0.7864859604953868 a25.70804135027953,25.70804135027953 0 0,0 -0.07767936591268967,0.43566713675902663 l -4.627658851009437 -0.8662718479876317" fill="#ff1a02" stroke="none" /><path d="M 120.5718875245553 104.21870165774334 l 48.04479030881779 9.852602794945629 a70.04462924371273,70.04462924371273 0 0,0 -0.252380676376929,1.179038498179549 l -47.86807559371642 -10.678155112541347" fill="#3bff9c" stroke="none" /><path d="M 120.49622156327973 104.57218783832717 l 37.92943168447363 8.461095413464163 a59.861702529648596,59.861702529648596 0 0,0 -0.23300293748605097,1.0037705564364747 l -37.778168181057026 -9.112734627249202" fill="#3aff2e" stroke="none" /><path d="M 120.41448212921028 104.9243191809786 l 24.70282781609711 5.958740861966918 a46.41134185303514,46.41134185303514 0 0,0 -0.1940186049085995,0.7750078820985665 l -24.59659789689345 -6.383076583462881" fill="#ceff1d" stroke="none" /><path d="M 120.32669344350535 105.2749913415812 l 38.03283747618317 9.869922471169708 a60.29264684488261,60.29264684488261 0 0,0 -0.26934138966496735,1.0023195083996759 l -37.85730801017642 -10.523132912744932" fill="#35ff2f" stroke="none" /><path d="M 120.23288151984713 105.62410040840565 l 39.40134281894323 10.952325699252368 a61.895222876986416,61.895222876986416 0 0,0 -0.294171380223771,1.0240491662184148 l -39.20697880183336 -11.628932340975364" fill="#31ff3c" stroke="none" /><path d="M 119.9155931802556 106.66101706037122 l 34.4184618674176 11.511681304973443 a57.292551905124476,57.292551905124476 0 0,0 -0.32086330584302425,0.9325789595640311 l -34.21520773063134 -12.102432967626774" fill="#54ff2b" stroke="none" /><path d="M 119.79798401119884 107.00284435728193 l 11.46739580770447 4.056190164578223 a33.16362796462384,33.16362796462384 0 0,0 -0.19499540336569796,0.5365436028690489 l -11.395876143333545 -4.252981564453402" fill="#ff850c" stroke="none" /><path d="M 119.67450827220406 107.3425965602758 l 35.32478499546031 13.183335573707426 a58.704651859213314,58.704651859213314 0 0,0 -0.36146891904133144,0.9436812849969182 l -35.092621796825476 -13.789440425537487" fill="#45ff2d" stroke="none" /><path d="M 119.54520255179757 107.68017299344265 l 23.557110702886927 9.256628829728424 a46.31052433197363,46.31052433197363 0 0,0 -0.2979252747437645,0.7394260992400726 l -23.39428281388577 -9.66075429681131" fill="#d0ff1d" stroke="none" /><path d="M 119.41010516605496 108.01547362559984 l 32.9190077846004 13.594024165300754 a56.615425963048125,56.615425963048125 0 0,0 -0.37972510458451464,0.8975579782552381 l -32.68013169882358 -14.158656669222156" fill="#5bff2a" stroke="none" /><path d="M 119.12269723197855 108.67885076344098 l 32.56700298235725 14.780559210222462 a56.76415263668019,56.76415263668019 0 0,0 -0.41147356594671136,0.8862774546423281 l -32.30775479957071 -15.338956732143622" fill="#5aff2a" stroke="none" /><path d="M 118.97047184881838 109.00673069616215 l 19.883775466005527 9.44034562094579 a43.01101206726837,43.01101206726837 0 0,0 -0.323292770691597,0.6660788637803087 l -19.718329438699218 -9.781213440691374" fill="#f8ff18" stroke="none" /><path d="M 118.81262510543309 109.33194174019688 l 31.762546070754826 15.755708083876138 a56.455629597020874,56.455629597020874 0 0,0 -0.4393359088951824,0.8668514280586713 l -31.486631492073375 -16.3001137236375" fill="#5dff2a" stroke="none" /><path d="M 118.64920377521936 109.65438752849418 l 21.990109993366726 11.383919990851078 a45.76203892813486,45.76203892813486 0 0,0 -0.36816103311538984,0.6964219295464624 l -21.790896452026445 -11.760756935483675" fill="#d6ff1c" stroke="none" /><line stroke="#e1ed5e" stroke-width="0.3" x1="174.80103733775053" x2="179.2010983576182" y1="140.37084112569926" y2="142.7455964860345" /><path d="M 175.68104954172406 140.8457921977663 a86.0,86.0 0 0,1 -30.038265399797805,32.042727171017184" fill="none" id="id29" stroke="none" /><text fill="#e1ed5e" style="font-size:6.75px; font-family:Arial;" text-anchor="middle"><textPath startOffset="22.206326154141568" xlink:href="#id29">May</textPath></text><path d="M 118.48025628344425 109.97397251340804 l 10.36106867407961 5.591968670769054 a32.773778394545076,32.773778394545076 0 0,0 -0.27221524301986155,0.4941497363433345 l -10.26327702160824 -5.769488925510194" fill="#ff7f0b" stroke="none" /><path d="M 117.55443506779139 111.5257021239791 l 30.15339708816273 19.797793066088577 a57.07187223092372,57.07187223092372 0 0,0 -0.5462509088957985,0.8165709925026314 l -29.80814307385621 -20.313900972797015" fill="#56ff2a" stroke="none" /><path d="M 117.35343817320211 111.8261652097733 l 29.627258899602445 20.190630523033242 a56.85297799098024,56.85297799098024 0 0,0 -0.5580772051519859,0.8039518373862213 l -29.275320787288322 -20.697623622606482" fill="#59ff2a" stroke="none" /><path d="M 117.14729908036423 112.12312394758627 l 18.150179398657073 12.832159367466554 a43.228210144667415,43.228210144667415 0 0,0 -0.43479388199941543,0.6038906739496149 l -17.926605724282055 -13.142683646867301" fill="#f5ff19" stroke="none" /><path d="M 116.93607887273984 112.41649034213515 l 31.72924138106331 23.26192633676093 a60.34287706198763,60.34287706198763 0 0,0 -0.6213555857075234,0.8324073475338383 l -31.324124528660697 -23.804646563804084" fill="#35ff2f" stroke="none" /><path d="M 116.27256486870786 113.27417163493432 l 19.600339018088246 15.988767986374803 a46.2945446953709,46.2945446953709 0 0,0 -0.509028359679442,0.6131574506695633 l -19.32221465851526 -16.323786694158137" fill="#d0ff1d" stroke="none" /><path d="M 116.0416608686014 113.55231037782055 l 29.182288312380244 24.65377070266559 a59.202282143957014,59.202282143957014 0 0,0 -0.6643552970346479,0.772795300836151 l -28.75359050577482 -25.15244310266327" fill="#40ff2d" stroke="none" /><path d="M 115.80600337817218 113.82643327865902 l 27.589200420096063 24.1338831640894 a57.65526287449248,57.65526287449248 0 0,0 -0.6598539144325226,0.7413528679282585 l -27.1696876560152 -24.605210201758528" fill="#50ff2b" stroke="none" /><path d="M 115.56566222782051 114.09645910891815 l 16.346808301403556 14.803874798863854 a43.05386248944326,43.05386248944326 0 0,0 -0.5021999174498749,0.5450388247035415 l -16.08956197595796 -15.08306487836873" fill="#f7ff18" stroke="none" /><line stroke="#e1ed5e" stroke-width="0.3" x1="143.8653032363475" x2="146.44561519142675" y1="172.8068346515853" y2="177.08958963109032" /><path d="M 144.38136562736335 173.6633856474863 a86.0,86.0 0 0,1 -40.68145358897372,12.25698825130547" fill="none" id="id30" stroke="none" /><text fill="#e1ed5e" style="font-size:6.75px; font-family:Arial;" text-anchor="middle"><textPath startOffset="21.466115282336833" xlink:href="#id30">June</textPath></text><line stroke="#e1ed5e" stroke-width="0.3" x1="102.19456741930631" x2="102.32365962044197" y1="184.97166512339345" y2="189.96999836594603" /><path d="M 102.22038585953345 185.97133177190398 a86.0,86.0 0 0,1 -42.740103519485714,-10.115201625700543" fill="none" id="id31" stroke="none" /><text fill="#e1ed5e" style="font-size:6.75px; font-family:Arial;" text-anchor="middle"><textPath startOffset="22.20632615414155" xlink:href="#id31">July</textPath></text><line stroke="#e1ed5e" stroke-width="0.3" x1="58.666819895761336" x2="56.23545636021788" y1="174.27360380694188" y2="178.64263932499728" /><path d="M 58.180547188652646 175.14741091055294 a86.0,86.0 0 0,1 -31.652253787137756,-30.449443065178592" fill="none" id="id32" stroke="none" /><text fill="#e1ed5e" style="font-size:6.75px; font-family:Arial;" text-anchor="middle"><textPath startOffset="22.20632615414155" xlink:href="#id32">August</textPath></text><line stroke="#e1ed5e" stroke-width="0.3" x1="26.63291911575756" x2="22.317208475507996" y1="142.92168965132927" y2="145.44649492493687" /><path d="M 25.769776987707644 143.4266507060508 a86.0,86.0 0 0,1 -11.730757126820373,-40.83630448921669" fill="none" id="id33" stroke="none" /><text fill="#e1ed5e" style="font-size:6.75px; font-family:Arial;" text-anchor="middle"><textPath startOffset="21.46611528233685" xlink:href="#id33">September</textPath></text><line stroke="#e1ed5e" stroke-width="0.3" x1="15.007084014347285" x2="10.007500721073583" y1="101.09737516637583" y2="101.16192664675087" /><path d="M 14.007167355692545 101.11028546245083 a86.0,86.0 0 0,1 10.666146001902534,-42.60595125391555" fill="none" id="id34" stroke="none" /><text fill="#e1ed5e" style="font-size:6.75px; font-family:Arial;" text-anchor="middle"><textPath startOffset="22.20632615414155" xlink:href="#id34">October</textPath></text><line stroke="#e1ed5e" stroke-width="0.3" x1="26.266209847984243" x2="21.928928074336255" y1="57.711370442889674" y2="55.22380399835377" /><path d="M 25.398753493254645 57.213857153982495 a86.0,86.0 0 0,1 29.58750427330803,-30.492523968695096" fill="none" id="id35" stroke="none" /><text fill="#e1ed5e" style="font-size:6.75px; font-family:Arial;" text-anchor="middle"><textPath startOffset="21.46611528233685" xlink:href="#id35">November</textPath></text><line stroke="#e1ed5e" stroke-width="0.3" x1="56.762969772571076" x2="54.21961505331055" y1="26.818313649435495" y2="22.513508569990535" /><path d="M 56.25429882871897 25.957352633546506 a86.0,86.0 0 0,1 42.265352541879196,-11.944610805530505" fill="none" id="id36" stroke="none" /><text fill="#e1ed5e" style="font-size:6.75px; font-family:Arial;" text-anchor="middle"><textPath startOffset="22.20632615414155" xlink:href="#id36">December</textPath></text></svg>