<?xml version="1.0" encoding="utf-8" ?>
<svg baseProfile="full" height="200mm" version="1.1" viewBox="0,0,200,200" width="200mm" xmlns="http://www.w3.org/2000/svg" xmlns:ev="http://www.w3.org/2001/xml-events" xmlns:xlink="http://www.w3.org/1999/xlink"><defs /><rect fill="#1a1a1a" height="200" width="200" x="0" y="0" /><text alignment-baseline="middle" fill="#e1ed5e" style="dominant-baseline: central; font-size:9.0px; font-family:Arial;" text-anchor="middle" x="100.0" y="100.0">2024</text><line stroke="#e1ed5e" stroke-width="0.3" x1="100.0" x2="100.0" y1="15.0" y2="10.0" /><path d="M 100.0 14.0 a86.0,86.0 0 0,1 42.35913384403234,11.155469271406648" fill="none" id="id13" stroke="none" /><text fill="#e1ed5e" style="font-size:6.75px; font-family:Arial;" text-anchor="middle"><textPath startOffset="22.145653131862478" xlink:href="#id13">January</textPath></text><path d="M 100.36049292484886 79.00309439819443 l 0.46550705299267914 -27.11345209551631 a48.117447913700204,48.117447913700204 0 0,0 0.8257565518567684,0.021268559615687996 l -0.9308769189201889 27.101465818550572" fill="#b9ff1f" stroke="none" /><path d="M 100.72087961077811 79.0123766808444 l 0.9548721803185117 -27.800061673036023 a48.81645573946028,48.81645573946028 0 0,0 0.8372585626725261,0.03595548518302644 l -1.431956503591874 27.77957361942717" fill="#b1ff20" stroke="none" /><path d="M 101.08105385017728 79.02784411241856 l 1.3885753011797668 -26.937989882013675 a47.97375465615637,47.97375465615637 0 0,0 0.8220774553537834,0.04945413831567957 l -1.8507971086660127 26.910183765873306" fill="#baff1f" stroke="none" /><path d="M 101.44090949804482 79.04949213459386 l 1.2104137822136312 -17.599150744076756 a38.64072584779068,38.64072584779068 0 0,0 0.6613654730517153,0.051193870381785016 l -1.5123482500405798 17.575779106699915" fill="#ffd013" stroke="none" /><path d="M 101.80034050326958 79.07731436759882 l 3.111419199402541 -36.15940743514386 a57.29302516317905,57.29302516317905 0 0,0 0.9791662736218287,0.09272806414732343 l -3.7316850364093823 36.10066761549135" fill="#53ff2b" stroke="none" /><path d="M 102.51750503828377 79.15144685158666 l 3.339155848085107 -27.65300053464697 a48.85387585861233,48.85387585861233 0 0,0 0.831730671716569,0.10768418728186299 l -3.8133643416924676 27.59160475116471" fill="#b0ff20" stroke="none" /><path d="M 102.87502721639298 79.19773525538626 l 3.735140418125515 -27.025615407438178 a48.28250652146673,48.28250652146673 0 0,0 0.8200551387876452,0.12051986525214269 l -4.198520662520842 26.95751446888715" fill="#b7ff1f" stroke="none" /><path d="M 103.23170211078529 79.25015418208739 l 4.185479397227208 -26.873780190529533 a48.197762766696655,48.197762766696655 0 0,0 0.8164299294583373,0.13434323420434482 l -4.646186829738616 26.79797095782952" fill="#b8ff1f" stroke="none" /><path d="M 103.58742460773223 79.30868818359171 l 4.590728217596997 -26.478100420549328 a47.87312016585599,47.87312016585599 0 0,0 0.8085206152078923,0.1473393893296391 l -5.044583566355943 26.39539285728832" fill="#bcff1f" stroke="none" /><path d="M 103.94208987418118 79.37332000966035 l 5.08794656138696 -26.622286370748174 a48.10412020002961,48.10412020002961 0 0,0 0.809760740531036,0.16197482677840183 l -5.544203787448952 26.531022147306913" fill="#b9ff1f" stroke="none" /><path d="M 104.29559338865022 79.4440306129975 l 7.270377913132865 -34.79139022077209 a56.54292093362342,56.54292093362342 0 0,0 0.9484067536645184,0.20670083775879522 l -7.866547083416517 34.66145792487958" fill="#5bff2a" stroke="none" /><path d="M 104.64783097203109 79.52079915486377 l 7.948337121585772 -35.021839924328134 a56.91246767744654,56.91246767744654 0 0,0 0.9508930933016229,0.22440818087152406 l -8.548362368627279 34.88023559981038" fill="#57ff2a" stroke="none" /><path d="M 104.9986988182912 79.60360301121754 l 6.403568849668768 -26.12874612987667 a47.90199004408397,47.90199004408397 0 0,0 0.7969857983510855,0.20259067335212544 l -6.851159941245248 26.01497022468928" fill="#bbff1f" stroke="none" /><path d="M 105.3480935250658 79.69241777938227 l 6.9122343618338835 -26.246879747562673 a48.14180687345507,48.14180687345507 0 0,0 0.7973626582475104,0.2173247382196041 l -7.361778421016087 26.124354515198927" fill="#b9ff1f" stroke="none" /><path d="M 105.69591212413111 79.78721728523813 l 5.253574715911237 -18.643083301549257 a40.369166277467045,40.369166277467045 0 0,0 0.6653991769260663,0.19368800277166828 l -5.572833905218909 18.550151604475072" fill="#ffe615" stroke="none" /><path d="M 106.04205211174951 79.88797359093562 l 8.278904048844959 -27.557779010990252 a49.774492806451974,49.774492806451974 0 0,0 0.8162053734269238,0.2528625110850388 l -8.750750055143513 27.411599912098566" fill="#a6ff21" stroke="none" /><path d="M 106.38641147887787 79.99465700312896 l 5.4405193263625025 -17.042349301318623 a38.88968753915728,38.88968753915728 0 0,0 0.6342301772450138,0.20848405667245762 l -5.7322722412552585 16.946444323244144" fill="#ffd313" stroke="none" /><path d="M 109.06512990194946 81.05736502329252 l 3.983745388841097 -8.32449568370005 a30.228621549887798,30.228621549887798 0 0,0 0.466153774660332,0.22801917044990727 l -4.126059412763496 8.254882763152922" fill="#ff5e08" stroke="none" /><path d="M 110.02825361518725 81.54914285379988 l 1.973090790452213 -3.6302648205848222 a25.131816783806258,25.131816783806258 0 0,0 0.3772833953948089,0.20927273956440612 l -2.035118374003122 3.59585916558727" fill="#ff1402" stroke="none" /><path d="M 110.34350942703115 81.72400993836675 l 4.176996360789601 -7.380352337454212 a29.48038320024605,29.48038320024605 0 0,0 0.43828560407041045,0.25304431149198925 l -4.3030744327204085 7.307561128686051" fill="#ff5307" stroke="none" /><line stroke="#e1ed5e" stroke-width="0.3" x1="143.13028292997686" x2="145.6673583964461" y1="26.7553504044142" y2="22.446841604673864" /><path d="M 143.63769802327073 25.89364864446614 a86.0,86.0 0 0,1 29.32050498858742,28.57503671076993" fill="none" id="id14" stroke="none" /><text fill="#e1ed5e" style="font-size:6.75px; font-family:Arial;" text-anchor="middle"><textPath startOffset="20.669276256404974" xlink:href="#id14">February</textPath></text><path d="M 110.65571695917076 81.90426304109057 l 4.444112789293074 -7.547075092076313 a29.758337794889904,29.758337794889904 0 0,0 0.43796797293806394,0.2629871839073485 l -4.573013518788572 7.469673907633044" fill="#ff5708" stroke="none" /><path d="M 111.27062007382361 82.28071324371311 l 5.614579369225175 -8.827051325267687 a31.46137355189265,31.46137355189265 0 0,0 0.4532151203989008,0.2937685654528249 l -5.765280121881083 8.729368918110968" fill="#ff6f0a" stroke="none" /><path d="M 111.8722381534696 82.67804972795209 l 3.0870342374926993 -4.50407520963775 a26.46044630753984,26.46044630753984 0 0,0 0.3724684675353292,0.26001191769861615 l -3.1638977962017893 4.450418476134007" fill="#ff2703" stroke="none" /><path d="M 113.03279911837588 83.53348406188908 l 5.182825460836097 -6.5483306602166005 a29.351186394340846,29.351186394340846 0 0,0 0.39239633187478,0.31608670867942307 l -5.294472563066136 6.458395657743769" fill="#ff5107" stroke="none" /><path d="M 113.31354834802062 83.75963576809568 l 2.1411381988360008 -2.611840458378631 a24.377304156651896,24.377304156651896 0 0,0 0.32134587878586773,0.2680781611453942 l -2.185658411783761 2.574700113321367" fill="#ff0801" stroke="none" /><path d="M 114.13192950727249 84.46653392183569 l 4.613463525532806 -5.071004574416629 a27.855591374577102,27.855591374577102 0 0,0 0.35094096095983857,0.32482571422009604 l -4.69983425780661 4.991061114064158" fill="#ff3c05" stroke="none" /><path d="M 114.91283532996326 85.21462403516908 l 2.4539784994198888 -2.4330044502425334 a24.455650608860083,24.455650608860083 0 0,0 0.2930173561730182,0.3006616208536849 l -2.4953826567437187 2.3905201373211065" fill="#ff0a01" stroke="none" /><path d="M 115.16444852881244 85.47280134310134 l 10.541449637663636 -10.09847029564382 a35.597988312620316,35.597988312620316 0 0,0 0.4189445305804243,0.4449045734020602 l -10.71325000198032 9.916024262297265" fill="#ffa80f" stroke="none" /><path d="M 115.8921839302757 86.27271002978787 l 6.4461943548138505 -5.568069152805168 a29.518028865321742,29.518028865321742 0 0,0 0.327938886134931,0.3863111832763511 l -6.540827804455893 5.4565911870792645" fill="#ff5407" stroke="none" /><path d="M 117.62189284568427 88.57770195909679 l 8.042726308879786 -5.213198023953319 a30.58451251324228,30.58451251324228 0 0,0 0.2817886705504272,0.4430185939593974 l -8.131032671056104 5.07436575531525" fill="#ff6309" stroke="none" /><path d="M 117.81537515405839 88.88188828441811 l 7.935515778644485 -4.952348754083559 a30.354045587615477,30.354045587615477 0 0,0 0.2720763708557321,0.44441630445976144 l -8.01936011395562 4.815395333499243" fill="#ff6008" stroke="none" /><line stroke="#e1ed5e" stroke-width="0.3" x1="172.87174338648825" x2="177.1583165268699" y1="56.24261187166439" y2="53.66864786411523" /><path d="M 173.72905801456457 55.72781907015455 a86.0,86.0 0 0,1 12.242430191666344,42.057860355516425" fill="none" id="id15" stroke="none" /><text fill="#e1ed5e" style="font-size:6.75px; font-family:Arial;" text-anchor="middle"><textPath startOffset="22.145653131862474" xlink:href="#id15">March</textPath></text><path d="M 118.00360718960297 89.18935116829356 l 24.17583890803577 -14.516896636003736 a49.19949423035301,49.19949423035301 0 0,0 0.42856575919287504,0.7277983525336701 l -24.42147837735841 14.099747115176509" fill="#acff20" stroke="none" /><path d="M 118.18653347947321 89.5 l 30.89494896849003 -17.837207103557475 a56.67441420711494,56.67441420711494 0 0,0 0.4792135723877201,0.8467244650514606 l -31.196595905899127 17.304225868406895" fill="#5aff2a" stroke="none" /><path d="M 118.53625476483649 90.13048839642627 l 22.836995023491927 -12.159413551149315 a46.872372902593774,46.872372902593774 0 0,0 0.37205935004094465,0.7134728615676674 l -23.042362442507812 11.76559444647715" fill="#c7ff1d" stroke="none" /><path d="M 118.70294669586156 90.45014215332178 l 13.018429853505372 -6.647303043185052 a35.617323749530115,35.617323749530115 0 0,0 0.27337158729118693,0.5469262989488449 l -13.130621354008296 6.422844888072457" fill="#ffa80f" stroke="none" /><path d="M 118.8641267826498 90.77261029715802 l 24.988784665469414 -12.223266783849429 a48.81811657762538,48.81811657762538 0 0,0 0.36176721556236113,0.7559543420843853 l -25.194931138991688 11.79249993969994" fill="#b1ff20" stroke="none" /><path d="M 119.0197475246899 91.09779779509293 l 25.300746859896357 -11.842027040032297 a48.93494936607925,48.93494936607925 0 0,0 0.34957155316396865,0.7638769312841588 l -25.500302877915377 11.405961126533454" fill="#afff20" stroke="none" /><path d="M 119.16976305983485 91.42560881287824 l 22.548009192758094 -10.08543771282226 a45.70078485424949,45.70078485424949 0 0,0 0.31417356658026846,0.7188906037319994 l -22.717816641355334 9.696885039314413" fill="#d5ff1c" stroke="none" /><path d="M 119.31412917781788 91.75594674310238 l 27.2451205083227 -11.629321849994078 a50.62326312551971,50.62326312551971 0 0,0 0.3342922981304209,0.802179820674909 l -27.440738650989605 11.159909519877893" fill="#9cff22" stroke="none" /><path d="M 119.58574465831526 92.42381321644754 l 14.144824798609722 -5.471522097547349 a36.16620000683472,36.16620000683472 0 0,0 0.21901099637615926,0.5809526879594105 l -14.236666478800322 5.227901129393781" fill="#ffaf10" stroke="none" /><path d="M 119.71291397450082 92.76114493625339 l 33.96894983187462 -12.473868897246417 a57.186834041486776,57.186834041486776 0 0,0 0.33048497404762256,0.9244252910633609 l -34.17807497596618 11.88890864980214" fill="#54ff2b" stroke="none" /><path d="M 119.83427380445688 93.10060997987247 l 44.31571606666039 -15.415306462917618 a67.92029799400822,67.92029799400822 0 0,0 0.3736087899741526,1.1045080016271318 l -44.57381027820691 14.652296786816324" fill="#38ff85" stroke="none" /><path d="M 119.94978838288452 93.4421083053983 l 38.09223357141185 -12.521673782820866 a61.097513299235644,61.097513299235644 0 0,0 0.3189734874221195,0.9991799062576109 l -38.301571774611226 11.865924842871868" fill="#30ff33" stroke="none" /><path d="M 120.05942366710727 93.78553927170692 l 30.22548209072734 -9.363931614573556 a52.64273981341201,52.64273981341201 0 0,0 0.2600142237399359,0.8655027857870791 l -30.381772634470902 8.843691225195753" fill="#85ff25" stroke="none" /><path d="M 120.16314734710363 94.1308016681162 l 28.282991998972303 -8.232766770158834 a50.45685124221126,50.45685124221126 0 0,0 0.23494033331580547,0.833720360278653 l -28.420150824362693 7.746038485977168" fill="#9eff22" stroke="none" /><path d="M 120.26092885502905 94.47779374421319 l 27.306274353771116 -7.442446500728784 a49.3023431715402,49.3023431715402 0 0,0 0.21554636781535558,0.818464667128645 l -27.430010202391202 6.9726013292273405" fill="#abff21" stroke="none" /><path d="M 120.35273937422433 94.82641323984039 l 29.160620182602795 -7.412515618699444 a51.087990249125724,51.087990249125724 0 0,0 0.20876127659947974,0.8518172484861816 l -29.283568985718563 6.910842545605167" fill="#97ff23" stroke="none" /><path d="M 120.43855184770803 95.1765574152323 l 17.271424274287565 -4.076009101081757 a38.745871256564186,38.745871256564186 0 0,0 0.14721427075042065,0.648653239782225 l -17.33884940659565 3.7789215273605055" fill="#ffd113" stroke="none" /><path d="M 120.51834098615036 95.52812308129327 l 28.882175437111048 -6.2947357092093945 a50.56017177942064,50.56017177942064 0 0,0 0.1775439432441774,0.8496120400543573 l -28.985977091179592 5.798007217869633" fill="#9dff22" stroke="none" /><path d="M 120.592083275326 95.88100663000786 l 27.57647382343238 -5.516067088878915 a49.1227471037853,49.1227471037853 0 0,0 0.15830087760948044,0.8282970832365502 l -27.66710099332402 5.0418674406090505" fill="#adff20" stroke="none" /><path d="M 120.65975698304385 96.23510406497455 l 19.398249344633406 -3.535007220276626 a40.717716746215274,40.717716746215274 0 0,0 0.11940990557691307,0.6887246034200725 l -19.456074067702552 3.201489583935961" fill="#ffeb16" stroke="none" /><path d="M 120.7213421655516 96.59031103205396 l 31.494232095522843 -5.182363906357405 a52.91776231104833,52.91776231104833 0 0,0 0.13979992820947182,0.8976158248065896 l -31.57855351587058 4.640959899619374" fill="#82ff25" stroke="none" /><path d="M 120.82617615685814 97.30363454192243 l 30.999490507494503 -4.013504677616327 a52.25822502192807,52.25822502192807 0 0,0 0.10754721243908447,0.890645198481294 l -31.06381980619325 3.4807658022116197" fill="#8aff24" stroke="none" /><path d="M 120.86939407059847 97.66154086499901 l 29.84221910326479 -3.343882895433255 a51.02897923382733,51.02897923382733 0 0,0 0.09007248449051067,0.8713695802746992 l -29.895223980236967 2.8311087928756242" fill="#97ff23" stroke="none" /><path d="M 120.9064616781168 98.02013634271609 l 14.356047740190338 -1.359532646922585 a35.42027862895417,35.42027862895417 0 0,0 0.05212916645036219,0.6058199323623801 l -14.37727052933844 1.112891667184543" fill="#ffa50f" stroke="none" /><path d="M 120.98066250479742 99.09900007780936 l 10.310781065100429 -0.4427893034958254 a31.320284324558305,31.320284324558305 0 0,0 0.018457062945910475,0.5373572492480453 l -10.316862815043187 0.2657257896836602" fill="#ff6d0a" stroke="none" /><path d="M 120.99303781780057 99.45929381324524 l 43.65990511268949 -1.1245242833574038 a64.67438458997346,64.67438458997346 0 0,0 0.019059135849963355,1.1100991134885059 l -43.67277568013812 0.37487825389983154" fill="#34ff5f" stroke="none" /><line stroke="#e1ed5e" stroke-width="0.3" x1="184.99686870605535" x2="189.99668451229388" y1="99.2704041080226" y2="99.22748670261217" /><path d="M 185.99683186730306 99.26182062694052 a86.0,86.0 0 0,1 -10.086455211305974,41.156179273409016" fill="none" id="id16" stroke="none" /><text fill="#e1ed5e" style="font-size:6.75px; font-family:Arial;" text-anchor="middle"><textPath startOffset="21.40746469413373" xlink:href="#id16">April</textPath></text><line stroke="#e1ed5e" stroke-width="0.3" x1="174.33088141563837" x2="178.70328620479359" y1="141.23008692659167" y2="143.65538615756765" /><path d="M 175.20536237346943 141.71514677278685 a86.0,86.0 0 0,1 -30.301960400862466,31.631185727798858" fill="none" id="id17" stroke="none" /><text fill="#e1ed5e" style="font-size:6.75px; font-family:Arial;" text-anchor="middle"><textPath startOffset="22.145653131862474" xlink:href="#id17">May</textPath></text><path d="M 115.41159269507618 114.26474011684316 l 2.605045181547114 2.4111909289736384 a24.549662250674928,24.549662250674928 0 0,0 -0.2889193242380698,0.3068223101508491 l -2.5632700235727843 -2.4555546990689847" fill="#ff0b01" stroke="none" /><path d="M 114.91283532996324 114.78537596483092 l 3.8265896353527795 3.7938839375594133 a26.388538166243293,26.388538166243293 0 0,0 -0.3216989993579564,0.3189494517826877 l -3.760898715864858 -3.8590133995707627" fill="#ff2603" stroke="none" /><path d="M 111.8722381534696 117.32195027204791 l 9.746839190230094 14.220929666363926 a38.240525362525204,38.240525362525204 0 0,0 -0.5446610990977131,0.366472294925482 l -9.50128180303538 -14.386151635346529" fill="#ffcb12" stroke="none" /><path d="M 111.5731344415666 117.5232005979908 l 1.5514741286071583 2.3491295737938436 a23.81522321072596,23.81522321072596 0 0,0 -0.343068913916712,0.22237312515978536 l -1.5109195824334367 -2.3754165406575236" fill="#ff0000" stroke="none" /><path d="M 111.27062007382361 117.71928675628689 l 4.237177538384345 6.66154686682282 a28.89492749495939,28.89492749495939 0 0,0 -0.4208145392370917,0.262619395792699 l -4.122198870357539 -6.733302059457067" fill="#ff4b06" stroke="none" /><line stroke="#e1ed5e" stroke-width="0.3" x1="143.1302829299769" x2="145.66735839644613" y1="173.24464959558577" y2="177.55315839532614" /><path d="M 143.63769802327073 174.10635135553383 a86.0,86.0 0 0,1 -40.68552437913181,11.842963189579606" fill="none" id="id18" stroke="none" /><text fill="#e1ed5e" style="font-size:6.75px; font-family:Arial;" text-anchor="middle"><textPath startOffset="21.407464694133747" xlink:href="#id18">June</textPath></text><path d="M 110.65571695917076 118.09573695890943 l 5.362672425254079 9.106990170255663 a31.568610386503693,31.568610386503693 0 0,0 -0.46933133056413845,0.27096857004033165 l -5.205548626829542 -9.197705637572167" fill="#ff710a" stroke="none" /><path d="M 109.71004243097381 118.62028667847754 l 3.411820337382122 6.542615362304223 a28.37877590075979,28.37877590075979 0 0,0 -0.4338882106106943,0.2215464119137196 l -3.299004905057845 -6.600219725890779" fill="#ff4306" stroke="none" /><path d="M 108.73861861582097 119.09545874513695 l 3.479315723346644 7.602932772027197 a29.361233440030983,29.361233440030983 0 0,0 -0.4601137333686367,0.20580302052537305 l -3.3482885871223806 -7.66153954346242" fill="#ff5107" stroke="none" /><path d="M 108.4095320186766 119.2426549942271 l 2.8935400528060082 6.620985903194876 a28.225650722772162,28.225650722772162 0 0,0 -0.445649321912458,0.19022119557769665 l -2.779455655723119 -6.669681748431977" fill="#ff4106" stroke="none" /><path d="M 107.407793817531 119.65005319985036 l 4.339589624863668 11.51127705421358 a33.30209484320002,33.30209484320002 0 0,0 -0.5366566746467638,0.1970677643997851 l -4.141343798562777 -11.584075667622086" fill="#ff890c" stroke="none" /><path d="M 107.06938296918513 119.77432235084164 l 4.069992968792213 11.384494697962749 a33.0901431874879,33.0901431874879 0 0,0 -0.5365239408353987,0.1866308774121831 l -3.873963255911792 -11.452684007943523" fill="#ff860c" stroke="none" /><path d="M 106.72888874123015 119.89276391827305 l 7.437696981445202 21.988229533498398 a44.212099741419564,44.212099741419564 0 0,0 -0.7210304229660328,0.2370170215129066 l -7.059143820831435 -22.112667476413325" fill="#e8ff1a" stroke="none" /><path d="M 106.38641147887787 120.00534299687104 l 6.703981401466597 21.000126256278765 a43.044243452903046,43.044243452903046 0 0,0 -0.7058423063791153,0.2186717508017717 l -6.342498462215857 -21.11211459488718" fill="#f6ff19" stroke="none" /><path d="M 106.0420521117495 120.11202640906438 l 2.361339002031621 7.860129553874766 a29.20716506999897,29.20716506999897 0 0,0 -0.48141751217608625,0.14013362154045841 l -2.226061477473928 -7.899506869717743" fill="#ff4f07" stroke="none" /><path d="M 105.3480935250658 120.30758222061773 l 4.118011736228398 15.636761310732313 a37.169920375454225,37.169920375454225 0 0,0 -0.6184273062103408,0.1572018028974972 l -3.8489791367926602 -15.70514834546508" fill="#ffbd11" stroke="none" /><path d="M 104.9986988182912 120.39639698878246 l 6.494505603775615 26.499799118876012 a48.28402383040769,48.28402383040769 0 0,0 -0.8067291166736903,0.19038587492549144 l -6.038644333362045 -26.607381137447728" fill="#b7ff1f" stroke="none" /><path d="M 104.64783097203109 120.47920084513623 l 3.673889798067354 16.187836328445382 a37.599503343319626,37.599503343319626 0 0,0 -0.6306646759034108,0.13745043078871494 l -3.3954627055448072 -16.248518217367813" fill="#ffc212" stroke="none" /><path d="M 104.29559338865022 120.5559693870025 l 5.926280213596527 28.359396159646288 a49.97198901887522,49.97198901887522 0 0,0 -0.8412035115800348,0.16826426159435848 l -5.438580216485534 -28.456949817903507" fill="#a3ff21" stroke="none" /><path d="M 103.94208987418118 120.62667999033965 l 4.802118759948714 25.126714534290816 a46.58148017360201,46.58148017360201 0 0,0 -0.7867063370169859,0.14336410117142281 l -4.37007768938067 -25.205446809393603" fill="#cbff1d" stroke="none" /><path d="M 103.58742460773223 120.69131181640829 l 4.9590325281804075 28.602381810932574 a50.02909314590998,50.02909314590998 0 0,0 -0.8474511397073108,0.13944776254585362 l -4.467303885420025 -28.6832955719741" fill="#a3ff22" stroke="none" /><path d="M 102.875027216393 120.80226474461374 l 2.461819104339211 17.812496685183373 a38.98181279688336,38.98181279688336 0 0,0 -0.6636601246565612,0.08592409007536946 l -2.155681157791874 -17.85213237145914" fill="#ffd513" stroke="none" /><path d="M 102.51750503828377 120.84855314841334 l 1.1891184073758705 9.847606236702214 a30.919140647248454,30.919140647248454 0 0,0 -0.5274865736792641,0.05910597081246639 l -1.019895932095807 -9.866567968021652" fill="#ff6809" stroke="none" /><path d="M 102.15924093988457 120.88869738790638 l 1.6484588057461558 15.94734358431619 a37.03231685784911,37.03231685784911 0 0,0 -0.632900699483167,0.05993635426543252 l -1.3744585428779736 -15.973291694086805" fill="#ffbb11" stroke="none" /><path d="M 101.80034050326958 120.92268563240118 l 0.8820613473148214 10.250889898240994 a31.28876940777108,31.28876940777108 0 0,0 -0.5355311352610004,0.04145349680481163 l -0.7059612172785852 -10.26452116204086" fill="#ff6d0a" stroke="none" /><path d="M 101.44090949804482 120.95050786540614 l 1.3036285924466386 18.954473627025923 a39.999250458496135,39.999250458496135 0 0,0 -0.6854264851408532,0.04123355528196349 l -0.9780577551733203 -18.974059160132576" fill="#ffe215" stroke="none" /><path d="M 101.08105385017728 120.97215588758144 l 2.030962043883712 39.40012107547216 a60.45243145340426,60.45243145340426 0 0,0 -1.036828977074303,0.04452589747607985 l -1.3543073062085793 -39.42917954137407" fill="#33ff2f" stroke="none" /><line stroke="#e1ed5e" stroke-width="0.3" x1="101.45913802915013" x2="101.54496967792366" y1="184.9874750549273" y2="189.98673829345242" /><path d="M 101.47630435890484 185.9873277026323 a86.0,86.0 0 0,1 -42.54439059252881,-10.42667462771756" fill="none" id="id19" stroke="none" /><text fill="#e1ed5e" style="font-size:6.75px; font-family:Arial;" text-anchor="middle"><textPath startOffset="22.145653131862474" xlink:href="#id19">July</textPath></text><path d="M 100.36049292484886 120.99690560180557 l 0.25057065035560283 14.594484189406787 a35.596635037078386,35.596635037078386 0 0,0 -0.6110635752044533,0.00524524586603304 l -1.787572237648015e-15 -14.596635037078386" fill="#ffa80f" stroke="none" /><path d="M 100.0 121.0 l 3.106803391526375e-15 25.368974905168187 a46.36897490516819,46.36897490516819 0 0,0 -0.7959851136098622,-0.0068325748678261964 l 0.435492188761007 -25.365236728494796" fill="#cdff1d" stroke="none" /><path d="M 99.63950707515114 120.99690560180557 l -0.44768130558844055 26.07519167560593 a47.07903448118741,47.07903448118741 0 0,0 -0.8079360577821099,-0.020809566901964026 l 0.8952306774412943 -26.063664391353917" fill="#c5ff1e" stroke="none" /><path d="M 99.27912038922189 120.98762331915562 l -0.627732536637988 18.275747887938845 a39.28652533974279,39.28652533974279 0 0,0 -0.6738092563275111,-0.02893626868949632 l 0.9413675535663378 -18.26227905082352" fill="#ffd814" stroke="none" /><path d="M 98.91894614982273 120.97215588758144 l -1.319025414123229 25.588740653518773 a46.62271406928133,46.62271406928133 0 0,0 -0.7989260465116639,-0.048061407049755166 l 1.7580958127673392 -25.562327268644328" fill="#caff1d" stroke="none" /><path d="M 98.55909050195518 120.95050786540614 l -2.742515453665942 39.87557279689675 a60.969772289746764,60.969772289746764 0 0,0 -1.04354412106803,-0.08077691480494552 l 3.4266285695092087 -39.822618115096745" fill="#30ff31" stroke="none" /><path d="M 97.84075906011543 120.88869738790638 l -2.705871219317663 26.176849478406748 a47.31632929704854,47.31632929704854 0 0,0 -0.8072258121507991,-0.09045133596341656 l 3.154832933069261 -26.12654238193636" fill="#c2ff1e" stroke="none" /><path d="M 97.48249496171623 120.84855314841334 l -2.9359594573767303 24.313956023076678 a45.49057605340198,45.49057605340198 0 0,0 -0.7744709444787983,-0.1002707692112581 l 3.3529082237463226 -24.25997365766502" fill="#d8ff1c" stroke="none" /><path d="M 97.12497278360702 120.80226474461374 l -3.6346923216281213 26.298823019346372 a47.548805631813366,47.548805631813366 0 0,0 -0.807593582247988,-0.11868844557808152 l 4.085611009483794 -26.23255350046941" fill="#bfff1e" stroke="none" /><path d="M 96.76829788921471 120.74984581791261 l -2.937730387099609 18.862336470765005 a40.08973538223199,40.08973538223199 0 0,0 -0.6790867034337863,-0.11174345862722974 l 3.2610945935864586 -18.809127013642108" fill="#ffe315" stroke="none" /><path d="M 96.41257539226777 120.69131181640829 l -4.54276543252435 26.201463821864444 a47.59235649925387,47.59235649925387 0 0,0 -0.8037788475590928,-0.14647528130743814 l 4.991879013634501 -26.11962036662564" fill="#bfff1e" stroke="none" /><path d="M 96.05791012581884 120.62667999033965 l -11.826269622543512 61.88003997101897 a84.0,84.0 0 0,0 -1.4140140578761677,-0.2828424133485541 l 12.886780165950636 -61.667908161007546" fill="#4dd2ff" stroke="none" /><path d="M 95.35216902796893 120.47920084513623 l -5.923771602064347 26.101230687908735 a47.7650016517252,47.7650016517252 0 0,0 -0.7980572979119771,-0.1883393493098648 l 6.370961053716212 -25.995695194952642" fill="#bdff1f" stroke="none" /><path d="M 95.00130118170881 120.39639698878247 l -5.927795678399487 24.187429233105263 a45.903222572818294,45.903222572818294 0 0,0 -0.7637306186114298,-0.19413733670567518 l 6.3421315902362965 -24.082106664564325" fill="#d3ff1c" stroke="none" /><path d="M 94.6519064749342 120.30758222061772 l -6.640788431134589 25.216155335154355 a47.075938350780866,47.075938350780866 0 0,0 -0.7797089012787267,-0.21251312825498803 l 7.072678733348011 -25.09844171275522" fill="#c5ff1e" stroke="none" /><path d="M 94.30408787586889 120.21278271476187 l -8.367240028327858 29.692383051054925 a51.84879765796757,51.84879765796757 0 0,0 -0.8546162942551176,-0.24876634794634173 l 8.875716334964583 -29.544373008806065" fill="#8eff24" stroke="none" /><path d="M 93.95794788825049 120.11202640906438 l -10.170769203899866 33.85518281637312 a56.34993563967329,56.34993563967329 0 0,0 -0.924029913076289,-0.2862668290912412 l 10.750439749847787 -33.67559939947523" fill="#5dff2a" stroke="none" /><path d="M 93.61358852112213 120.00534299687104 l -11.554598254090086 36.19461446050362 a58.99419504026792,58.99419504026792 0 0,0 -0.9621033529555248,-0.3162624819172758 l 12.174224344693355 -35.99093105718432" fill="#42ff2d" stroke="none" /><path d="M 92.93061703081489 119.77432235084164 l -9.217074926722258 25.781798995376178 a48.379839839611776,48.379839839611776 0 0,0 -0.7796315544267085,-0.2862915058077467 l 9.658295632803085 -25.61977664055971" fill="#b6ff1f" stroke="none" /><path d="M 92.59220618246901 119.65005319985036 l -6.721799964651402 17.830373004114705 a40.055308872612116,40.055308872612116 0 0,0 -0.6413193274933942,-0.24807609298272704 l 7.026891554638325 -17.712357022993938" fill="#ffe215" stroke="none" /><path d="M 92.25597844496254 119.51999308798841 l -9.548499594041163 24.068456518577182 a46.89332816931892,46.89332816931892 0 0,0 -0.7457056067655564,-0.3032719784191811 l 9.96025966199716 -23.90099728357871" fill="#c7ff1e" stroke="none" /><path d="M 91.92203290615298 119.3841803445677 l -10.906405141992531 26.171402003399567 a49.35298848348844,49.35298848348844 0 0,0 -0.7792247579353534,-0.33260471359433835 l 11.354064975098314 -25.980322640145825" fill="#aaff21" stroke="none" /><path d="M 91.59046798132341 119.24265499422711 l -13.538455795923971 30.978636320901565 a54.807775638761996,54.807775638761996 0 0,0 -0.8588811610481907,-0.3841666188095236 l 14.068250359827797 -30.74166595118219" fill="#6eff28" stroke="none" /><path d="M 91.26138138417905 119.09545874513695 l -19.17749011766077 41.90627689301667 a67.0859216057047,67.0859216057047 0 0,0 -1.0430624068854784,-0.4882058737308582 l 19.89404123841774 -41.57089478771528" fill="#37ff7b" stroke="none" /><path d="M 90.6110303473126 118.78422872680471 l -9.404034564800234 18.814368642614934 a42.03369519404923,42.03369519404923 0 0,0 -0.6426607284570395,-0.3281471470891471 l 9.725622514970857 -18.65016354385295" fill="#fffb17" stroke="none" /><path d="M 90.28995756902619 118.62028667847754 l -14.146738391140055 27.1282361823865 a51.59528403977809,51.59528403977809 0 0,0 -0.7818188778155473,-0.4162745163133614 l 14.610346084742165 -26.881391198350567" fill="#91ff24" stroke="none" /><path d="M 89.97174638481275 118.45085714620012 l -13.447490417033277 24.741867744929692 a49.16016722293733,49.16016722293733 0 0,0 -0.7380013537261364,-0.40935691043304523 l 13.870235958915517 -24.507377919063497" fill="#adff20" stroke="none" /><line stroke="#e1ed5e" stroke-width="0.3" x1="58.13341422392154" x2="55.67067388415222" y1="173.97424548756322" y2="178.32567169271397" /><path d="M 57.64086615596768 174.84453072859336 a86.0,86.0 0 0,1 -31.369924170532247,-30.572349798747897" fill="none" id="id20" stroke="none" /><text fill="#e1ed5e" style="font-size:6.75px; font-family:Arial;" text-anchor="middle"><textPath startOffset="22.145653131862474" xlink:href="#id20">August</textPath></text><path d="M 89.65649057296885 118.27599006163327 l -15.224530780126619 26.900287102120114 a51.909736065704486,51.909736065704486 0 0,0 -0.7717433614805524,-0.445566237496107 l 15.684066609467571 -26.634973967347836" fill="#8dff24" stroke="none" /><path d="M 89.34428304082925 118.09573695890944 l -12.472187505435393 21.180501064859335 a45.579851230820054,45.579851230820054 0 0,0 -0.6708209036396243,-0.40280867838551787 l 12.833941165632444 -20.963278385937897" fill="#d7ff1c" stroke="none" /><path d="M 89.03521579738668 117.91015095944536 l -20.25066595115496 33.07794093458238 a59.78452846093385,59.78452846093385 0 0,0 -0.8706787307974252,-0.543367923138093 l 20.8155088107421 -32.72543721460274" fill="#3aff2e" stroke="none" /><path d="M 88.4268655584334 117.5232005979908 l -15.695686335025597 23.765269604399915 a49.48056545957829,49.48056545957829 0 0,0 -0.704753371238998,-0.474189520313242 l 16.101335994361598 -23.492330410029552" fill="#a9ff21" stroke="none" /><path d="M 88.1277618465304 117.32195027204791 l -16.904911492791882 24.664771077384053 a50.901955870459176,50.901955870459176 0 0,0 -0.7165175249601953,-0.5001848799775142 l 17.325824108925843 -24.37094138160141" fill="#99ff23" stroke="none" /><path d="M 87.83215693770417 117.11559508785305 l -17.051407129790068 23.984939534267134 a50.42835043913107,50.42835043913107 0 0,0 -0.7012398068449159,-0.5076435420838594 l 17.460627947008938 -23.68869522081021" fill="#9eff22" stroke="none" /><path d="M 87.54013794807813 116.9041958592261 l -18.144205100966428 24.61609891494721 a51.580459521341425,51.580459521341425 0 0,0 -0.7082414920756193,-0.5314776193046172 l 18.564099581952814 -24.30100226837858" fill="#91ff24" stroke="none" /><path d="M 87.2517909369889 116.68781488649013 l -18.170095448883433 23.785238210488174 a50.93142036975862,50.93142036975862 0 0,0 -0.6902178925160031,-0.5367176079660426 l 18.575723286034666 -23.469819550901338" fill="#98ff23" stroke="none" /><path d="M 86.96720088162412 116.46651593811092 l -26.740494346564553 33.78574106385385 a64.08747308827046,64.08747308827046 0 0,0 -0.8567861285433247,-0.690166256446726 l 27.31653124546314 -33.32172651361371" fill="#34ff57" stroke="none" /><path d="M 86.40962598614128 116.0094264158162 l -19.693935011245504 23.199405923552 a51.43129164910522,51.43129164910522 0 0,0 -0.6681672259131822,-0.5771469358109416 l 20.089281716921548 -22.857914855276338" fill="#93ff23" stroke="none" /><path d="M 86.13680546590413 115.77377054828092 l -21.84577801094961 24.856485202302874 a54.09203640630161,54.09203640630161 0 0,0 -0.6922105691769861,-0.6189789593402429 l 22.269253606949963 -24.47781071307925" fill="#75ff27" stroke="none" /><path d="M 85.86807049272751 115.53346607816431 l -15.121200678240273 16.62084838985967 a43.47005365259093,43.47005365259093 0 0,0 -0.5476610493266711,-0.5069068911520453 l 15.404291498880912 -16.358823752575248" fill="#f1ff19" stroke="none" /><path d="M 85.60350026404147 115.28858382429668 l -22.456003779618246 23.847497825175925 a53.75630104685203,53.75630104685203 0 0,0 -0.666392581933466,-0.6383890190822007 l 22.862068847417028 -23.45849667578814" fill="#79ff26" stroke="none" /><path d="M 85.34317274990678 115.03919595460226 l -24.033162007344924 24.66014142555061 a55.434219189629445,55.434219189629445 0 0,0 -0.6757908578015153,-0.6700149022711427 l 24.4529447852764 -24.24394651305081" fill="#67ff28" stroke="none" /><path d="M 85.08716467003676 114.78537596483092 l -19.88770374844338 19.717724395917223 a49.00552473600875,49.00552473600875 0 0,0 -0.5871636590528713,-0.6024816404833642 l 20.22325420864706 -19.373420063366122" fill="#aeff20" stroke="none" /><path d="M 84.58840730492382 114.26474011684316 l -22.408453621801776 20.740930133551966 a51.53399706106826,51.53399706106826 0 0,0 -0.5953460081820461,-0.6543895522622933 l 22.761197330825702 -20.353203005732" fill="#92ff23" stroke="none" /><path d="M 84.3458050057657 113.99807769240083 l -24.411306185910863 21.828740519025285 a53.74760727670384,53.74760727670384 0 0,0 -0.6091112319311504,-0.6930567689310201 l 24.782428481800604 -21.406471472282963" fill="#79ff26" stroke="none" /><path d="M 84.1078160697243 113.72728997021213 l -22.79535787120589 19.69008720548906 a51.121883650198775,51.121883650198775 0 0,0 -0.5679530180642024,-0.6690472271820787 l 23.130005452777205 -19.29587319585743" fill="#96ff23" stroke="none" /><path d="M 83.8745106332314 113.45245675266167 l -24.78229152682406 20.674269004417912 a53.27363277022794,53.27363277022794 0 0,0 -0.5798027723975598,-0.707265107712944 l 25.13354111846025 -20.24580161500647" fill="#7eff26" stroke="none" /><path d="M 83.64595745247003 113.17365903436017 l -23.088259196354496 18.598267276468782 a50.64731452265141,50.64731452265141 0 0,0 -0.5395954503129653,-0.6817612242778055 l 23.40412107730902 -18.199186108276294" fill="#9cff22" stroke="none" /><path d="M 83.4222238831116 112.89097897827486 l -19.89512802654633 15.470571888048502 a46.20227596341144,46.20227596341144 0 0,0 -0.4814893683963702,-0.6302850392472095 l 20.157769372296997 -15.126765935560421" fill="#cfff1d" stroke="none" /><path d="M 82.98947788004972 112.3143062007846 l -21.893159736093246 15.848959296596174 a48.027762652784574,48.027762652784574 0 0,0 -0.4777273556930163,-0.6719833532180416 l 22.162002190316223 -15.470798716668629" fill="#baff1f" stroke="none" /><path d="M 82.78059297857968 112.02048342749411 l -27.341905053945652 19.086773207011504 a54.344934899244755,54.344934899244755 0 0,0 -0.5274312135509096,-0.7695379030435594 l 27.665526004311886 -18.61460056889789" fill="#73ff27" stroke="none" /><path d="M 82.576782715395 111.72311816256416 l -27.99841373987815 18.83858229369449 a54.74616059325412,54.74616059325412 0 0,0 -0.5179392463238459,-0.7842260328634288 l 28.317677425122724 -18.355176382492" fill="#6eff28" stroke="none" /><path d="M 82.37810715431573 111.42229804090323 l -28.55219285075849 18.507186448054114 a55.02563249683894,55.02563249683894 0 0,0 -0.5069755426301831,-0.7970497594140614 l 28.865686085014563 -18.01432301396138" fill="#6bff28" stroke="none" /><path d="M 82.18462484594161 111.11811171558189 l -25.738128990822734 16.06249607406311 a51.33900235798011,51.33900235798011 0 0,0 -0.46017356746054167,-0.7516589390606062 l 26.01007052273868 -15.618300018877948" fill="#94ff23" stroke="none" /><path d="M 81.99639281039703 110.81064883170644 l -20.910855656130305 12.556368003822932 a45.39111030106963,45.39111030106963 0 0,0 -0.39539178097452593,-0.6714616849945471 l 21.123321147234602 -12.195555150534826" fill="#d9ff1c" stroke="none" /><line stroke="#e1ed5e" stroke-width="0.3" x1="26.387840678322732" x2="22.057713659400548" y1="142.50000000000003" y2="145.00000000000006" /><path d="M 25.521815274538298 143.00000000000003 a86.0,86.0 0 0,1 -11.493303480769221,-40.785679425670985" fill="none" id="id21" stroke="none" /><text fill="#e1ed5e" style="font-size:6.75px; font-family:Arial;" text-anchor="middle"><textPath startOffset="21.40746469413373" xlink:href="#id21">September</textPath></text><path d="M 81.63589988554817 110.18625677009913 l -20.86236411740047 11.572001699332228 a44.856853520452916,44.856853520452916 0 0,0 -0.3677293302461877,-0.6765805494353294 l 21.057938797261986 -11.212166316422312" fill="#e0ff1b" stroke="none" /><path d="M 81.4637452351635 109.86951160357371 l -19.717321166735104 10.498362938755081 a43.33804777472746,43.33804777472746 0 0,0 -0.3440048985916773,-0.6596747517956272 l 19.89463413430173 -10.158341943854952" fill="#f2ff19" stroke="none" /><path d="M 81.29705330413844 109.54985784667822 l -29.119066267533945 14.868402717764486 a53.69540364746488,53.69540364746488 0 0,0 -0.41212522952520014,-0.8245265307969551 l 29.370011410270884 -14.366344330803777" fill="#7aff26" stroke="none" /><path d="M 81.1358732173502 109.22738970284198 l -30.73701279988898 15.035013211779187 a55.21718249854762,55.21718249854762 0 0,0 -0.40918756732318773,-0.8550446390341521 l 30.99057962517208 -14.50515607067993" fill="#69ff28" stroke="none" /><path d="M 80.83023694016515 108.57439118712176 l -52.03407325656593 23.27417912096986 a78.00203674803787,78.00203674803787 0 0,0 -0.536231011432573,-1.2270014939340461 l 52.425938150015476 -22.37751555725996" fill="#45fff2" stroke="none" /><path d="M 80.5471966667186 107.91128576633889 l -25.394378030271856 10.327672470332317 a48.41414332418239,48.41414332418239 0 0,0 -0.3064876363760366,-0.7725490562100084 l 25.567924341614017 -9.890222396908744" fill="#b5ff1f" stroke="none" /><path d="M 80.41425534168474 107.57618678355246 l -17.260452016730234 6.676713636812089 a39.506801690455305,39.506801690455305 0 0,0 -0.23924061693589938,-0.6346141599176263 l 17.37252331748057 -6.379431196700318" fill="#ffdb14" stroke="none" /><path d="M 80.28708602549918 107.23885506374661 l -20.816359049722333 7.644055379674821 a43.175490676296036,43.175490676296036 0 0,0 -0.24951286698783814,-0.697931896462093 l 20.944512086754113 -7.285588526831807" fill="#f4ff19" stroke="none" /><path d="M 80.16572619554312 106.89939002012753 l -26.18643537565856 9.10900155330796 a48.72549921970223,48.72549921970223 0 0,0 -0.26802407147808804,-0.7923655425685169 l 26.338944868709017 -8.658134336265281" fill="#b2ff20" stroke="none" /><path d="M 80.05021161711548 106.5578916946017 l -20.944672517943843 6.884929870705551 a43.047257566610085,43.047257566610085 0 0,0 -0.224738015158334,-0.7039886315731644 l 21.059775248879433 -6.5243722054409945" fill="#f6ff19" stroke="none" /><path d="M 79.94057633289273 106.21446072829308 l -21.160505050317585 6.555578555413682 a43.15271053800676,43.15271053800676 0 0,0 -0.21314085422953385,-0.7094765834241931 l 21.269922224550747 -6.191364368398766" fill="#f5ff19" stroke="none" /><path d="M 79.73907114497094 105.5222062557868 l -38.8475348979751 10.588068383757548 a61.264601820315065,61.264601820315065 0 0,0 -0.2678445191149738,-1.017049266019015 l 39.023568897894805 -9.91963861336573" fill="#30ff35" stroke="none" /><path d="M 79.56144815229197 104.8234425847677 l -30.742151777393516 7.255064112925418 a52.58664039094626,52.58664039094626 0 0,0 -0.19980203477954395,-0.8803646311881869 l 30.862164673730728 -6.726265147798205" fill="#86ff25" stroke="none" /><path d="M 79.48165901384964 104.47187691870673 l -14.518598831924491 3.164261041000804 a35.859416542312644,35.859416542312644 0 0,0 -0.1259216887777478,-0.6025808649659996 l 14.570778231526605 -2.9145637247493954" fill="#ffab0f" stroke="none" /><path d="M 79.407916724674 104.11899336999214 l -23.63033113037335 4.72672803209542 a45.098433708863496,45.098433708863496 0 0,0 -0.1453322962545786,-0.7604399855868413 l 23.707989718910085 -4.320385481475264" fill="#ddff1b" stroke="none" /><path d="M 79.34024301695615 103.76489593502545 l -28.580487579550308 5.208316903127538 a50.051176142253404,50.051176142253404 0 0,0 -0.1467814674975716,-0.8465964988689059 l 28.665683864540114 -4.7169273713380395" fill="#a2ff22" stroke="none" /><path d="M 79.22317932658666 103.0534771498775 l -28.134168871885045 4.134753970852962 a49.436378962716574,49.436378962716574 0 0,0 -0.11618839921259987,-0.8406813775160672 l 28.201001787652856 -3.6511842851368095" fill="#aaff21" stroke="none" /><path d="M 79.17382384314188 102.69636545807758 l -36.08084716817265 4.6713880296455725 a57.38199277797395,57.38199277797395 0 0,0 -0.11809190543462929,-0.9779703831415578 l 36.15572115986694 -4.051323969580615" fill="#52ff2b" stroke="none" /><path d="M 79.13060592940153 102.33845913500099 l -32.57841639755408 3.6504795094197675 a53.78230034059712,53.78230034059712 0 0,0 -0.09493243811706721,-0.9183852230171088 l 32.63628122815281 -3.0906897641197273" fill="#79ff26" stroke="none" /><path d="M 79.0935383218832 101.97986365728391 l -31.42575869022187 2.97605202120213 a52.56636176199209,52.56636176199209 0 0,0 -0.07736361000110374,-0.8990824171878271 l 31.47221592292071 -2.4361485566386407" fill="#86ff25" stroke="none" /><path d="M 79.06263194458094 101.62068470465958 l -29.08776231268943 2.2515767668681526 a50.17477530841696,50.17477530841696 0 0,0 -0.05910119955062311,-0.8593184705357355 l 29.122127473405122 -1.7519148721780737" fill="#a1ff22" stroke="none" /><path d="M 79.01933749520258 100.90099992219065 l -28.451697009137103 1.221838289689984 a49.47792042101905,49.47792042101905 0 0,0 -0.029157369140721444,-0.8488849890518175 l 28.468479065274675 -0.7332470360740465" fill="#a9ff21" stroke="none" /><path d="M 79.00696218219943 100.54070618675478 l -31.498319355401605 0.8112849743643008 a52.50876553476027,52.50876553476027 0 0,0 -0.015474004151498653,-0.9012831655077271 l 31.50760479115177 -0.2704548928875213" fill="#87ff25" stroke="none" /><line stroke="#e1ed5e" stroke-width="0.3" x1="15.003131293944662" x2="10.003315487706104" y1="100.72959589197737" y2="100.7725132973878" /><path d="M 14.003168132696942 100.73817937305945 a86.0,86.0 0 0,1 10.791469493833604,-42.45332614584628" fill="none" id="id22" stroke="none" /><text fill="#e1ed5e" style="font-size:6.75px; font-family:Arial;" text-anchor="middle"><textPath startOffset="22.145653131862435" xlink:href="#id22">October</textPath></text><path d="M 79.00077361379809 99.81974689727619 l -53.71641674355667 -0.4610908329267634 a74.71839566222789,74.71839566222789 0 0,0 0.02201904297112537,-1.282498864299744 l 53.700586268986875 1.3831366131955598" fill="#41ffd0" stroke="none" /><path d="M 79.06263194458094 98.37931529534042 l -18.802305681473072 -1.4554173738379903 a39.85855081048446,39.85855081048446 0 0,0 0.058661114765238526,-0.6817310730110964 l 18.77455094401009 1.7779694942247675" fill="#ffe015" stroke="none" /><path d="M 79.0935383218832 98.0201363427161 l -36.84875758675088 -3.4896156549741075 a58.01362388508549,58.01362388508549 0 0,0 0.10240124956612986,-0.9906391986272216 l 36.78342394470309 4.121659375884242" fill="#4cff2c" stroke="none" /><path d="M 79.13060592940154 97.66154086499901 l -47.81463050574243 -5.357729079943724 a69.11386651782155,69.11386651782155 0 0,0 0.1422360534013338,-1.1779185637618066 l 47.71561236608143 6.177741320628966" fill="#3aff92" stroke="none" /><path d="M 79.17382384314186 97.30363454192245 l -31.20275372108189 -4.039821170086498 a52.463184754006846,52.463184754006846 0 0,0 0.12330218317083122,-0.892153174510278 l 31.128807021355854 4.574862652796843" fill="#87ff25" stroke="none" /><path d="M 79.22317932658666 96.9465228501225 l -31.548935569005835 -4.636607081380279 a52.887826215726705,52.887826215726705 0 0,0 0.13972084202376833,-0.8971080347617871 l 31.464693234843796 5.177503298073516" fill="#83ff25" stroke="none" /><path d="M 79.2786578344484 96.59031103205396 l -28.125952230064044 -4.628114736276967 a49.50418626903755,49.50418626903755 0 0,0 0.1451773498227193,-0.8373443743980413 l 28.04236006274909 5.1102521435956" fill="#a9ff21" stroke="none" /><path d="M 79.407916724674 95.88100663000787 l -8.4093485428089 -1.6821052261034277 a29.575932655176732,29.575932655176732 0 0,0 0.10385699897605216,-0.49699333675726276 l 8.379233833008481 1.8262150141460995" fill="#ff5407" stroke="none" /><path d="M 79.48165901384962 95.52812308129327 l -3.2198665422004304 -0.7017549265362719 a24.2954514905396,24.2954514905396 0 0,0 0.09231014964275132,-0.4067355516916224 l 3.2073455310000174 0.7569248121669025" fill="#ff0701" stroke="none" /><path d="M 79.64726062577567 94.8264132398404 l -12.904606990134036 -3.280300633818973 a34.315001082164784,34.315001082164784 0 0,0 0.15002276502571196,-0.5696608747481733 l 12.846394744303598 3.5013420129399306" fill="#ff970d" stroke="none" /><path d="M 79.73907114497095 94.47779374421319 l -44.37493867190774 -12.094586861615712 a66.9936323145796,66.9936323145796 0 0,0 0.3119399232914572,-1.1069647410530552 l 44.160780256541706 12.85455952657178" fill="#37ff7a" stroke="none" /><path d="M 79.94057633289273 93.78553927170692 l -8.271203485541859 -2.5624399828050066 a29.65903607595658,29.65903607595658 0 0,0 0.15484175476000392,-0.48503959139750674 l 8.225997015004596 2.7040486078939048" fill="#ff5607" stroke="none" /><path d="M 80.05021161711548 93.44210830539832 l -8.889696787899727 -2.922219905997102 a30.357674826568854,30.357674826568854 0 0,0 0.1669882861730633,-0.49367119619672184 l 8.838223080154298 3.0743927766679855" fill="#ff6008" stroke="none" /><path d="M 80.16572619554312 93.10060997987247 l -7.826932005749786 -2.7226132451873473 a29.28694681444861,29.28694681444861 0 0,0 0.16925042311112198,-0.47342355608744907 l 7.7790414125947205 2.856571757655718" fill="#ff5007" stroke="none" /><path d="M 80.68587082218212 91.75594674310238 l -13.393556811408681 -5.716912972672367 a35.562639115130935,35.562639115130935 0 0,0 0.24447810258488809,-0.5594137427904834 l 13.293444826806816 5.945988785238717" fill="#ffa70f" stroke="none" /><path d="M 80.83023694016515 91.42560881287825 l -17.350930135905244 -7.760850354868843 a40.007513640971894,40.007513640971894 0 0,0 0.2857975508890198,-0.6245192269384483 l 17.215148120161178 8.057558564021964" fill="#ffe215" stroke="none" /><path d="M 80.9802524753101 91.09779779509293 l -8.74088366915644 -4.091174910255248 a30.650946039846446,30.650946039846446 0 0,0 0.2271391889024674,-0.4746335453350328 l 8.669365222294068 4.240620957655367" fill="#ff6409" stroke="none" /><path d="M 81.46374523516351 90.13048839642627 l -12.195995288126074 -6.493680548760659 a34.817025299873556,34.817025299873556 0 0,0 0.2854244199015821,-0.5251487845965158 l 12.082725518609141 6.702084166831794" fill="#ff9d0e" stroke="none" /><line stroke="#e1ed5e" stroke-width="0.3" x1="26.387840678322718" x2="22.05771365940052" y1="57.49999999999999" y2="54.99999999999999" /><path d="M 25.521815274538284 56.99999999999999 a86.0,86.0 0 0,1 29.574782752854787,-30.34633250058573" fill="none" id="id23" stroke="none" /><text fill="#e1ed5e" style="font-size:6.75px; font-family:Arial;" text-anchor="middle"><textPath startOffset="21.40746469413373" xlink:href="#id23">November</textPath></text><path d="M 82.18462484594161 88.88188828441811 l -37.04902474321317 -23.121331573787618 a64.67180106393884,64.67180106393884 0 0,0 0.5958499693601007,-0.9367751198834053 l 36.64665708222718 23.753920368349693" fill="#34ff5e" stroke="none" /><path d="M 82.78059297857968 87.97951657250589 l -9.013130514754183 -6.291865094289858 a31.99200109355599,31.99200109355599 0 0,0 0.3182212379169744,-0.4476180230676514 l 8.903794178307235 6.44566034406703" fill="#ff770a" stroke="none" /><path d="M 82.98947788004972 87.6856937992154 l -10.423740269855246 -7.545984099447602 a33.86842015332566,33.86842015332566 0 0,0 0.34497079384205,-0.4680191354060182 l 10.292667456429378 7.723809544122484" fill="#ff900d" stroke="none" /><path d="M 83.42222388311158 87.10902102172516 l -37.9183031854359 -29.485501903801392 a69.0332441022019,69.0332441022019 0 0,0 0.7354787670179997,-0.9292533959315152 l 37.406557987776345 30.13207524364759" fill="#3aff91" stroke="none" /><path d="M 83.64595745247003 86.82634096563983 l -16.662947124448603 -13.422490695318142 a42.396660097736564,42.396660097736564 0 0,0 0.4614234056664929,-0.5628615285168336 l 16.43007689954348 13.70655450553347" fill="#feff18" stroke="none" /><path d="M 83.8745106332314 86.54754324733833 l -7.9344590441710094 -6.619207933462244 a31.332935400457927,31.332935400457927 0 0,0 0.34810210334320096,-0.41006340244800193 l 7.819662377320694 6.754438118359802" fill="#ff6d0a" stroke="none" /><path d="M 84.10781606972428 86.27271002978789 l -9.759204545488918 -8.429768448584417 a33.8958547393122,33.8958547393122 0 0,0 0.38413516217252425,-0.43707529983320936 l 9.613058319357803 8.596056026228927" fill="#ff910d" stroke="none" /><path d="M 84.58840730492382 85.73525988315684 l -9.537557067759018 -8.827820434458387 a33.99597662524064,33.99597662524064 0 0,0 0.4000908237793474,-0.42488259013434204 l 9.384610410243397 8.99024448453724" fill="#ff920d" stroke="none" /><path d="M 85.08716467003674 85.21462403516908 l -9.113518820246416 -9.035625965048299 a33.83350154350872,33.83350154350872 0 0,0 0.41245951263967345,-0.4089342388429307 l 8.957067387476766 9.190740214119904" fill="#ff900d" stroke="none" /><path d="M 85.60350026404147 84.71141617570332 l -11.649847124289973 -12.371733933011473 a37.99349106359711,37.99349106359711 0 0,0 0.4786641247274839,-0.4430443678073089 l 11.435753228248537 12.569896046951149" fill="#ffc812" stroke="none" /><path d="M 85.86807049272753 84.46653392183569 l -8.737806171950282 -9.604379621319 a33.98435075808491,33.98435075808491 0 0,0 0.4348944566380185,-0.3888853048180112 l 8.571646688488872 9.75296045602041" fill="#ff920d" stroke="none" /><path d="M 86.13680546590413 84.22622945171909 l -17.482150459917023 -19.89147806928896 a47.48200303006139,47.48200303006139 0 0,0 0.6168602270744452,-0.5328291722077312 l 17.13811075307973 20.188651373961406" fill="#c0ff1e" stroke="none" /><path d="M 86.40962598614128 83.9905735841838 l -8.41845987214535 -9.916924561470974 a34.008299634342215,34.008299634342215 0 0,0 0.44830334239514713,-0.37399059268692086 l 8.246982195588295 10.059977338069778" fill="#ff920d" stroke="none" /><path d="M 86.68645165197937 83.75963576809568 l -8.074118755737635 -9.84911204865413 a33.73563511681684,33.73563511681684 0 0,0 0.45101207479156447,-0.36330340198245026 l 7.903855910590825 9.98626374442998" fill="#ff8f0d" stroke="none" /><path d="M 87.54013794807813 83.09580414077388 l -6.101621671580826 -8.278021647871423 a31.283745884926013,31.283745884926013 0 0,0 0.4350213269063635,-0.3149218927920934 l 5.958619334300495 8.381544312036596" fill="#ff6d0a" stroke="none" /><path d="M 88.72937992617638 82.28071324371311 l -8.213713195414467 -12.913321404690983 a36.30421360793739,36.30421360793739 0 0,0 0.528720514161353,-0.32996070483683976 l 7.990828552463416 13.052417906369358" fill="#ffb110" stroke="none" /><path d="M 89.03521579738668 82.08984904055464 l -2.450237406661616 -4.002278661291866 a25.692749495939033,25.692749495939033 0 0,0 0.3781327268176308,-0.22705783781828554 l 2.381171923286551 4.043750499646075" fill="#ff1c02" stroke="none" /><line stroke="#e1ed5e" stroke-width="0.3" x1="56.869717070023135" x2="54.33264160355391" y1="26.7553504044142" y2="22.446841604673864" /><path d="M 56.362301976729285 25.89364864446614 a86.0,86.0 0 0,1 42.16139366436587,-11.88097634709845" fill="none" id="id24" stroke="none" /><text fill="#e1ed5e" style="font-size:6.75px; font-family:Arial;" text-anchor="middle"><textPath startOffset="22.145653131862474" xlink:href="#id24">December</textPath></text><path d="M 89.65649057296885 81.72400993836675 l -7.139391303453842 -12.614620349940957 a35.49481130463508,35.49481130463508 0 0,0 0.532854550194699,-0.29556543667105456 l 6.921792565103041 12.735318702045157" fill="#ffa60f" stroke="none" /><path d="M 89.97174638481275 81.54914285379989 l -4.765189869123807 -8.767412644667305 a30.978705275268545,30.978705275268545 0 0,0 0.4694176424305851,-0.2499384545404254 l 4.61398341090666 8.847921566930305" fill="#ff6809" stroke="none" /><path d="M 90.28995756902619 81.37971332152246 l -4.698589903557551 -9.010165672372601 a31.161684531878294,31.161684531878294 0 0,0 0.4764366013683357,-0.24327192340386167 l 4.543226080475633 9.089495547449298" fill="#ff6b09" stroke="none" /><path d="M 90.61103034731259 81.2157712731953 l -4.773801741405964 -9.55080132582188 a31.67740553840546,31.67740553840546 0 0,0 0.48849538636105155,-0.23894757228516894 l 4.60914610578286 9.631342648204262" fill="#ff720a" stroke="none" /><path d="M 91.26138138417902 80.90454125486306 l -6.405363404541632 -13.99687502296878 a36.392894164284,36.392894164284 0 0,0 0.5703054143218967,-0.25509035783417017 l 6.164144587364116 14.104769131712796" fill="#ffb210" stroke="none" /><path d="M 92.93061703081487 80.22567764915836 l -1.4146335646859012 -3.956981852355871 a25.2022486245116,25.2022486245116 0 0,0 0.4086295327682347,-0.1421425633277789 l 1.3464982598726623 3.980682848252236" fill="#ff1502" stroke="none" /><path d="M 94.30408787586887 79.78721728523814 l -1.1679553970947005 -4.1446616709540205 a25.30608176609293,25.30608176609293 0 0,0 0.41913932893880673,-0.11423828793207647 l 1.0966346672212162 4.164100453030237" fill="#ff1602" stroke="none" /><path d="M 94.6519064749342 79.69241777938228 l -2.6806480148152345 -10.178857140447297 a31.525920694408057,31.525920694408057 0 0,0 0.5245233246106041,-0.13333177798351123 l 2.505519396979252 10.223374150266071" fill="#ff700a" stroke="none" /><path d="M 97.12497278360702 79.19773525538626 l -0.7417265081550493 -5.366763522363186 a26.41777711961908,26.41777711961908 0 0,0 0.44975910555284565,-0.05823032070480485 l 0.6494895807114096 5.378705439268385" fill="#ff2703" stroke="none" /><path d="M 98.9189461498227 79.02784411241856 l -0.8753431346734497 -16.98142296286636 a38.00396869695969,38.00396869695969 0 0,0 0.6518119295036999,-0.027991608827008387 l 0.5837054445689297 16.9939471401192" fill="#ffc812" stroke="none" /><path d="M 99.27912038922189 79.0123766808444 l -0.5163644267336316 -15.033386881340014 a36.042252269698245,36.042252269698245 0 0,0 0.6185308499477504,-0.015931160614681788 l 0.2582202627151373 15.040035759304741" fill="#ffae10" stroke="none" /><path d="M 99.63950707515114 79.00309439819443 l -0.17834828525056554 -10.387893496717224 a31.389424402246345,31.389424402246345 0 0,0 0.5388412100994151,-0.004625303723555344 l 2.544675067838878e-15 10.389424402246345" fill="#ff6e0a" stroke="none" /></svg>