<?xml version="1.0" encoding="utf-8" ?>
<svg baseProfile="full" height="200mm" version="1.1" viewBox="0,0,200,200" width="200mm" xmlns="http://www.w3.org/2000/svg" xmlns:ev="http://www.w3.org/2001/xml-events" xmlns:xlink="http://www.w3.org/1999/xlink"><defs /><rect fill="#1a1a1a" height="200" width="200" x="0" y="0" /><text alignment-baseline="middle" fill="#e1ed5e" style="dominant-baseline: central; font-size:9.0px; font-family:Arial;" text-anchor="middle" x="100.0" y="100.0">2025</text><line stroke="#e1ed5e" stroke-width="0.3" x1="100.0" x2="100.0" y1="15.0" y2="10.0" /><path d="M 100.0 14.0 a86.0,86.0 0 0,1 42.46469731375804,11.215312516191453" fill="none" id="id25" stroke="none" /><text fill="#e1ed5e" style="font-size:6.75px; font-family:Arial;" text-anchor="middle"><textPath startOffset="22.20632615414155" xlink:href="#id25">January</textPath></text><path d="M 100.0 79.0 l 0.0 -7.133464517091991 a28.13346451709199,28.13346451709199 0 0,0 0.4842713446302421,0.004168276353152427 l -0.1227908653577137 7.132407617347397" fill="#ff3d05" stroke="none" /><path d="M 101.08401301168833 79.027996857942 l 0.2174675109484555 -4.207264372042264 a25.21288091625841,25.21288091625841 0 0,0 0.43322687107969204,0.026133427954793752 l -0.2898564308677595 4.202897674707166" fill="#ff1202" stroke="none" /><path d="M 101.80526077348638 79.07773832637324 l 1.3853996696152784 -16.056236769754236 a37.11589499379349,37.11589499379349 0 0,0 0.6360513330392035,0.060400738154510254 l -1.6615761297447262 16.030010487084546" fill="#ffba11" stroke="none" /><path d="M 102.16513564639614 79.11191278185805 l 1.9983682129730778 -19.279202943253836 a40.382495753689426,40.382495753689426 0 0,0 0.6907970033382083,0.07761909226548498 l -2.3299319198210116 19.24194789751775" fill="#ffe515" stroke="none" /><path d="M 103.2404852339499 79.25152402106235 l 0.9585712784800576 -6.137628074114068 a27.212031654143438,27.212031654143438 0 0,0 0.4621779491741618,0.07626332170721754 l -1.0640784337930946 6.120218489467225" fill="#ff3004" stroke="none" /><path d="M 103.59715602781102 79.31037775812273 l 3.5353285599460054 -20.334011602691966 a41.63905462673088,41.63905462673088 0 0,0 0.7050976656156348,0.12885209152040047 l -3.8848213466645407 20.270144029820827" fill="#fff517" stroke="none" /><path d="M 107.08798089147638 80.2323363322302 l 5.210877834004671 -14.532612603444168 a36.438590508291405,36.438590508291405 0 0,0 0.5886006630641943,0.21678659161187627 l -5.460260822841441 14.440762744025967" fill="#ffb110" stroke="none" /><path d="M 108.09893153111575 80.62456947434976 l 8.607231168675181 -20.591458130761897 a43.31798773057136,43.31798773057136 0 0,0 0.6854890906051764,0.2934906543813204 l -8.960404017070672 20.440247948417788" fill="#f4ff19" stroke="none" /><path d="M 109.08828744355905 81.06846463323043 l 9.424593211546478 -19.63208369121926 a42.777090422326054,42.777090422326054 0 0,0 0.6610664264636984,0.3243824244857679 l -9.761130905020607 19.46694610659866" fill="#fbff18" stroke="none" /><line stroke="#e1ed5e" stroke-width="0.3" x1="143.23703022742887" x2="145.7803849466894" y1="26.81831364943548" y2="22.513508569990506" /><path d="M 143.74570117128098 25.957352633546492 a86.0,86.0 0 0,1 28.547481713284135,27.462654790039103" fill="none" id="id26" stroke="none" /><text fill="#e1ed5e" style="font-size:6.75px; font-family:Arial;" text-anchor="middle"><textPath startOffset="19.985693538727396" xlink:href="#id26">February</textPath></text><path d="M 113.34407831869373 83.78471172551755 l 13.497661163972907 -16.40191713342195 a42.24169820304071,42.24169820304071 0 0,0 0.5574746801438252,0.4668690125069205 l -13.77799338107585 16.167146963521212" fill="#fffc17" stroke="none" /><path d="M 113.6212207817346 84.01681056812373 l 10.59536228024558 -12.432636188645334 a37.334997534400316,37.334997534400316 0 0,0 0.48554377876916643,0.4210587803207741 l -10.80779985766151 12.24841241490489" fill="#ffbd11" stroke="none" /><path d="M 113.89432698308785 84.25364557470407 l 5.765359605056672 -6.533846212271238 a29.71381189269257,29.71381189269257 0 0,0 0.3806042340844714,0.34171023930132827 l -5.876974826737134 6.4336369642006135" fill="#ff5407" stroke="none" /><path d="M 114.42810811169701 84.74124197986012 l 8.354927994158903 -8.835934936972738 a33.16053321191121,33.16053321191121 0 0,0 0.41137497868808504,0.39574240356596935 l -8.505786216459406 8.690809446644467" fill="#ff850c" stroke="none" /><path d="M 115.68641384162765 86.03803664274999 l 2.6217053826286576 -2.3334941214306455 a24.50977690573852,24.50977690573852 0 0,0 0.2777869678789295,0.3175585246184619 l -2.661484214085435 2.2880200406092355" fill="#ff0801" stroke="none" /><path d="M 115.9244219780498 86.31012108654704 l 11.96355736579833 -10.284809830942747 a36.77669224214645,36.77669224214645 0 0,0 0.40855295100683053,0.4835978297577814 l -12.138820930292278 10.077353051555859" fill="#ffb610" stroke="none" /><path d="M 117.45458315368197 88.32363383020206 l 2.49059805587389 -1.666103087430986 a23.99649431400593,23.99649431400593 0 0,0 0.22671358150062856,0.34530033855024045 l -2.518908272732443 1.6229846849030716" fill="#ff0000" stroke="none" /><path d="M 117.65298651832404 88.62581576622439 l 9.01309295407645 -5.807322158740494 a31.721979073576897,31.721979073576897 0 0,0 0.29180052140373053,0.4615583488139118 l -9.111721071726135 5.6513161622123755" fill="#ff710a" stroke="none" /><line stroke="#e1ed5e" stroke-width="0.3" x1="172.23445277983987" x2="176.4835382374775" y1="55.19839476539836" y2="52.563006222186495" /><path d="M 173.08426987136738 54.67131705675599 a86.0,86.0 0 0,1 12.851231095245387,41.99856678651699" fill="none" id="id27" stroke="none" /><text fill="#e1ed5e" style="font-size:6.75px; font-family:Arial;" text-anchor="middle"><textPath startOffset="22.20632615414155" xlink:href="#id27">March</textPath></text><path d="M 118.03404312379186 89.2402003453031 l 8.17831621900202 -4.87949615209291 a30.523357542184428,30.523357542184428 0 0,0 0.26532112485756837,0.45351980748783555 l -8.261097018329917 4.737996932251179" fill="#ff6008" stroke="none" /><path d="M 118.56541770881063 90.18545643968196 l 13.488649388900498 -7.130727628842689 a36.25748796012719,36.25748796012719 0 0,0 0.2869358322039902,0.5542686979770455 l -13.609394654264603 6.897486208605299" fill="#ffaf10" stroke="none" /><path d="M 118.73160827565052 90.50648371742162 l 4.982686439090713 -2.525315186202156 a26.586088160775994,26.586088160775994 0 0,0 0.20337089798888597,0.4099833204851855 l -5.025417350033008 2.4391722772180207" fill="#ff2703" stroke="none" /><path d="M 118.89224826269711 90.83032412892265 l 16.719882253484755 -8.115280867325717 a39.58526960057285,39.58526960057285 0 0,0 0.29225579505399224,0.6155652389038582 l -16.857096242380504 7.826273212781319" fill="#ffdb14" stroke="none" /><path d="M 119.47837535516314 92.15188598940014 l 13.828499033338046 -5.571698616041886 a35.90876289244129,35.90876289244129 0 0,0 0.22606524143568504,0.5753113813392001 l -13.922357824655432 5.332838229806902" fill="#ffaa0f" stroke="none" /><path d="M 119.85752413597 93.16781622104841 l 10.080671566734328 -3.468357902404555 a31.660649406839063,31.660649406839063 0 0,0 0.17287122580625572,0.5168629616957674 l -10.138880086312355 3.2943218377864736" fill="#ff700a" stroke="none" /><path d="M 120.18372546131832 94.20196356495316 l 15.075158853462122 -4.330534542000424 a36.684831649609,36.684831649609 0 0,0 0.1691227153918067,0.6084243904541666 l -15.147468339420293 4.070398848127306" fill="#ffb410" stroke="none" /><path d="M 120.37134235888165 94.90015583598534 l 21.89907853232134 -5.482303811052763 a43.574881962957434,43.574881962957434 0 0,0 0.17589146299834427,0.7291836690705433 l -21.9902027955805 5.104534910322813" fill="#f1ff19" stroke="none" /><path d="M 120.45610955862082 95.25157060432595 l 15.139350317215715 -3.514262370939373 a36.541877880075496,36.541877880075496 0 0,0 0.13695480469752502,0.6139415353204725 l -15.197599508915278 3.253142666068937" fill="#ffb310" stroke="none" /><path d="M 120.53481517161879 95.60439243477599 l 7.974121151741027 -1.7069112610786932 a29.15476266949817,29.15476266949817 0 0,0 0.10082092345191054,0.4916386285736903 l -8.002321371107934 1.5693969763415911" fill="#ff4c07" stroke="none" /><path d="M 120.6074358757038 95.95851677861258 l 12.546196681165092 -2.4605314161834637 a33.78519714406093,33.78519714406093 0 0,0 0.107009425266662,0.5716486286920982 l -12.586691830341612 2.2442047100288027" fill="#ff8d0d" stroke="none" /><path d="M 120.73433829027371 96.67025291283417 l 6.698673665823795 -1.0757463688684124 a27.78450139150511,27.78450139150511 0 0,0 0.07176883115317732,0.472866926622255 l -6.716198390416272 0.9602803298540753" fill="#ff3805" stroke="none" /><path d="M 120.78858239683441 97.02765380044208 l 9.009594778439997 -1.288189559444458 a30.101221369286375,30.101221369286375 0 0,0 0.06892319793719273,0.5135578808603084 l -9.030433975435026 1.1329133365194852" fill="#ff5a08" stroke="none" /><path d="M 120.96714384426684 98.82574320788733 l 62.90143153280055 -3.5227703763380056 a84.0,84.0 0 0,0 0.0684255670660141,1.444355573508001 l -62.95275070810006 2.4395036962070047" fill="#4dd2ff" stroke="none" /><line stroke="#e1ed5e" stroke-width="0.3" x1="184.98032266829074" x2="189.97916517819016" y1="98.17113171792111" y2="98.06355123074" /><path d="M 185.9800911702706 98.14961562048488 a86.0,86.0 0 0,1 -9.607161424134198,41.387399972396054" fill="none" id="id28" stroke="none" /><text fill="#e1ed5e" style="font-size:6.75px; font-family:Arial;" text-anchor="middle"><textPath startOffset="21.466115282336823" xlink:href="#id28">April</textPath></text><path d="M 120.99824983174949 100.27111621757518 l 23.618999291061584 0.3049536890937202 a44.62096789430229,44.62096789430229 0 0,0 -0.016526623391246574,0.7679272488715791 l -23.610250604985332 -0.7114707537554141" fill="#e4ff1a" stroke="none" /><path d="M 120.92983693683757 101.71520430193887 l 25.672012932663378 2.1038265684733877 a46.75807318580041,46.75807318580041 0 0,0 -0.07264290547584745,0.8016084086902944 l -25.631995430910454 -2.5454163657122524" fill="#caff1d" stroke="none" /><path d="M 120.89721153311464 102.0752229133903 l 23.780294173548715 2.3615309285599597 a44.89726384561756,44.89726384561756 0 0,0 -0.08299087863747173,0.7683924649249488 l -23.73612099341019 -2.7705197153697" fill="#e1ff1b" stroke="none" /><path d="M 120.8583938346157 102.4346265915055 l 37.46719184589399 4.373233255653144 a58.7215539701823,58.7215539701823 0 0,0 -0.12582768111133127,1.0029704214170918 l -37.38636265553581 -5.017521431357631" fill="#45ff2d" stroke="none" /><path d="M 120.81339534386255 102.79330883721812 l 39.13805901134174 5.252611806087783 a60.48895534147138,60.48895534147138 0 0,0 -0.14737975252670496,1.0307736459104924 l -39.04184520779844 -5.925530923978685" fill="#33ff2f" stroke="none" /><path d="M 120.76222939487914 103.15116336523771 l 37.69616004619052 5.721291114189823 a59.12785929266575,59.12785929266575 0 0,0 -0.16138596014419954,1.0049505278728594 l -37.59209233168503 -6.369320871755887" fill="#41ff2d" stroke="none" /><path d="M 120.70491114924044 103.5080841355445 l 4.641884659261316 0.7864859604953868 a25.70804135027953,25.70804135027953 0 0,0 -0.07767936591268967,0.43566713675902663 l -4.627658851009437 -0.8662718479876317" fill="#ff1a02" stroke="none" /><path d="M 120.5718875245553 104.21870165774334 l 48.04479030881779 9.852602794945629 a70.04462924371273,70.04462924371273 0 0,0 -0.252380676376929,1.179038498179549 l -47.86807559371642 -10.678155112541347" fill="#3bff9c" stroke="none" /><path d="M 120.49622156327973 104.57218783832717 l 37.92943168447363 8.461095413464163 a59.861702529648596,59.861702529648596 0 0,0 -0.23300293748605097,1.0037705564364747 l -37.778168181057026 -9.112734627249202" fill="#3aff2e" stroke="none" /><path d="M 120.41448212921028 104.9243191809786 l 24.70282781609711 5.958740861966918 a46.41134185303514,46.41134185303514 0 0,0 -0.1940186049085995,0.7750078820985665 l -24.59659789689345 -6.383076583462881" fill="#ceff1d" stroke="none" /><path d="M 120.32669344350535 105.2749913415812 l 38.03283747618317 9.869922471169708 a60.29264684488261,60.29264684488261 0 0,0 -0.26934138966496735,1.0023195083996759 l -37.85730801017642 -10.523132912744932" fill="#35ff2f" stroke="none" /><path d="M 120.23288151984713 105.62410040840565 l 39.40134281894323 10.952325699252368 a61.895222876986416,61.895222876986416 0 0,0 -0.294171380223771,1.0240491662184148 l -39.20697880183336 -11.628932340975364" fill="#31ff3c" stroke="none" /><path d="M 119.9155931802556 106.66101706037122 l 34.4184618674176 11.511681304973443 a57.292551905124476,57.292551905124476 0 0,0 -0.32086330584302425,0.9325789595640311 l -34.21520773063134 -12.102432967626774" fill="#54ff2b" stroke="none" /><path d="M 119.79798401119884 107.00284435728193 l 11.46739580770447 4.056190164578223 a33.16362796462384,33.16362796462384 0 0,0 -0.19499540336569796,0.5365436028690489 l -11.395876143333545 -4.252981564453402" fill="#ff850c" stroke="none" /><path d="M 119.67450827220406 107.3425965602758 l 35.32478499546031 13.183335573707426 a58.704651859213314,58.704651859213314 0 0,0 -0.36146891904133144,0.9436812849969182 l -35.092621796825476 -13.789440425537487" fill="#45ff2d" stroke="none" /><path d="M 119.54520255179757 107.68017299344265 l 23.557110702886927 9.256628829728424 a46.31052433197363,46.31052433197363 0 0,0 -0.2979252747437645,0.7394260992400726 l -23.39428281388577 -9.66075429681131" fill="#d0ff1d" stroke="none" /><path d="M 119.41010516605496 108.01547362559984 l 32.9190077846004 13.594024165300754 a56.615425963048125,56.615425963048125 0 0,0 -0.37972510458451464,0.8975579782552381 l -32.68013169882358 -14.158656669222156" fill="#5bff2a" stroke="none" /><path d="M 119.12269723197855 108.67885076344098 l 32.56700298235725 14.780559210222462 a56.76415263668019,56.76415263668019 0 0,0 -0.41147356594671136,0.8862774546423281 l -32.30775479957071 -15.338956732143622" fill="#5aff2a" stroke="none" /><path d="M 118.97047184881838 109.00673069616215 l 19.883775466005527 9.44034562094579 a43.01101206726837,43.01101206726837 0 0,0 -0.323292770691597,0.6660788637803087 l -19.718329438699218 -9.781213440691374" fill="#f8ff18" stroke="none" /><path d="M 118.81262510543309 109.33194174019688 l 31.762546070754826 15.755708083876138 a56.455629597020874,56.455629597020874 0 0,0 -0.4393359088951824,0.8668514280586713 l -31.486631492073375 -16.3001137236375" fill="#5dff2a" stroke="none" /><path d="M 118.64920377521936 109.65438752849418 l 21.990109993366726 11.383919990851078 a45.76203892813486,45.76203892813486 0 0,0 -0.36816103311538984,0.6964219295464624 l -21.790896452026445 -11.760756935483675" fill="#d6ff1c" stroke="none" /><line stroke="#e1ed5e" stroke-width="0.3" x1="174.80103733775053" x2="179.2010983576182" y1="140.37084112569926" y2="142.7455964860345" /><path d="M 175.68104954172406 140.8457921977663 a86.0,86.0 0 0,1 -30.038265399797805,32.042727171017184" fill="none" id="id29" stroke="none" /><text fill="#e1ed5e" style="font-size:6.75px; font-family:Arial;" text-anchor="middle"><textPath startOffset="22.206326154141568" xlink:href="#id29">May</textPath></text><path d="M 118.48025628344425 109.97397251340804 l 10.36106867407961 5.591968670769054 a32.773778394545076,32.773778394545076 0 0,0 -0.27221524301986155,0.4941497363433345 l -10.26327702160824 -5.769488925510194" fill="#ff7f0b" stroke="none" /><path d="M 117.55443506779139 111.5257021239791 l 30.15339708816273 19.797793066088577 a57.07187223092372,57.07187223092372 0 0,0 -0.5462509088957985,0.8165709925026314 l -29.80814307385621 -20.313900972797015" fill="#56ff2a" stroke="none" /><path d="M 117.35343817320211 111.8261652097733 l 29.627258899602445 20.190630523033242 a56.85297799098024,56.85297799098024 0 0,0 -0.5580772051519859,0.8039518373862213 l -29.275320787288322 -20.697623622606482" fill="#59ff2a" stroke="none" /><path d="M 117.14729908036423 112.12312394758627 l 18.150179398657073 12.832159367466554 a43.228210144667415,43.228210144667415 0 0,0 -0.43479388199941543,0.6038906739496149 l -17.926605724282055 -13.142683646867301" fill="#f5ff19" stroke="none" /><path d="M 116.93607887273984 112.41649034213515 l 31.72924138106331 23.26192633676093 a60.34287706198763,60.34287706198763 0 0,0 -0.6213555857075234,0.8324073475338383 l -31.324124528660697 -23.804646563804084" fill="#35ff2f" stroke="none" /><path d="M 116.27256486870786 113.27417163493432 l 19.600339018088246 15.988767986374803 a46.2945446953709,46.2945446953709 0 0,0 -0.509028359679442,0.6131574506695633 l -19.32221465851526 -16.323786694158137" fill="#d0ff1d" stroke="none" /><path d="M 116.0416608686014 113.55231037782055 l 29.182288312380244 24.65377070266559 a59.202282143957014,59.202282143957014 0 0,0 -0.6643552970346479,0.772795300836151 l -28.75359050577482 -25.15244310266327" fill="#40ff2d" stroke="none" /><path d="M 115.80600337817218 113.82643327865902 l 27.589200420096063 24.1338831640894 a57.65526287449248,57.65526287449248 0 0,0 -0.6598539144325226,0.7413528679282585 l -27.1696876560152 -24.605210201758528" fill="#50ff2b" stroke="none" /><path d="M 115.56566222782051 114.09645910891815 l 26.515242731520647 24.012536662904008 a56.77233587702609,56.77233587702609 0 0,0 -0.6622184571214706,0.718707345471645 l -26.097977866403458 -24.46539526317699" fill="#5aff2a" stroke="none" /><path d="M 115.32070863581623 114.36230785411682 l 14.257878128628997 13.365963670318108 a40.54318483684531,40.54318483684531 0 0,0 -0.48167900014402915,0.5050385059237495 l -14.025692577106003 -13.609409292824363" fill="#ffe715" stroke="none" /><path d="M 114.29624159901734 115.38237550388516 l 25.65787130430668 27.607186707052676 a58.68929712460064,58.68929712460064 0 0,0 -0.7459142782870951,0.6813750077584235 l -25.17885747655272 -28.044754481397685" fill="#46ff2d" stroke="none" /><path d="M 114.0293411484842 115.62618273729858 l 24.38831992843013 27.16423671103936 a57.5059708133456,57.5059708133456 0 0,0 -0.7422587210708523,0.6549570204033551 l -23.91711885445269 -27.580016873215005" fill="#52ff2b" stroke="none" /><path d="M 113.75828350139079 115.86535959552629 l 22.64350746237295 26.11135236152201 a55.561989994010766,55.561989994010766 0 0,0 -0.7279534113063344,0.6203776897272477 l -22.190688574489567 -26.497254441472204" fill="#66ff29" stroke="none" /><path d="M 113.48314897796784 116.09983520530334 l 14.556957200211496 17.382038305519195 a43.67245594511821,43.67245594511821 0 0,0 -0.5804898578142136,0.4777036334327853 l -14.25559721385259 -17.63003705780916" fill="#f0ff19" stroke="none" /><path d="M 112.63410532772338 116.77436683061366 l 25.196719325748774 33.45381425392029 a62.88116943109829,62.88116943109829 0 0,0 -0.8702006149682809,0.6437536113950043 l -24.61713374036193 -33.88257781405506" fill="#32ff48" stroke="none" /><path d="M 112.34349029814194 116.9893568818739 l 24.308682328629832 33.4580308676032 a62.35640054564382,62.35640054564382 0 0,0 -0.8737992673472323,0.6234325764427703 l -23.729155733433714 -33.87150770589019" fill="#31ff42" stroke="none" /><path d="M 112.04921762599082 117.19931262002967 l 19.651401518370054 28.05083355844683 a55.24947948451018,55.24947948451018 0 0,0 -0.7836036710776481,0.538969750246961 l -19.165640962669524 -28.384944098058885" fill="#6aff28" stroke="none" /><path d="M 111.7513745106137 117.40417183066458 l 21.555861386282224 31.92493909423119 a59.52086312993238,59.52086312993238 0 0,0 -0.8540543816135351,0.5660206739714418 l -21.003132305928723 -32.29125778929395" fill="#3dff2e" stroke="none" /><path d="M 111.45004920935366 117.60387380957326 l 18.27777947120896 28.101165108314312 a54.522420897705004,54.522420897705004 0 0,0 -0.79114161161845,0.5049440081047075 l -17.791356057543577 -28.411623545242826" fill="#72ff27" stroke="none" /><line stroke="#e1ed5e" stroke-width="0.3" x1="143.8653032363475" x2="146.44561519142675" y1="172.8068346515853" y2="177.08958963109032" /><path d="M 144.38136562736335 173.6633856474863 a86.0,86.0 0 0,1 -40.68145358897372,12.25698825130547" fill="none" id="id30" stroke="none" /><text fill="#e1ed5e" style="font-size:6.75px; font-family:Arial;" text-anchor="middle"><textPath startOffset="21.466115282336833" xlink:href="#id30">June</textPath></text><path d="M 110.5260780823613 118.17145234162733 l 8.781304217792123 15.159402185922682 a38.5190975338335,38.5190975338335 0 0,0 -0.5765964669925314,0.32740652220177213 l -8.519058983878393 -15.30831187391908" fill="#ffcd13" stroke="none" /><path d="M 110.21172684928248 118.3499491758327 l 7.60254973195666 13.661391775079393 a36.63433361736538,36.63433361736538 0 0,0 -0.5536619901212028,0.3019006618588753 l -7.3662649299668095 -13.79023308869804" fill="#ffb410" stroke="none" /><path d="M 109.89434966115114 118.52300852407294 l 5.902534603339779 11.050013645725356 a33.5276780096848,33.5276780096848 0 0,0 -0.511391442079257,0.2675358326436821 l -5.711452258734027 -11.149978897313755" fill="#ff8a0c" stroke="none" /><path d="M 109.57404056367764 118.69057910512821 l 5.9815888808774975 11.67734347988298 a34.120204125203344,34.120204125203344 0 0,0 -0.5250386015298103,0.26326525442962073 l -5.779696371664927 -11.778576575221901" fill="#ff920d" stroke="none" /><path d="M 109.2508944713604 118.85261126421891 l 5.778346183584234 11.775824995782996 a34.11713912972833,34.11713912972833 0 0,0 -0.5294449260215252,0.25416573880550086 l -5.574788589562476 -11.873545011088057" fill="#ff920d" stroke="none" /><path d="M 108.92500713936063 119.00905698771935 l 5.597919652799758 11.92281104442543 a34.171565117337984,34.171565117337984 0 0,0 -0.5345929893220565,0.24540542126741385 l -5.391858667710282 -12.017403536026917" fill="#ff930d" stroke="none" /><path d="M 108.2653958097858 119.30500536409082 l 7.208506162828515 16.836489545452583 a39.314746553356144,39.314746553356144 0 0,0 -0.6244090494365759,0.2610030333055621 l -6.917625653894478 -16.958077621778116" fill="#ffd714" stroke="none" /><path d="M 107.93186726928326 119.44442032107085 l 4.890056572831572 11.987633197566637 a33.946659915394974,33.946659915394974 0 0,0 -0.5429508383026465,0.21605134378888324 l -4.682984658487059 -12.07003138576159" fill="#ff8f0d" stroke="none" /><path d="M 107.59598834532513 119.57807347666477 l 5.735417316121333 14.782595302883221 a36.85623333830861,36.85623333830861 0 0,0 -0.5934376210614329,0.22438732984671836 l -5.480109474299625 -14.87913088283657" fill="#ffb711" stroke="none" /><path d="M 107.2578585660854 119.70592522655815 l 4.537640853076104 12.320219599418552 a34.12928008267789,34.12928008267789 0 0,0 -0.5530250677106892,0.19829511359159246 l -4.32489622473568 -12.396502254050105" fill="#ff920d" stroke="none" /><path d="M 106.91757812671514 119.82793768551818 l 5.206396243316344 14.92315639774537 a36.80528894750068,36.80528894750068 0 0,0 -0.5999792568914493,0.2035455392721073 l -4.948747253487667 -15.0105649239156" fill="#ffb610" stroke="none" /><path d="M 105.88484417918355 120.15858648285463 l 5.145804423594962 17.626999175921508 a39.362744977639565,39.362744977639565 0 0,0 -0.6520510531222748,0.18427614077428073 l -4.841622202368081 -17.71296411003431" fill="#ffd814" stroke="none" /><path d="M 105.53697534728816 120.25689768951611 l 4.156670180739402 15.207082802263105 a36.76493813328598,36.76493813328598 0 0,0 -0.6118903450965465,0.16160580152480195 l -3.8942893928313587 -15.276379953091492" fill="#ffb610" stroke="none" /><path d="M 105.18746579009965 120.34920634021253 l 3.9045803696426384 15.31674903098975 a36.806598265956026,36.806598265956026 0 0,0 -0.615277877192385,0.1512203325775092 l -3.6403492077070423 -15.381690621881287" fill="#ffb610" stroke="none" /><path d="M 104.83641907484287 120.43548508189849 l 3.617534703320704 15.285291724924024 a36.70753642191418,36.70753642191418 0 0,0 -0.6161269978167802,0.14022849876581306 l -3.353887556111062 -15.34529695726752" fill="#ffb510" stroke="none" /><path d="M 104.48393922423573 120.51570834832081 l 3.3563274124763316 15.356460217762024 a36.71896320116081,36.71896320116081 0 0,0 -0.6186420337157692,0.1296424531089663 l -3.091493917331184 -15.411958651597532" fill="#ffb510" stroke="none" /><path d="M 104.13013068566511 120.58985236759428 l 1.984843970685743 9.895000289209454 a31.092107624843422,31.092107624843422 0 0,0 -0.5256526256210219,0.10074257676406204 l -1.8142237304930169 -9.927700064321984" fill="#ff6809" stroke="none" /><path d="M 103.41894727170886 120.7198165907248 l 3.0052949790064307 18.2129631776731 a39.459247699245964,39.459247699245964 0 0,0 -0.6711156251027997,0.10481445845113153 l -2.6913434902951137 -18.261995943471337" fill="#ffd914" stroke="none" /><path d="M 103.06178313531738 120.77559828337769 l 2.300406940792234 15.60931273639641 a36.77791228888893,36.77791228888893 0 0,0 -0.6271008984042685,0.08691047036243164 l -2.031377451201135 -15.646597772251443" fill="#ffb610" stroke="none" /><path d="M 102.70371172650421 120.8252237178851 l 2.0336186974153607 15.6638608751779 a36.795320272897484,36.795320272897484 0 0,0 -0.6288014955230719,0.07613910418286364 l -1.7636897788409085 -15.696545508086114" fill="#ffb610" stroke="none" /><path d="M 102.34483914955558 120.86867818915974 l 1.7657664435955944 15.71502747879209 a36.8139185464109,36.8139185464109 0 0,0 -0.6303373857383722,0.06533704732585728 l -1.4949964612516198 -15.743093894573706" fill="#ffb610" stroke="none" /><path d="M 101.98527174616119 120.90594882070398 l 1.491921685538219 15.710714899696155 a36.78139388569064,36.78139388569064 0 0,0 -0.6308108575865714,0.05442901510623021 l -1.221266510210106 -15.734068167081048" fill="#ffb610" stroke="none" /><path d="M 100.90346689309514 120.98055641714683 l 0.9081350122032413 21.088960761631334 a42.108504807447055,42.108504807447055 0 0,0 -0.724425990873366,0.024950695871183936 l -0.5449886696552231 -21.101468255928612" fill="#fffb17" stroke="none" /><line stroke="#e1ed5e" stroke-width="0.3" x1="102.19456741930631" x2="102.32365962044197" y1="184.97166512339345" y2="189.96999836594603" /><path d="M 102.22038585953345 185.97133177190398 a86.0,86.0 0 0,1 -42.740103519485714,-10.115201625700543" fill="none" id="id31" stroke="none" /><text fill="#e1ed5e" style="font-size:6.75px; font-family:Arial;" text-anchor="middle"><textPath startOffset="22.20632615414155" xlink:href="#id31">July</textPath></text><path d="M 100.54218724476979 120.99299961872073 l 0.40847970897063124 15.815964793337287 a36.82123882686578,36.82123882686578 0 0,0 -0.6337466657199288,0.01091052358141242 l -0.1361733533580346 -15.820652794197859" fill="#ffb610" stroke="none" /><path d="M 100.18074693466247 120.99922214144158 l 0.13605630631164245 15.807054240325959 a36.80763976927277,36.80763976927277 0 0,0 -0.6336064819481849,0.0 l 0.13605630631163154 -15.807054240325959" fill="#ffb610" stroke="none" /><path d="M 99.81925306533755 120.99922214144158 l -0.113600177354154 13.19809580185734 a34.19858468909827,34.19858468909827 0 0,0 -0.5886070026314065,-0.010133403345166502 l 0.3407668698782284 -13.194184921233013" fill="#ff930d" stroke="none" /><path d="M 99.45781275523022 120.99299961872073 l -0.41142454714207477 15.929986263238867 a36.93529831866884,36.93529831866884 0 0,0 -0.6354272184457537,-0.02188539819864551 l 0.6855721172624715 -15.920544066614127" fill="#ffb811" stroke="none" /><path d="M 99.09653310690486 120.98055641714683 l -1.2132031463908814 28.17333679058631 a49.19944623197797,49.19944623197797 0 0,0 -0.8457898627234791,-0.043717674946731754 l 1.6979810775278497 -28.148279308877374" fill="#adff20" stroke="none" /><path d="M 98.37488393609728 120.93702456842531 l -1.6370545874061555 21.09083337350347 a42.154271438908864,42.154271438908864 0 0,0 -0.722957161437546,-0.062379785933917915 l 1.9998560665852432 -21.05952933529089" fill="#fffb17" stroke="none" /><path d="M 98.01472825383883 120.90594882070398 l -1.7211992428973544 18.125127379576977 a39.20666826631499,39.20666826631499 0 0,0 -0.671306662107846,-0.06958368033481162 l 2.032938501610794 -18.092814330786403" fill="#ffd614" stroke="none" /><path d="M 97.65516085044442 120.86867818915974 l -2.071767148528001 18.438382826258376 a39.554411345159394,39.554411345159394 0 0,0 -0.6759520728153673,-0.08184838245637975 l 2.3888466443947576 -18.399988915076648" fill="#ffda14" stroke="none" /><path d="M 97.2962882734958 120.8252237178851 l -2.733883625682133 21.057621478420923 a42.234348165348216,42.234348165348216 0 0,0 -0.7201386927558149,-0.09980466089723858 l 3.095950909624779 -21.00744225203108" fill="#fffc17" stroke="none" /><path d="M 96.93821686468263 120.77559828337769 l -3.088124108873414 20.95433383086998 a42.1806661086791,42.1806661086791 0 0,0 -0.7174010087201839,-0.1120432834651757 l 3.448360981202115 -20.898072240057697" fill="#fffc17" stroke="none" /><path d="M 96.58105272829116 120.7198165907248 l -3.003676853558286 18.20315686601 a39.44930878188039,39.44930878188039 0 0,0 -0.6690434236849235,-0.11632177505418038 l 3.3165692487152594 -18.148756512434815" fill="#ffd914" stroke="none" /><path d="M 95.86986931433489 120.58985236759428 l -4.156058954163794 20.71911201121484 a42.13183448174228,42.13183448174228 0 0,0 -0.7098382278706765,-0.14875350227811793 l 4.512088643463857 -20.644502528210182" fill="#fffb17" stroke="none" /><path d="M 95.51606077576429 120.51570834832081 l -3.9424266587213346 18.0380846996779 a39.463889828314905,39.463889828314905 0 0,0 -0.6623917138600459,-0.1507581975122726 l 4.252338521974243 -17.96754976858794" fill="#ffd914" stroke="none" /><path d="M 95.16358092515715 120.4354850818985 l -4.232327001154747 17.882994412890977 a39.37699869446024,39.37699869446024 0 0,0 -0.6582460023029121,-0.16178085232038644 l 4.53952628820087 -17.80749230225656" fill="#ffd814" stroke="none" /><path d="M 94.81253420990036 120.34920634021253 l -4.559248210189916 17.88485675654301 a39.45683736299863,39.45683736299863 0 0,0 -0.6566924645143207,-0.17343844846316328 l 4.866431117515726 -17.803726958776267" fill="#ffd914" stroke="none" /><path d="M 94.46302465271185 120.25689768951611 l -4.83474914428163 17.68781918419688 a39.33667763748316,39.33667763748316 0 0,0 -0.6516192428760297,-0.18415410688545583 l 5.138499555262273 -17.601976283972903" fill="#ffd714" stroke="none" /><path d="M 94.11515582081647 120.15858648285463 l -6.9693614006016285 23.87360994557187 a45.87008745793838,45.87008745793838 0 0,0 -0.7560373901812896,-0.22778786379234242 l 7.3792737652231635 -23.7501067126738" fill="#d5ff1c" stroke="none" /><path d="M 93.42475214034765 119.94407469862007 l -4.929721529825536 14.952856003733132 a36.74452466827765,36.74452466827765 0 0,0 -0.5989887115612468,-0.20320949251533346 l 5.186379974324009 -14.865783524319674" fill="#ffb510" stroke="none" /><path d="M 93.08242187328487 119.8279376855182 l -7.966455454371986 22.834347430601728 a45.18412361628845,45.18412361628845 0 0,0 -0.7321558779386371,-0.2625250489703747 l 8.35833089294035 -22.693834840591396" fill="#ddff1b" stroke="none" /><path d="M 92.7421414339146 119.70592522655815 l -7.233858046599054 19.640761040994313 a41.93055652647072,41.93055652647072 0 0,0 -0.6751414200806676,-0.2552807155196196 l 7.570869687440005 -19.513332075368062" fill="#fff917" stroke="none" /><path d="M 92.40401165467489 119.57807347666478 l -5.680006295927402 14.639777676597477 a36.703043079033336,36.703043079033336 0 0,0 -0.5870370769226211,-0.23359416797204208 l 5.931164448891881 -14.539836664219369" fill="#ffb510" stroke="none" /><path d="M 92.06813273071674 119.44442032107085 l -6.9403632547891165 17.01381726717036 a39.374945445064355,39.374945445064355 0 0,0 -0.6253651469837791,-0.2614026821578357 l 7.232199861270358 -16.891829541992553" fill="#ffd814" stroke="none" /><path d="M 91.7346041902142 119.30500536409082 l -7.239086610990482 16.907914523685836 a39.39244270078578,39.39244270078578 0 0,0 -0.6210487310933172,-0.27224951277148757 l 7.529056016741542 -16.780800457619893" fill="#ffd814" stroke="none" /><path d="M 91.07499286063937 119.00905698771935 l -9.022543755019642 19.216796775094377 a42.22949773561592,42.22949773561592 0 0,0 -0.6553361118452234,-0.31460115839564406 l 9.351992534865108 -19.05864134019917" fill="#fffc17" stroke="none" /><path d="M 90.7491055286396 118.85261126421891 l -8.136062962158565 16.58067041210434 a39.46927588832439,39.46927588832439 0 0,0 -0.6073496319001461,-0.3045377138062678 l 8.420266501741471 -16.43816485738877" fill="#ffd914" stroke="none" /><path d="M 90.42595943632237 118.69057910512821 l -8.776659082281295 17.133919557272936 a40.25099852064019,40.25099852064019 0 0,0 -0.6139410004073151,-0.3211849147694772 l 9.070290985215106 -16.98030522355874" fill="#ffe315" stroke="none" /><path d="M 90.10565033884886 118.52300852407294 l -8.719907033177401 16.32435863256898 a39.50733539524224,39.50733539524224 0 0,0 -0.5970822389668815,-0.32557684353375976 l 8.999612084012924 -16.171841137275454" fill="#ffda14" stroke="none" /><line stroke="#e1ed5e" stroke-width="0.3" x1="58.666819895761336" x2="56.23545636021788" y1="174.27360380694188" y2="178.64263932499728" /><path d="M 58.180547188652646 175.14741091055294 a86.0,86.0 0 0,1 -31.652253787137756,-30.449443065178592" fill="none" id="id32" stroke="none" /><text fill="#e1ed5e" style="font-size:6.75px; font-family:Arial;" text-anchor="middle"><textPath startOffset="22.20632615414155" xlink:href="#id32">August</textPath></text><path d="M 89.7882731507175 118.34994917583269 l -8.93294818361185 16.052049528835752 a39.370243801520175,39.370243801520175 0 0,0 -0.5893373659819316,-0.33464113716499144 l 9.20793431651499 -15.895905225876128" fill="#ffd814" stroke="none" /><path d="M 89.4739219176387 118.17145234162733 l -9.258334033453233 15.982911615835315 a39.47079350744309,39.47079350744309 0 0,0 -0.5849799569295536,-0.3456164696593923 l 9.532081861411168 -15.821176573882173" fill="#ffd914" stroke="none" /><path d="M 88.8546689885994 117.79835938074946 l -11.10275818557339 17.730373382563165 a41.91978440645174,41.91978440645174 0 0,0 -0.6082724363293073,-0.3882282482796073 l 11.40631242394962 -17.536630705459757" fill="#fff817" stroke="none" /><path d="M 88.24862548938628 117.40417183066458 l -8.851680226983918 13.109629305183178 a36.818173831390766,36.818173831390766 0 0,0 -0.5221923617351144,-0.35916866800558106 l 9.076029473341922 -12.955319847812497" fill="#ffb610" stroke="none" /><path d="M 87.95078237400918 117.19931262002967 l -9.022912639765478 12.879499736131823 a36.725599065150405,36.725599065150405 0 0,0 -0.5146352463453443,-0.36717858385413826 l 9.24327521395971 -12.722276890433466" fill="#ffb510" stroke="none" /><path d="M 87.65650970185807 116.9893568818739 l -10.821913272699739 14.895085773450955 a39.41133854667541,39.41133854667541 0 0,0 -0.5454060627421929,-0.40347836639924545 l 11.076704305860497 -14.706597458311943" fill="#ffd814" stroke="none" /><path d="M 87.07902340077011 116.55440617244103 l -6.637476943392308 8.503961634577816 a31.78765329700746,31.78765329700746 0 0,0 -0.4284408138007776,-0.3403792942790463 l 6.782875249910444 -8.388448426293639" fill="#ff710a" stroke="none" /><path d="M 86.79598089348748 116.32954008644616 l -13.199553594829615 16.32401754429863 a41.99289793928768,41.99289793928768 0 0,0 -0.5581653430394939,-0.45933207761841033 l 13.478589066413798 -16.094390347823037" fill="#fff917" stroke="none" /><path d="M 86.51685102203217 116.09983520530335 l -11.77962715985793 14.065709454336384 a39.346765341036836,39.346765341036836 0 0,0 -0.515507310968598,-0.4393265140997167 l 12.019999947403583 -13.860858550013715" fill="#ffd814" stroke="none" /><path d="M 86.24171649860922 115.8653595955263 l -12.087279412779335 13.93844184094337 a39.449457568068496,39.449457568068496 0 0,0 -0.5091941498815263,-0.4493046342818108 l 12.325415915567449 -13.728314064889268" fill="#ffd914" stroke="none" /><path d="M 85.97065885151581 115.62618273729859 l -12.334242517975701 13.738145325011967 a39.46266978157243,39.46266978157243 0 0,0 -0.501552587806782,-0.4581563972644145 l 12.568894655249338 -13.523796161160977" fill="#ffd914" stroke="none" /><path d="M 85.70375840098266 115.38237550388516 l -10.764236674631887 11.582032200215547 a36.81177602530215,36.81177602530215 0 0,0 -0.4604349730608628,-0.4353700059310288 l 10.962007482083566 -11.395027557538587" fill="#ffb610" stroke="none" /><path d="M 84.9287848128048 114.62390073753433 l -15.229193247814104 14.777190001107577 a42.22012420576516,42.22012420576516 0 0,0 -0.5016021137764335,-0.5259278109157661 l 15.481301912969496 -14.51285507360931" fill="#fffc17" stroke="none" /><path d="M 84.67929136418377 114.36230785411682 l -13.464087674524121 12.621829495815156 a39.45514120045419,39.45514120045419 0 0,0 -0.46022278857556953,-0.49948094189412073 l 13.67935687109542 -12.38819729911969" fill="#ffd914" stroke="none" /><path d="M 84.43433777217949 114.09645910891817 l -11.84240710038735 10.724632527577771 a36.97686917962602,36.97686917962602 0 0,0 -0.42319348928734396,-0.47546237145771275 l 12.025259439323033 -10.519195986379193" fill="#ffb811" stroke="none" /><path d="M 84.19399662182784 113.82643327865904 l -14.022268618544688 12.2660964211538 a39.6301137576684,39.6301137576684 0 0,0 -0.44472062635984233,-0.5173105592290765 l 14.23133175447531 -12.022908762763194" fill="#ffdb14" stroke="none" /><path d="M 83.95833913139862 113.55231037782056 l -16.242680579627436 13.72213578045185 a42.26315317136579,42.26315317136579 0 0,0 -0.4647014821133588,-0.5597628711186782 l 16.47647806163433 -13.440511652219412" fill="#fffd17" stroke="none" /><path d="M 83.72743513129214 113.27417163493432 l -23.88470661835634 19.48369526624537 a51.82358823162656,51.82358823162656 0 0,0 -0.5579230967721557,-0.6960948478211006 l 24.216547627183356 -19.069672584846007" fill="#8fff24" stroke="none" /><path d="M 83.28015986056508 112.70617746262583 l -16.818146985704164 12.780885367968901 a42.123472697970655,42.123472697970655 0 0,0 -0.4337488751720639,-0.5810775005211143 l 17.035657127571316 -12.489494987938478" fill="#fffb17" stroke="none" /><path d="M 83.06392112726016 112.41649034213515 l -18.88772627242126 13.847318060374116 a44.41995775416932,44.41995775416932 0 0,0 -0.44678060473820896,-0.6205391834454005 l 19.12328666953508 -13.520145271477578" fill="#e6ff1a" stroke="none" /><path d="M 82.85270091963577 112.12312394758628 l -15.237418023565446 10.772839878462383 a39.66100177031947,39.66100177031947 0 0,0 -0.38931823457022185,-0.5608419536244157 l 15.420597165297803 -10.508956662650954" fill="#ffdc14" stroke="none" /><path d="M 82.44556493220864 111.52570212397912 l -20.60101342120699 13.525991763789733 a45.64455735400533,45.64455735400533 0 0,0 -0.4255705877724642,-0.6604950029061348 l 20.830788872356496 -13.169375160962149" fill="#d8ff1c" stroke="none" /><path d="M 82.24976979558568 111.22182372390057 l -26.019452104788808 16.44968552801075 a51.783177902936615,51.783177902936615 0 0,0 -0.4698345933749701,-0.7575229631117768 l 26.298751337831735 -15.999366233533708" fill="#90ff24" stroke="none" /><line stroke="#e1ed5e" stroke-width="0.3" x1="26.63291911575756" x2="22.317208475507996" y1="142.92168965132927" y2="145.44649492493687" /><path d="M 25.769776987707644 143.4266507060508 a86.0,86.0 0 0,1 -11.730757126820373,-40.83630448921669" fill="none" id="id33" stroke="none" /><text fill="#e1ed5e" style="font-size:6.75px; font-family:Arial;" text-anchor="middle"><textPath startOffset="21.46611528233685" xlink:href="#id33">September</textPath></text><path d="M 81.87401531095188 110.60418214915194 l -20.690304865655094 12.10437751552647 a44.970913008730676,44.970913008730676 0 0,0 -0.3851394731345383,-0.6715231349128779 l 20.89559633494201 -11.746434534755284" fill="#e0ff1b" stroke="none" /><path d="M 81.69416730710424 110.29060199501025 l -16.151897094110577 9.079769669497713 a39.52905817870591,39.52905817870591 0 0,0 -0.32832382183475145,-0.5960031047307602 l 16.305797325396846 -8.80039604636913" fill="#ffda14" stroke="none" /><path d="M 81.51974371655577 109.97397251340807 l -13.914712989155635 7.509904773892813 a36.811954568727884,36.811954568727884 0 0,0 -0.2961565424631439,-0.5602165688331957 l 14.041922039843664 -7.269273189973491" fill="#ffb610" stroke="none" /><path d="M 81.35079622478065 109.6543875284942 l -18.76635963050396 9.715037197068932 a42.13192375345514,42.13192375345514 0 0,0 -0.3278692868692012,-0.6469172079602483 l 18.930807587159425 -9.390565777405998" fill="#fffb17" stroke="none" /><path d="M 81.18737489456691 109.33194174019688 l -19.04756832474471 9.448484563039674 a42.26226045423715,42.26226045423715 0 0,0 -0.31766477051437536,-0.6544835164566439 l 19.207386351873804 -9.119212090617745" fill="#fffd17" stroke="none" /><path d="M 81.02952815118164 109.00673069616217 l -40.68057677500776 19.314174286069026 a66.03272871034966,66.03272871034966 0 0,0 -0.4786598775735597,-1.0309907927116622 l 41.00701126942114 -18.611063426078537" fill="#36ff6e" stroke="none" /><path d="M 80.73074385275274 108.34839909993369 l -19.285648101230848 8.355500908785936 a42.01786426165208,42.01786426165208 0 0,0 -0.2818178549356449,-0.6661341614193081 l 19.4266169373588 -8.02229222170047" fill="#fffa17" stroke="none" /><path d="M 80.58989483394504 108.01547362559985 l -19.678089105650493 8.126138569531678 a42.289934685225106,42.289934685225106 0 0,0 -0.27205998186665387,-0.6752305635163072 l 19.815051701774536 -7.786208638172565" fill="#fffd17" stroke="none" /><path d="M 80.45479744820244 107.68017299344265 l -19.67862232311016 7.732599512007029 a42.14335053270179,42.14335053270179 0 0,0 -0.2594941095702037,-0.6774572359299718 l 19.808810712273875 -7.3927187092438995" fill="#fffb17" stroke="none" /><path d="M 80.32549172779594 107.34259656027581 l -17.172237844376813 6.408740324478466 a39.32914905636493,39.32914905636493 0 0,0 -0.23124741637001625,-0.636293573036894 l 17.280009521752053 -6.1121989544354545" fill="#ffd714" stroke="none" /><path d="M 80.20201598880116 107.00284435728193 l -17.435344339047347 6.1671432128089565 a39.493914881074964,39.493914881074964 0 0,0 -0.22118316723629006,-0.6428618175342499 l 17.538918337226868 -5.86610869218541" fill="#ffd914" stroke="none" /><path d="M 80.0844068197444 106.66101706037122 l -51.24410401171324 17.139225930958617 a75.03435260531701,75.03435260531701 0 0,0 -0.3991389821901425,-1.2284234745314935 l 51.53153524491964 -16.25460355644932" fill="#41ffd3" stroke="none" /><path d="M 79.86692584326677 105.97154293290107 l -20.287538556462582 6.017357634988197 a42.1611156035618,42.1611156035618 0 0,0 -0.2003804654443636,-0.6975506876592419 l 20.388111658793047 -5.667249471824359" fill="#fffb17" stroke="none" /><path d="M 79.76711848015287 105.62410040840567 l -20.146335676204057 5.600043404261141 a41.91017281870002,41.91017281870002 0 0,0 -0.18722256823670985,-0.6967248249137266 l 20.23974632078254 -5.252427646171875" fill="#fff817" stroke="none" /><path d="M 79.67330655649465 105.27499134158121 l -18.02334357337085 4.677247756016692 a39.620353383728556,39.620353383728556 0 0,0 -0.16562946432013623,-0.6616073773767118 l 18.101184351986042 -4.366312539242589" fill="#ffdb14" stroke="none" /><path d="M 79.58551787078972 104.9243191809786 l -11.830182809215078 2.853640653394067 a33.16949014043527,33.16949014043527 0 0,0 -0.12910739773577187,-0.5561912903911762 l 11.877550772881406 -2.649580705654316" fill="#ff850c" stroke="none" /><path d="M 79.50377843672027 104.57218783832718 l -20.756372780043 4.6302209848629285 a42.26654549645464,42.26654549645464 0 0,0 -0.15229232356125713,-0.7114590349530807 l 20.832999142328703 -4.272248130493685" fill="#fffd17" stroke="none" /><path d="M 79.4281124754447 104.21870165774334 l -29.39983500729795 6.029059440200771 a51.01166200312498,51.01166200312498 0 0,0 -0.16899451164666923,-0.8616993740503706 l 29.49925945192028 -5.522096339082446" fill="#99ff23" stroke="none" /><path d="M 79.29508885075956 103.50808413554451 l -20.80614080110238 3.5252357249999706 a42.102672388873245,42.102672388873245 0 0,0 -0.11491672943007324,-0.7155865838576619 l 20.863739284893743 -3.166569911449095" fill="#fffb17" stroke="none" /><path d="M 79.23777060512086 103.15116336523772 l -20.826905051786333 3.16097943829965 a42.06541632737118,42.06541632737118 0 0,0 -0.10249128313199032,-0.7168237955133031 l 20.878230385934923 -2.8020101708059464" fill="#fffa17" stroke="none" /><path d="M 79.10278846688536 102.07522291339032 l -18.394805561493687 1.8267184561002385 a39.48528528216474,39.48528528216474 0 0,0 -0.06134397016407047,-0.6769255990499374 l 18.423524127934833 -1.509811468501735" fill="#ffd914" stroke="none" /><path d="M 79.0235259727143 100.99374915477108 l -8.961696719352291 0.42455555345415974 a29.971747628395395,29.971747628395395 0 0,0 -0.01997812102474354,-0.5155465328633666 l 8.967676973228235 -0.2702317735767964" fill="#ff5808" stroke="none" /><path d="M 79.0095281055655 100.63252640178507 l -21.759625083100318 0.6557040464466661 a42.76950232673258,42.76950232673258 0 0,0 -0.015840881337654943,-0.7360635102128064 l 21.767688027122983 -0.2810507204437308" fill="#fbff18" stroke="none" /><line stroke="#e1ed5e" stroke-width="0.3" x1="15.007084014347285" x2="10.007500721073583" y1="101.09737516637583" y2="101.16192664675087" /><path d="M 14.007167355692545 101.11028546245083 a86.0,86.0 0 0,1 10.666146001902534,-42.60595125391555" fill="none" id="id34" stroke="none" /><text fill="#e1ed5e" style="font-size:6.75px; font-family:Arial;" text-anchor="middle"><textPath startOffset="22.20632615414155" xlink:href="#id34">October</textPath></text><path d="M 79.08570108090925 98.10471618934814 l -6.540057587005252 -0.5926694130811804 a27.56685695554174,27.56685695554174 0 0,0 0.04689368411232371,-0.4722129994513875 l 6.528886777210699 0.7051579432369982" fill="#ff3505" stroke="none" /><path d="M 79.3925641242962 95.95851677861259 l -18.205315430410092 -3.5703848501993636 a39.552120037862544,39.552120037862544 0 0,0 0.13677632405734427,-0.6669699312264007 l 18.141159810437752 3.883230437589167" fill="#ffda14" stroke="none" /><path d="M 79.46518482838121 95.60439243477599 l -15.558997481878006 -3.3305021967360053 a36.91146277133405,36.91146277133405 0 0,0 0.1383399668604436,-0.6201509456938388 l 15.499363128015524 3.5978313119798035" fill="#ffb811" stroke="none" /><path d="M 79.54389044137918 95.25157060432595 l -18.202154957114253 -4.225224127554131 a39.686116878871985,39.686116878871985 0 0,0 0.1601943331592377,-0.6641089318727096 l 18.1267278236942 4.537918291086237" fill="#ffdc14" stroke="none" /><path d="M 79.62865764111835 94.90015583598534 l -12.933340861810729 -3.237784813260517 a34.332462501157224,34.332462501157224 0 0,0 0.1484530252871523,-0.5720500642316432 l 12.87569150465327 3.459931303041024" fill="#ff950d" stroke="none" /><path d="M 79.71946130924805 94.55025226153421 l -6.365527197392022 -1.7105323471485852 a27.591347162104206,27.591347162104206 0 0,0 0.12720035348514216,-0.45760734952403487 l 6.3351400733405185 1.8198510000915626" fill="#ff3505" stroke="none" /><path d="M 79.81627453868168 94.20196356495316 l -18.00305613562414 -5.171610940536674 a39.73113957939326,39.73113957939326 0 0,0 0.19448223094253728,-0.6556974004423414 l 17.911368007569894 5.480737727725555" fill="#ffdc14" stroke="none" /><path d="M 79.91906864156998 93.8553929516997 l -17.13984166034288 -5.244656733945835 a38.92430183852495,38.92430183852495 0 0,0 0.20156211300432422,-0.6390069800380707 l 17.047024063570355 5.53891388041032" fill="#ffd213" stroke="none" /><path d="M 80.02781315780177 93.51064311812611 l -6.257168636451315 -2.0330773326338285 a27.579176451917025,27.579176451917025 0 0,0 0.15058585750107686,-0.45023254699849874 l 6.221245485178466 2.1404829825546496" fill="#ff3505" stroke="none" /><path d="M 80.14247586403 93.16781622104843 l -8.455851469960791 -2.9093219705895557 a29.94234747762539,29.94234747762539 0 0,0 0.17187894008332907,-0.485924909082567 l 8.404519449067653 3.0544445060987337" fill="#ff5708" stroke="none" /><path d="M 80.38941819471856 92.48833698450439 l -15.039368795384087 -5.76069957935979 a37.104914573111174,37.104914573111174 0 0,0 0.2335956684597207,-0.594475496732426 l 14.937979577042675 6.01872408098798" fill="#ffba11" stroke="none" /><path d="M 80.52162464483688 92.15188598940014 l -21.076072971880553 -8.491849066621265 a43.7225076187975,43.7225076187975 0 0,0 0.287274183159379,-0.6956572209042422 l 20.926777101834976 8.85338085797882" fill="#efff19" stroke="none" /><path d="M 80.95270993114464 91.15688171328213 l -14.35464349973518 -6.664455152042131 a36.82626780002381,36.82626780002381 0 0,0 0.2718862416087161,-0.5726617644643156 l 14.237799064284713 6.910559332146979" fill="#ffb610" stroke="none" /><path d="M 81.10775173730289 90.83032412892265 l -19.025039012823786 -9.234128133211915 a42.14760581768165,42.14760581768165 0 0,0 0.3224090882189069,-0.6499570481800757 l 18.863269911651464 9.560244769890952" fill="#fffb17" stroke="none" /><path d="M 81.26839172434947 90.50648371742162 l -14.17096280819351 -7.182099058428318 a36.88706183648445,36.88706183648445 0 0,0 0.2919181769363465,-0.5638930021514892 l 14.04523519809705 7.424964782840142" fill="#ffb711" stroke="none" /><path d="M 81.43458229118936 90.18545643968196 l -18.49192358288106 -9.775691146024071 a41.916868197164845,41.916868197164845 0 0,0 0.3427041321704772,-0.6349787091744966 l 18.32091135149211 10.092550838531041" fill="#fff817" stroke="none" /><path d="M 81.6062741919709 89.86733742301443 l -13.91406853992797 -7.664926783164173 a36.885603731841,36.885603731841 0 0,0 0.3111429927338589,-0.5534886658054357 l 13.78006790590168 7.903298958904394" fill="#ffb711" stroke="none" /><line stroke="#e1ed5e" stroke-width="0.3" x1="26.266209847984243" x2="21.928928074336255" y1="57.711370442889674" y2="55.22380399835377" /><path d="M 25.398753493254645 57.213857153982495 a86.0,86.0 0 0,1 29.58750427330803,-30.492523968695096" fill="none" id="id35" stroke="none" /><text fill="#e1ed5e" style="font-size:6.75px; font-family:Arial;" text-anchor="middle"><textPath startOffset="21.46611528233685" xlink:href="#id35">November</textPath></text><path d="M 81.78341655067845 89.55222093294921 l -9.505469364987723 -5.451683304407447 a31.957864696202222,31.957864696202222 0 0,0 0.27779042975609824,-0.47483389154399197 l 9.4102192607613 5.614496608305331" fill="#ff740a" stroke="none" /><path d="M 83.6137871275137 86.86637796730984 l -12.45556261786522 -9.98318848293623 a36.96261546280534,36.96261546280534 0 0,0 0.4021911128595938,-0.49303874875337417 l 12.281873012929236 10.196111401297687" fill="#ffb811" stroke="none" /><path d="M 83.84228863543731 86.58626213691792 l -16.447074345419527 -13.653959951775064 a42.37608188813924,42.37608188813924 0 0,0 0.4707566736430186,-0.5572274172949222 l 16.209607058289382 13.935046318699102" fill="#fffe18" stroke="none" /><path d="M 84.07557802195018 86.31012108654704 l -12.119030809252159 -10.418466965755819 a36.98171960935832,36.98171960935832 0 0,0 0.4191404840909569,-0.47915002907480814 l 11.937898461583359 10.62553255103357" fill="#ffb811" stroke="none" /><path d="M 84.31358615837235 86.03803664274999 l -15.834703077549811 -14.093950750871203 a42.19852045125198,42.19852045125198 0 0,0 0.48760663543286553,-0.5384274255362669 l 15.5897528015009 14.364430963677027" fill="#fffc17" stroke="none" /><path d="M 84.5562425177563 85.77008943001954 l -13.634725644336784 -12.5630648362748 a39.54012787110109,39.54012787110109 0 0,0 0.46550531920013993,-0.4965686181029501 l 13.41645300316619 12.7959028712558" fill="#ffda14" stroke="none" /><path d="M 84.80347519578584 85.50635884689758 l -21.63541561948741 -20.634714464462263 a50.89787032646051,50.89787032646051 0 0,0 0.6101339458368924,-0.628796663472894 l 21.2770174099474 21.00407532348528" fill="#9aff23" stroke="none" /><path d="M 85.31137513191541 84.99185889309783 l -16.86966293787939 -17.236622493347607 a45.11818157771929,45.11818157771929 0 0,0 0.5597163008920455,-0.538446637995498 l 16.57046339337492 17.52445221810542" fill="#deff1b" stroke="none" /><path d="M 85.57189188830299 84.74124197986013 l -12.801752131803445 -13.538770052231257 a39.63285142352957,39.63285142352957 0 0,0 0.4997365047466878,-0.4644506179102622 l 12.5668077432619 13.757125256216167" fill="#ffdb14" stroke="none" /><path d="M 85.83668400450813 84.49514656593479 l -10.821135689836966 -11.846104606750151 a37.04453713797723,37.04453713797723 0 0,0 0.4745034980813741,-0.42601392564308405 l 10.615621204159622 12.030617541162515" fill="#ffb911" stroke="none" /><path d="M 86.10567301691215 84.25364557470407 l -10.583883473451182 -11.994649368180982 a36.99656847093143,36.99656847093143 0 0,0 0.4811424894381252,-0.4172420255839182 l 10.375847185366283 12.175056387184581" fill="#ffb911" stroke="none" /><path d="M 86.37877921826538 84.01681056812374 l -10.330913470350104 -12.122331004453498 a36.92729362174867,36.92729362174867 0 0,0 0.48733910036978856,-0.4081324814374629 l 10.120716833021206 12.298364643284772" fill="#ffb811" stroke="none" /><path d="M 86.65592168130627 83.78471172551755 l -20.073637773769157 -24.392829196993993 a52.59052151684449,52.59052151684449 0 0,0 0.7039531841002618,-0.569214518213243 l 19.650781191104393 24.73474981247137" fill="#87ff25" stroke="none" /><path d="M 87.22198572758235 83.33499621200491 l -12.826835676774865 -16.728676348629524 a42.08023543170667,42.08023543170667 0 0,0 0.5786109443646561,-0.43579776743257875 l 12.536978578651818 16.946990705567956" fill="#fffa17" stroke="none" /><path d="M 87.51073957382395 83.11751280151077 l -9.555440575665953 -12.9166658144543 a37.066944337906186,37.066944337906186 0 0,0 0.5162095942892541,-0.37504822361553747 l 9.331685665022917 13.079233272886505" fill="#ffba11" stroke="none" /><path d="M 87.80319425747018 82.90503203632743 l -7.712889652679358 -10.810338731569155 a34.279762433329616,34.279762433329616 0 0,0 0.4832938189989882,-0.3385782054820836 l 7.52566469409671 10.941501779815182" fill="#ff940d" stroke="none" /><path d="M 88.39885842347998 82.49532879139004 l -7.06573969265276 -10.661317194493929 a33.79016660274371,33.79016660274371 0 0,0 0.4875968897558989,-0.3171465804871112 l 6.881175777112573 10.781362699140574" fill="#ff8d0d" stroke="none" /><path d="M 88.70189139769569 82.29822771554957 l -6.102727528238467 -9.561697167337478 a32.343250680637766,32.343250680637766 0 0,0 0.47187393136051675,-0.29548741252815924 l 5.937234444505708 9.665328921188568" fill="#ff790b" stroke="none" /><line stroke="#e1ed5e" stroke-width="0.3" x1="56.762969772571076" x2="54.21961505331055" y1="26.818313649435495" y2="22.513508569990535" /><path d="M 56.25429882871897 25.957352633546506 a86.0,86.0 0 0,1 42.265352541879196,-11.944610805530505" fill="none" id="id36" stroke="none" /><text fill="#e1ed5e" style="font-size:6.75px; font-family:Arial;" text-anchor="middle"><textPath startOffset="22.20632615414155" xlink:href="#id36">December</textPath></text><path d="M 89.3179101791058 81.91981866633112 l -8.106035149312204 -13.72002930643676 a36.93571491999554,36.93571491999554 0 0,0 0.5501720150335253,-0.31869514225379036 l 7.868666401813358 13.857528606080598" fill="#ffb811" stroke="none" /><path d="M 89.63071344664047 81.73862282372117 l -7.831624349544978 -13.792293752710947 a36.860696923951835,36.860696923951835 0 0,0 0.5544479151567873,-0.3085496644967334 l 7.593052345316146 13.925058814767864" fill="#ffb711" stroke="none" /><path d="M 89.94658935756843 81.56283822128135 l -7.360204799271955 -13.498034789898625 a36.37431487502905,36.37431487502905 0 0,0 0.5522919274781981,-0.29501522057815743 l 7.126767825265452 13.622728736978532" fill="#ffb010" stroke="none" /></svg>