<?xml version="1.0" encoding="utf-8" ?>
<svg baseProfile="full" height="200mm" version="1.1" viewBox="0,0,200,200" width="200mm" xmlns="http://www.w3.org/2000/svg" xmlns:ev="http://www.w3.org/2001/xml-events" xmlns:xlink="http://www.w3.org/1999/xlink"><defs /><rect fill="#1a1a1a" height="200" width="200" x="0" y="0" /><text alignment-baseline="middle" fill="#e1ed5e" style="dominant-baseline: central; font-size:9.0px; font-family:Arial;" text-anchor="middle" x="100.0" y="100.0">2023</text><line stroke="#e1ed5e" stroke-width="0.3" x1="100.0" x2="100.0" y1="15.0" y2="10.0" /><path d="M 100.0 14.0 a86.0,86.0 0 0,1 42.46469731375804,11.215312516191453" fill="none" id="id1" stroke="none" /><text fill="#e1ed5e" style="font-size:6.75px; font-family:Arial;" text-anchor="middle"><textPath startOffset="22.20632615414155" xlink:href="#id1">January</textPath></text><line stroke="#e1ed5e" stroke-width="0.3" x1="143.23703022742887" x2="145.7803849466894" y1="26.81831364943548" y2="22.513508569990506" /><path d="M 143.74570117128098 25.957352633546492 a86.0,86.0 0 0,1 28.547481713284135,27.462654790039103" fill="none" id="id2" stroke="none" /><text fill="#e1ed5e" style="font-size:6.75px; font-family:Arial;" text-anchor="middle"><textPath startOffset="19.985693538727396" xlink:href="#id2">February</textPath></text><line stroke="#e1ed5e" stroke-width="0.3" x1="172.23445277983987" x2="176.4835382374775" y1="55.19839476539836" y2="52.563006222186495" /><path d="M 173.08426987136738 54.67131705675599 a86.0,86.0 0 0,1 12.851231095245387,41.99856678651699" fill="none" id="id3" stroke="none" /><text fill="#e1ed5e" style="font-size:6.75px; font-family:Arial;" text-anchor="middle"><textPath startOffset="22.20632615414155" xlink:href="#id3">March</textPath></text><line stroke="#e1ed5e" stroke-width="0.3" x1="184.98032266829074" x2="189.97916517819016" y1="98.17113171792111" y2="98.06355123074" /><path d="M 185.9800911702706 98.14961562048488 a86.0,86.0 0 0,1 -9.607161424134198,41.387399972396054" fill="none" id="id4" stroke="none" /><text fill="#e1ed5e" style="font-size:6.75px; font-family:Arial;" text-anchor="middle"><textPath startOffset="21.466115282336823" xlink:href="#id4">April</textPath></text><line stroke="#e1ed5e" stroke-width="0.3" x1="174.80103733775053" x2="179.2010983576182" y1="140.37084112569926" y2="142.7455964860345" /><path d="M 175.68104954172406 140.8457921977663 a86.0,86.0 0 0,1 -30.038265399797805,32.042727171017184" fill="none" id="id5" stroke="none" /><text fill="#e1ed5e" style="font-size:6.75px; font-family:Arial;" text-anchor="middle"><textPath startOffset="22.206326154141568" xlink:href="#id5">May</textPath></text><line stroke="#e1ed5e" stroke-width="0.3" x1="143.8653032363475" x2="146.44561519142675" y1="172.8068346515853" y2="177.08958963109032" /><path d="M 144.38136562736335 173.6633856474863 a86.0,86.0 0 0,1 -40.68145358897372,12.25698825130547" fill="none" id="id6" stroke="none" /><text fill="#e1ed5e" style="font-size:6.75px; font-family:Arial;" text-anchor="middle"><textPath startOffset="21.466115282336833" xlink:href="#id6">June</textPath></text><line stroke="#e1ed5e" stroke-width="0.3" x1="102.19456741930631" x2="102.32365962044197" y1="184.97166512339345" y2="189.96999836594603" /><path d="M 102.22038585953345 185.97133177190398 a86.0,86.0 0 0,1 -42.740103519485714,-10.115201625700543" fill="none" id="id7" stroke="none" /><text fill="#e1ed5e" style="font-size:6.75px; font-family:Arial;" text-anchor="middle"><textPath startOffset="22.20632615414155" xlink:href="#id7">July</textPath></text><line stroke="#e1ed5e" stroke-width="0.3" x1="58.666819895761336" x2="56.23545636021788" y1="174.27360380694188" y2="178.64263932499728" /><path d="M 58.180547188652646 175.14741091055294 a86.0,86.0 0 0,1 -31.652253787137756,-30.449443065178592" fill="none" id="id8" stroke="none" /><text fill="#e1ed5e" style="font-size:6.75px; font-family:Arial;" text-anchor="middle"><textPath startOffset="22.20632615414155" xlink:href="#id8">August</textPath></text><line stroke="#e1ed5e" stroke-width="0.3" x1="26.63291911575756" x2="22.317208475507996" y1="142.92168965132927" y2="145.44649492493687" /><path d="M 25.769776987707644 143.4266507060508 a86.0,86.0 0 0,1 -11.730757126820373,-40.83630448921669" fill="none" id="id9" stroke="none" /><text fill="#e1ed5e" style="font-size:6.75px; font-family:Arial;" text-anchor="middle"><textPath startOffset="21.46611528233685" xlink:href="#id9">September</textPath></text><line stroke="#e1ed5e" stroke-width="0.3" x1="15.007084014347285" x2="10.007500721073583" y1="101.09737516637583" y2="101.16192664675087" /><path d="M 14.007167355692545 101.11028546245083 a86.0,86.0 0 0,1 10.666146001902534,-42.60595125391555" fill="none" id="id10" stroke="none" /><text fill="#e1ed5e" style="font-size:6.75px; font-family:Arial;" text-anchor="middle"><textPath startOffset="22.20632615414155" xlink:href="#id10">October</textPath></text><line stroke="#e1ed5e" stroke-width="0.3" x1="26.266209847984243" x2="21.928928074336255" y1="57.711370442889674" y2="55.22380399835377" /><path d="M 25.398753493254645 57.213857153982495 a86.0,86.0 0 0,1 29.58750427330803,-30.492523968695096" fill="none" id="id11" stroke="none" /><text fill="#e1ed5e" style="font-size:6.75px; font-family:Arial;" text-anchor="middle"><textPath startOffset="21.46611528233685" xlink:href="#id11">November</textPath></text><line stroke="#e1ed5e" stroke-width="0.3" x1="56.762969772571076" x2="54.21961505331055" y1="26.818313649435495" y2="22.513508569990535" /><path d="M 56.25429882871897 25.957352633546506 a86.0,86.0 0 0,1 42.265352541879196,-11.944610805530505" fill="none" id="id12" stroke="none" /><text fill="#e1ed5e" style="font-size:6.75px; font-family:Arial;" text-anchor="middle"><textPath startOffset="22.20632615414155" xlink:href="#id12">December</textPath></text><path d="M 92.57280143429618 80.3572730644239 l -9.33959525799915 -24.700446301356465 a47.407197637565304,47.407197637565304 0 0,0 0.7657790154407162,-0.2820428740617735 l 8.913033916785864 24.857552443224563" fill="#fff917" stroke="none" /><path d="M 92.91201910852362 80.23233633223022 l -8.960403297171316 -24.989660866476143 a47.54754183478101,47.54754183478101 0 0,0 0.7728015090840265,-0.2696152721640183 l 8.528919784024005 25.14019699181237" fill="#fffb17" stroke="none" /><path d="M 93.25333710446033 80.11325718540243 l -7.214677454269457 -21.26628190037284 a43.45676549806916,43.45676549806916 0 0,0 0.7104501945366926,-0.23422425916506034 l 6.847544437490355 21.387319883797133" fill="#ffbe11" stroke="none" /><path d="M 93.59665428221793 80.00007090966166 l -9.37513481513681 -29.28188478007766 a51.746088028816516,51.746088028816516 0 0,0 0.8506431663117008,-0.2642989724918017 l 8.869706276114382 29.43892388745199" fill="#c8ff1d" stroke="none" /><path d="M 93.94186890950719 79.89281104454417 l -4.601310875108153 -15.2719420934596 a36.95005570759462,36.95005570759462 0 0,0 0.6105728945809459,-0.1782429709393574 l 4.337747762803786 15.348883393317656" fill="#ff5708" stroke="none" /><path d="M 95.33964822691252 79.52364482259891 l -6.032277398378878 -26.5042341333782 a48.18203078520666,48.18203078520666 0 0,0 0.8102778446121321,-0.17709535290225192 l 5.575156829613225 26.60414298437632" fill="#faff18" stroke="none" /><path d="M 95.692805502759 79.44645832069477 l -5.250668097061766 -25.05571216862527 a46.599965385572276,46.599965385572276 0 0,0 0.7865044309674066,-0.15776538980252902 l 4.818597256627223 25.14238151450501" fill="#ffed16" stroke="none" /><path d="M 96.04723909329186 79.375362276772 l -6.023147618756398 -31.427460583197515 a52.99943102534425,52.99943102534425 0 0,0 0.8974693453039573,-0.16400678637461208 l 5.4812831523495475 31.52648285092286" fill="#b7ff1f" stroke="none" /><path d="M 96.40284397218896 79.31037775812273 l -1.8492689039203623 -10.636367938992455 a31.79593064134044,31.79593064134044 0 0,0 0.5400323725428489,-0.08910996864549083 l 1.6659073252386278 10.666624170577572" fill="#ff0000" stroke="none" /><path d="M 97.11714578562143 79.19881850522333 l -5.546261376095343 -40.018946822289486 a61.40144947916103,61.40144947916103 0 0,0 1.0481673945975285,-0.13608221042441426 l 4.856579252989957 40.10848735587804" fill="#4cff2c" stroke="none" /><path d="M 97.47563105711357 79.15227682838746 l -2.716560343014195 -22.4349527709622 a43.598823109457314,43.598823109457314 0 0,0 0.7458166166050971,-0.08380118688653718 l 2.32997702289938 22.478389911319336" fill="#ffc011" stroke="none" /><path d="M 97.83486435360386 79.11191278185805 l -2.7338626186047614 -26.374865202965637 a47.516174673055914,47.516174673055914 0 0,0 0.8142798724582918,-0.07732568553205976 l 2.2794576190562332 26.418016433012877" fill="#fffa17" stroke="none" /><path d="M 98.19473922651362 79.07773832637324 l -2.128256020636543 -24.665649432040507 a45.75729661319458,45.75729661319458 0 0,0 0.7853037432215699,-0.06095468455804216 l 1.703362088052639 24.69862937878701" fill="#ffe115" stroke="none" /><path d="M 98.55514903715128 79.0497635885617 l -1.7515109115237326 -25.396783901702772 a46.457109478944695,46.457109478944695 0 0,0 0.7982613429150349,-0.04815330416180012 l 1.3140875197690747 25.42317047524488" fill="#ffeb16" stroke="none" /><path d="M 98.91598698831166 79.02799685794201 l -1.1801895191019847 -22.832694844023536 a43.8631756574037,43.8631756574037 0 0,0 0.7543613337708944,-0.032484385873396554 l 0.7869873529417661 22.849626956421126" fill="#ffc412" stroke="none" /><path d="M 99.27714615592234 79.0124445844662 l -0.4880536008701148 -14.170294697792128 a35.178696983136284,35.178696983136284 0 0,0 0.6053640046788437,-0.015634766243074128 l 0.24406296099639208 14.176596256177561" fill="#ff3a05" stroke="none" /><path d="M 99.63851952072746 79.00311137660856 l -1.0844414378176228 -62.990665870174325 a84.0,84.0 0 0,0 1.445921917090143,-0.012445506434235476 l 1.543054966925665e-14 63.0" fill="#4dd2ff" stroke="none" /></svg>